{"glyphs":{"0":{"ha":865,"x_min":83,"x_max":782,"o":"m 83 433 q 97 669 83 579 q 147 806 110 758 q 252 872 183 854 q 433 889 321 889 q 613 872 544 889 q 719 807 682 854 q 769 669 756 760 q 782 433 782 579 q 774 234 782 315 q 747 103 767 153 q 688 26 726 53 q 586 -11 649 -1 q 433 -21 524 -21 q 281 -11 343 -21 q 179 26 218 -1 q 119 103 140 53 q 91 235 99 154 q 83 433 83 315 m 232 771 l 232 171 q 257 112 232 126 q 361 97 282 97 l 633 97 l 633 697 q 606 756 633 742 q 496 771 578 771 l 232 771 z "},"1":{"ha":604,"x_min":35,"x_max":563,"o":"m 49 0 l 49 115 l 254 115 l 254 750 l 35 725 l 35 847 l 393 889 l 393 115 l 563 115 l 563 0 l 49 0 z "},"2":{"ha":764,"x_min":76,"x_max":681,"o":"m 76 0 l 76 118 q 84 230 76 183 q 117 312 92 276 q 192 381 142 347 q 324 453 242 415 q 532 543 407 492 l 532 761 q 480 769 510 767 q 401 771 450 771 q 260 764 336 771 q 115 744 185 757 l 97 853 q 231 880 157 871 q 383 889 306 889 q 609 836 538 889 q 681 668 681 783 q 672 574 681 614 q 636 501 663 535 q 558 435 610 468 q 420 364 506 403 q 208 272 335 325 l 208 115 l 665 115 l 665 0 l 76 0 z "},"3":{"ha":696,"x_min":42,"x_max":626,"o":"m 308 -21 q 163 -12 232 -21 q 42 15 94 -3 l 58 124 q 188 104 115 111 q 326 97 261 97 q 478 107 439 97 l 478 372 l 236 403 l 236 476 l 478 515 l 478 761 q 356 771 440 771 q 217 764 290 771 q 88 744 144 757 l 72 853 q 199 880 128 871 q 350 889 271 889 q 558 831 489 889 q 626 654 626 772 q 599 526 626 582 q 518 443 571 471 l 518 436 q 601 355 575 406 q 626 226 626 304 q 596 81 626 135 q 496 3 565 26 q 308 -21 426 -21 z "},"4":{"ha":797,"x_min":42,"x_max":728,"o":"m 499 193 l 42 193 l 42 263 l 358 868 l 638 868 l 638 308 l 728 308 l 728 193 l 638 193 l 638 0 l 499 0 l 499 193 m 206 308 l 499 308 l 499 764 l 444 764 l 206 308 z "},"5":{"ha":736,"x_min":83,"x_max":667,"o":"m 369 -21 q 215 -12 289 -21 q 83 15 140 -3 l 101 124 q 239 104 167 111 q 374 97 311 97 q 460 99 426 97 q 518 107 494 101 l 518 339 l 403 350 q 254 372 311 360 q 166 403 197 383 q 123 451 135 422 q 111 526 111 481 l 125 868 l 628 868 l 617 753 l 264 753 l 264 486 l 346 478 q 540 439 471 465 q 638 363 610 413 q 667 228 667 313 q 595 39 667 99 q 369 -21 524 -21 z "},"6":{"ha":783,"x_min":76,"x_max":707,"o":"m 558 397 l 313 397 q 242 386 260 397 q 225 339 225 375 l 225 89 l 471 89 q 541 101 524 89 q 558 147 558 113 l 558 397 m 707 257 q 676 93 707 154 q 577 6 646 32 q 392 -21 508 -21 q 231 -3 293 -21 q 135 64 169 15 q 89 202 101 113 q 76 433 76 292 q 92 658 76 569 q 147 797 108 747 q 252 868 185 847 q 424 889 319 889 q 506 883 458 889 q 600 870 554 878 q 671 853 646 863 l 653 744 q 534 763 604 756 q 406 771 464 771 q 294 768 346 771 q 225 761 243 765 l 225 507 l 428 507 q 640 448 574 507 q 707 257 707 389 z "},"7":{"ha":649,"x_min":35,"x_max":593,"o":"m 301 0 l 161 0 l 442 753 l 46 753 l 35 868 l 593 868 l 593 782 l 301 0 z "},"8":{"ha":806,"x_min":76,"x_max":729,"o":"m 404 889 q 586 866 518 889 q 685 791 654 843 q 715 651 715 739 q 699 519 715 582 q 654 419 682 457 l 654 410 q 709 340 689 388 q 729 238 729 293 q 715 109 729 160 q 665 30 700 58 q 566 -10 629 1 q 404 -21 503 -21 q 242 -9 306 -21 q 142 31 178 3 q 91 110 106 60 q 76 238 76 160 q 99 367 76 307 q 157 457 121 426 l 157 467 q 108 543 126 494 q 90 651 90 592 q 122 790 90 738 q 222 865 153 842 q 404 889 290 889 m 274 418 q 242 426 253 426 q 225 403 225 426 l 225 89 l 482 89 q 560 101 540 89 q 579 147 579 113 l 581 314 l 274 418 m 525 464 q 538 460 532 463 q 549 458 544 458 q 572 466 563 458 q 581 483 581 474 l 581 779 l 322 779 q 244 768 264 779 q 225 721 225 757 l 225 567 l 525 464 z "},"9":{"ha":783,"x_min":76,"x_max":707,"o":"m 225 781 l 225 532 q 240 485 225 497 q 299 474 254 474 l 558 474 l 558 722 q 544 769 558 758 q 485 781 529 781 l 225 781 m 76 613 q 107 776 76 715 q 206 863 138 836 q 392 889 275 889 q 552 871 490 889 q 648 804 614 853 q 694 667 682 756 q 707 436 707 578 q 691 211 707 300 q 636 72 675 122 q 530 0 597 21 q 358 -21 463 -21 q 272 -15 322 -21 q 174 -1 221 -10 q 99 17 126 7 l 115 125 q 242 106 168 114 q 376 99 315 99 q 488 101 436 99 q 558 108 540 104 l 558 363 l 356 363 q 143 422 210 363 q 76 613 76 482 z "},"A":{"ha":765,"x_min":21,"x_max":744,"o":"m 21 0 l 278 868 l 488 868 l 744 0 l 606 0 l 389 740 l 376 740 l 160 0 l 21 0 m 149 194 l 149 304 l 619 304 l 619 194 l 149 194 z "},"Á":{"ha":765,"x_min":21,"x_max":744,"o":"m 21 0 l 278 868 l 488 868 l 744 0 l 606 0 l 389 740 l 376 740 l 160 0 l 21 0 m 149 194 l 149 304 l 619 304 l 619 194 l 149 194 m 296 957 l 265 1004 l 476 1157 q 488 1163 483 1163 q 499 1156 493 1163 l 558 1082 q 568 1065 568 1071 q 558 1050 568 1058 l 521 1019 q 509 1011 515 1014 q 490 1006 503 1008 l 296 957 z "},"Ă":{"ha":765,"x_min":21,"x_max":744,"o":"m 21 0 l 278 868 l 488 868 l 744 0 l 606 0 l 389 740 l 376 740 l 160 0 l 21 0 m 149 194 l 149 304 l 619 304 l 619 194 l 149 194 m 383 961 q 281 995 325 961 q 219 1111 238 1029 l 310 1126 q 340 1079 318 1096 q 383 1063 361 1063 q 428 1079 407 1063 q 457 1126 449 1096 l 547 1111 q 485 998 529 1035 q 383 961 440 961 z "},"Â":{"ha":765,"x_min":21,"x_max":744,"o":"m 21 0 l 278 868 l 488 868 l 744 0 l 606 0 l 389 740 l 376 740 l 160 0 l 21 0 m 149 194 l 149 304 l 619 304 l 619 194 l 149 194 m 268 946 l 219 993 l 357 1154 q 371 1163 364 1163 l 396 1163 q 410 1154 404 1163 l 547 993 l 499 946 l 383 1035 l 268 946 z "},"Ä":{"ha":765,"x_min":21,"x_max":744,"o":"m 21 0 l 278 868 l 488 868 l 744 0 l 606 0 l 389 740 l 376 740 l 160 0 l 21 0 m 149 194 l 149 304 l 619 304 l 619 194 l 149 194 m 511 972 q 452 990 465 972 q 439 1051 439 1008 q 452 1114 439 1096 q 511 1132 465 1132 q 569 1114 556 1132 q 582 1051 582 1096 q 569 990 582 1008 q 511 972 556 972 m 257 972 q 198 990 211 972 q 185 1051 185 1008 q 198 1114 185 1096 q 257 1132 211 1132 q 315 1114 301 1132 q 328 1051 328 1096 q 315 990 328 1008 q 257 972 301 972 z "},"À":{"ha":765,"x_min":21,"x_max":744,"o":"m 21 0 l 278 868 l 488 868 l 744 0 l 606 0 l 389 740 l 376 740 l 160 0 l 21 0 m 149 194 l 149 304 l 619 304 l 619 194 l 149 194 m 504 943 l 310 992 q 279 1006 290 997 l 242 1036 q 232 1051 232 1044 q 242 1068 232 1057 l 301 1142 q 313 1149 307 1149 q 324 1143 317 1149 l 535 990 l 504 943 z "},"Ā":{"ha":765,"x_min":21,"x_max":744,"o":"m 21 0 l 278 868 l 488 868 l 744 0 l 606 0 l 389 740 l 376 740 l 160 0 l 21 0 m 149 194 l 149 304 l 619 304 l 619 194 l 149 194 m 276 988 q 224 1002 233 988 q 214 1051 214 1017 l 214 1100 l 490 1100 q 542 1087 533 1100 q 551 1038 551 1074 l 551 988 l 276 988 z "},"Ą":{"ha":765,"x_min":21,"x_max":778,"o":"m 21 0 l 278 868 l 488 868 l 744 0 l 606 0 l 389 740 l 376 740 l 160 0 l 21 0 m 149 194 l 149 304 l 619 304 l 619 194 l 149 194 m 672 -239 q 580 -206 614 -239 q 546 -115 546 -172 q 598 -17 546 -58 q 731 33 650 24 l 744 0 l 717 -6 q 667 -28 678 -15 q 656 -72 656 -40 l 656 -101 q 666 -136 656 -124 q 696 -149 676 -149 l 767 -149 l 778 -215 q 726 -233 751 -226 q 672 -239 700 -239 z "},"Å":{"ha":765,"x_min":21,"x_max":744,"o":"m 21 0 l 278 868 l 488 868 l 744 0 l 606 0 l 389 740 l 376 740 l 160 0 l 21 0 m 149 194 l 149 304 l 619 304 l 619 194 l 149 194 m 383 922 q 278 957 310 922 q 246 1060 246 992 q 278 1162 246 1128 q 383 1196 310 1196 q 488 1162 457 1196 q 519 1060 519 1128 q 488 957 519 992 q 383 922 457 922 m 324 994 l 382 994 q 424 999 408 994 q 440 1031 440 1004 l 440 1124 l 386 1124 q 341 1119 358 1124 q 324 1089 324 1114 l 324 994 z "},"Ǻ":{"ha":765,"x_min":21,"x_max":744,"o":"m 21 0 l 278 868 l 488 868 l 744 0 l 606 0 l 389 740 l 376 740 l 160 0 l 21 0 m 149 194 l 149 304 l 619 304 l 619 194 l 149 194 m 383 922 q 278 957 310 922 q 246 1060 246 992 q 278 1162 246 1128 q 383 1196 310 1196 q 488 1162 457 1196 q 519 1060 519 1128 q 488 957 519 992 q 383 922 457 922 m 324 994 l 382 994 q 424 999 408 994 q 440 1031 440 1004 l 440 1124 l 386 1124 q 341 1119 358 1124 q 324 1089 324 1114 l 324 994 m 296 1257 l 265 1304 l 476 1457 q 488 1463 483 1463 q 499 1456 493 1463 l 558 1382 q 568 1365 568 1371 q 558 1350 568 1358 l 521 1319 q 509 1311 515 1314 q 490 1306 503 1308 l 296 1257 z "},"Ã":{"ha":765,"x_min":21,"x_max":744,"o":"m 21 0 l 278 868 l 488 868 l 744 0 l 606 0 l 389 740 l 376 740 l 160 0 l 21 0 m 149 194 l 149 304 l 619 304 l 619 194 l 149 194 m 413 957 q 388 961 400 957 q 360 978 376 965 q 315 1017 344 992 l 224 971 l 185 1035 q 270 1096 239 1075 q 321 1124 301 1117 q 354 1132 340 1132 q 377 1128 367 1132 q 404 1111 388 1124 q 451 1072 421 1099 l 543 1118 l 582 1054 q 503 997 535 1018 q 450 966 471 975 q 413 957 429 957 z "},"Æ":{"ha":1053,"x_min":21,"x_max":983,"o":"m 21 0 l 246 868 l 914 868 l 893 743 l 540 743 l 607 488 l 856 488 l 856 369 l 638 369 l 700 125 l 983 125 l 983 0 l 586 0 l 539 190 l 214 190 l 168 0 l 21 0 m 244 315 l 508 315 l 406 740 l 349 740 l 244 315 z "},"Ǽ":{"ha":1053,"x_min":21,"x_max":983,"o":"m 21 0 l 246 868 l 914 868 l 893 743 l 540 743 l 607 488 l 856 488 l 856 369 l 638 369 l 700 125 l 983 125 l 983 0 l 586 0 l 539 190 l 214 190 l 168 0 l 21 0 m 244 315 l 508 315 l 406 740 l 349 740 l 244 315 m 439 957 l 408 1004 l 619 1157 q 631 1163 626 1163 q 642 1156 636 1163 l 701 1082 q 711 1065 711 1071 q 701 1050 711 1058 l 664 1019 q 652 1011 658 1014 q 633 1006 646 1008 l 439 957 z "},"B":{"ha":808,"x_min":125,"x_max":739,"o":"m 125 868 l 458 868 q 638 816 581 868 q 696 653 696 764 q 676 528 696 576 q 611 447 656 479 l 611 439 q 706 367 672 418 q 739 244 739 317 q 678 63 739 126 q 503 0 618 0 l 125 0 l 125 868 m 264 39 l 201 101 l 483 101 q 573 137 546 101 q 600 253 600 172 q 574 358 600 326 q 485 389 547 389 l 242 389 l 242 486 l 446 486 q 533 517 508 486 q 557 625 557 547 q 533 736 557 706 q 447 767 510 767 l 201 767 l 264 829 l 264 39 z "},"C":{"ha":679,"x_min":90,"x_max":644,"o":"m 644 15 q 538 -12 593 -4 q 408 -21 482 -21 q 249 1 311 -21 q 153 73 188 22 q 104 212 118 124 q 90 433 90 300 q 105 658 90 569 q 156 797 119 746 q 256 868 192 847 q 422 889 321 889 q 490 885 451 889 q 565 876 528 882 q 626 860 601 869 l 608 746 q 532 760 574 754 q 453 768 490 765 q 392 771 415 771 q 275 752 311 771 q 239 665 239 733 l 239 115 q 317 100 275 106 q 404 94 360 94 q 520 104 463 94 q 631 129 578 114 l 644 15 z "},"Ć":{"ha":679,"x_min":90,"x_max":644,"o":"m 644 15 q 538 -12 593 -4 q 408 -21 482 -21 q 249 1 311 -21 q 153 73 188 22 q 104 212 118 124 q 90 433 90 300 q 105 658 90 569 q 156 797 119 746 q 256 868 192 847 q 422 889 321 889 q 490 885 451 889 q 565 876 528 882 q 626 860 601 869 l 608 746 q 532 760 574 754 q 453 768 490 765 q 392 771 415 771 q 275 752 311 771 q 239 665 239 733 l 239 115 q 317 100 275 106 q 404 94 360 94 q 520 104 463 94 q 631 129 578 114 l 644 15 m 308 957 l 278 1004 l 489 1157 q 500 1163 496 1163 q 511 1156 506 1163 l 571 1082 q 581 1065 581 1071 q 571 1050 581 1058 l 533 1019 q 522 1011 528 1014 q 503 1006 515 1008 l 308 957 z "},"Č":{"ha":679,"x_min":90,"x_max":644,"o":"m 644 15 q 538 -12 593 -4 q 408 -21 482 -21 q 249 1 311 -21 q 153 73 188 22 q 104 212 118 124 q 90 433 90 300 q 105 658 90 569 q 156 797 119 746 q 256 868 192 847 q 422 889 321 889 q 490 885 451 889 q 565 876 528 882 q 626 860 601 869 l 608 746 q 532 760 574 754 q 453 768 490 765 q 392 771 415 771 q 275 752 311 771 q 239 665 239 733 l 239 115 q 317 100 275 106 q 404 94 360 94 q 520 104 463 94 q 631 129 578 114 l 644 15 m 281 1163 l 396 1074 l 511 1163 l 560 1115 l 422 954 q 408 946 417 946 l 383 946 q 369 954 376 946 l 232 1115 l 281 1163 z "},"Ç":{"ha":679,"x_min":90,"x_max":644,"o":"m 644 15 q 538 -12 593 -4 q 408 -21 482 -21 q 249 1 311 -21 q 153 73 188 22 q 104 212 118 124 q 90 433 90 300 q 105 658 90 569 q 156 797 119 746 q 256 868 192 847 q 422 889 321 889 q 490 885 451 889 q 565 876 528 882 q 626 860 601 869 l 608 746 q 532 760 574 754 q 453 768 490 765 q 392 771 415 771 q 275 752 311 771 q 239 665 239 733 l 239 115 q 317 100 275 106 q 404 94 360 94 q 520 104 463 94 q 631 129 578 114 l 644 15 m 317 -239 q 222 -217 271 -239 l 232 -149 l 281 -149 q 327 -139 314 -149 q 340 -104 340 -129 l 340 29 l 368 29 q 427 -33 404 10 q 450 -126 450 -76 q 414 -208 450 -178 q 317 -239 378 -239 z "},"Ĉ":{"ha":679,"x_min":90,"x_max":644,"o":"m 644 15 q 538 -12 593 -4 q 408 -21 482 -21 q 249 1 311 -21 q 153 73 188 22 q 104 212 118 124 q 90 433 90 300 q 105 658 90 569 q 156 797 119 746 q 256 868 192 847 q 422 889 321 889 q 490 885 451 889 q 565 876 528 882 q 626 860 601 869 l 608 746 q 532 760 574 754 q 453 768 490 765 q 392 771 415 771 q 275 752 311 771 q 239 665 239 733 l 239 115 q 317 100 275 106 q 404 94 360 94 q 520 104 463 94 q 631 129 578 114 l 644 15 m 281 946 l 232 993 l 369 1154 q 383 1163 376 1163 l 408 1163 q 422 1154 417 1163 l 560 993 l 511 946 l 396 1035 l 281 946 z "},"Ċ":{"ha":679,"x_min":90,"x_max":644,"o":"m 644 15 q 538 -12 593 -4 q 408 -21 482 -21 q 249 1 311 -21 q 153 73 188 22 q 104 212 118 124 q 90 433 90 300 q 105 658 90 569 q 156 797 119 746 q 256 868 192 847 q 422 889 321 889 q 490 885 451 889 q 565 876 528 882 q 626 860 601 869 l 608 746 q 532 760 574 754 q 453 768 490 765 q 392 771 415 771 q 275 752 311 771 q 239 665 239 733 l 239 115 q 317 100 275 106 q 404 94 360 94 q 520 104 463 94 q 631 129 578 114 l 644 15 m 397 989 q 328 1006 346 989 q 311 1072 311 1024 q 329 1140 311 1122 q 397 1158 347 1158 q 463 1140 446 1158 q 481 1072 481 1122 q 464 1006 481 1024 q 397 989 447 989 z "},"D":{"ha":867,"x_min":125,"x_max":776,"o":"m 125 868 l 436 868 q 608 851 542 868 q 712 786 675 833 q 763 654 749 739 q 776 433 776 569 q 763 213 776 299 q 712 81 749 128 q 608 17 675 35 q 436 0 542 0 l 125 0 l 125 868 m 264 753 l 264 115 l 518 115 q 603 138 579 115 q 626 217 626 160 l 626 651 q 603 731 626 708 q 518 753 579 753 l 264 753 z "},"Ð":{"ha":867,"x_min":39,"x_max":776,"o":"m 125 868 l 436 868 q 608 851 542 868 q 712 786 675 833 q 763 654 749 739 q 776 433 776 569 q 763 213 776 299 q 712 81 749 128 q 608 17 675 35 q 436 0 542 0 l 125 0 l 125 868 m 264 753 l 264 115 l 518 115 q 603 138 579 115 q 626 217 626 160 l 626 651 q 603 731 626 708 q 518 753 579 753 l 264 753 m 39 425 q 50 472 39 461 q 96 483 61 483 l 406 483 l 406 443 q 395 397 406 408 q 349 386 385 386 l 39 386 l 39 425 z "},"Ď":{"ha":867,"x_min":125,"x_max":776,"o":"m 125 868 l 436 868 q 608 851 542 868 q 712 786 675 833 q 763 654 749 739 q 776 433 776 569 q 763 213 776 299 q 712 81 749 128 q 608 17 675 35 q 436 0 542 0 l 125 0 l 125 868 m 264 753 l 264 115 l 518 115 q 603 138 579 115 q 626 217 626 160 l 626 651 q 603 731 626 708 q 518 753 579 753 l 264 753 m 318 1163 l 433 1074 l 549 1163 l 597 1115 l 460 954 q 446 946 454 946 l 421 946 q 407 954 414 946 l 269 1115 l 318 1163 z "},"Đ":{"ha":867,"x_min":39,"x_max":776,"o":"m 125 868 l 436 868 q 608 851 542 868 q 712 786 675 833 q 763 654 749 739 q 776 433 776 569 q 763 213 776 299 q 712 81 749 128 q 608 17 675 35 q 436 0 542 0 l 125 0 l 125 868 m 264 753 l 264 115 l 518 115 q 603 138 579 115 q 626 217 626 160 l 626 651 q 603 731 626 708 q 518 753 579 753 l 264 753 m 39 425 q 50 472 39 461 q 96 483 61 483 l 406 483 l 406 443 q 395 397 406 408 q 349 386 385 386 l 39 386 l 39 425 z "},"E":{"ha":715,"x_min":125,"x_max":646,"o":"m 264 379 l 264 115 l 646 115 l 646 0 l 125 0 l 125 868 l 642 868 l 625 753 l 264 753 l 264 489 l 593 489 l 593 379 l 264 379 z "},"É":{"ha":715,"x_min":125,"x_max":646,"o":"m 264 379 l 264 115 l 646 115 l 646 0 l 125 0 l 125 868 l 642 868 l 625 753 l 264 753 l 264 489 l 593 489 l 593 379 l 264 379 m 303 957 l 272 1004 l 483 1157 q 494 1163 490 1163 q 506 1156 500 1163 l 565 1082 q 575 1065 575 1071 q 565 1050 575 1058 l 528 1019 q 516 1011 522 1014 q 497 1006 510 1008 l 303 957 z "},"Ĕ":{"ha":715,"x_min":125,"x_max":646,"o":"m 264 379 l 264 115 l 646 115 l 646 0 l 125 0 l 125 868 l 642 868 l 625 753 l 264 753 l 264 489 l 593 489 l 593 379 l 264 379 m 390 961 q 288 995 332 961 q 226 1111 244 1029 l 317 1126 q 347 1079 325 1096 q 390 1063 368 1063 q 435 1079 414 1063 q 464 1126 456 1096 l 554 1111 q 492 998 536 1035 q 390 961 447 961 z "},"Ě":{"ha":715,"x_min":125,"x_max":646,"o":"m 264 379 l 264 115 l 646 115 l 646 0 l 125 0 l 125 868 l 642 868 l 625 753 l 264 753 l 264 489 l 593 489 l 593 379 l 264 379 m 275 1163 l 390 1074 l 506 1163 l 554 1115 l 417 954 q 403 946 411 946 l 378 946 q 364 954 371 946 l 226 1115 l 275 1163 z "},"Ê":{"ha":715,"x_min":125,"x_max":646,"o":"m 264 379 l 264 115 l 646 115 l 646 0 l 125 0 l 125 868 l 642 868 l 625 753 l 264 753 l 264 489 l 593 489 l 593 379 l 264 379 m 275 946 l 226 993 l 364 1154 q 378 1163 371 1163 l 403 1163 q 417 1154 411 1163 l 554 993 l 506 946 l 390 1035 l 275 946 z "},"Ë":{"ha":715,"x_min":125,"x_max":646,"o":"m 264 379 l 264 115 l 646 115 l 646 0 l 125 0 l 125 868 l 642 868 l 625 753 l 264 753 l 264 489 l 593 489 l 593 379 l 264 379 m 518 972 q 459 990 472 972 q 446 1051 446 1008 q 459 1114 446 1096 q 518 1132 472 1132 q 576 1114 563 1132 q 589 1051 589 1096 q 576 990 589 1008 q 518 972 563 972 m 264 972 q 205 990 218 972 q 192 1051 192 1008 q 205 1114 192 1096 q 264 1132 218 1132 q 322 1114 308 1132 q 335 1051 335 1096 q 322 990 335 1008 q 264 972 308 972 z "},"Ė":{"ha":715,"x_min":125,"x_max":646,"o":"m 264 379 l 264 115 l 646 115 l 646 0 l 125 0 l 125 868 l 642 868 l 625 753 l 264 753 l 264 489 l 593 489 l 593 379 l 264 379 m 392 989 q 323 1006 340 989 q 306 1072 306 1024 q 324 1140 306 1122 q 392 1158 342 1158 q 458 1140 440 1158 q 475 1072 475 1122 q 458 1006 475 1024 q 392 989 442 989 z "},"È":{"ha":715,"x_min":125,"x_max":646,"o":"m 264 379 l 264 115 l 646 115 l 646 0 l 125 0 l 125 868 l 642 868 l 625 753 l 264 753 l 264 489 l 593 489 l 593 379 l 264 379 m 511 943 l 317 992 q 286 1006 297 997 l 249 1036 q 239 1051 239 1044 q 249 1068 239 1057 l 308 1142 q 319 1149 314 1149 q 331 1143 324 1149 l 542 990 l 511 943 z "},"Ē":{"ha":715,"x_min":125,"x_max":646,"o":"m 264 379 l 264 115 l 646 115 l 646 0 l 125 0 l 125 868 l 642 868 l 625 753 l 264 753 l 264 489 l 593 489 l 593 379 l 264 379 m 283 988 q 231 1002 240 988 q 221 1051 221 1017 l 221 1100 l 497 1100 q 549 1087 540 1100 q 558 1038 558 1074 l 558 988 l 283 988 z "},"Ę":{"ha":715,"x_min":125,"x_max":679,"o":"m 264 379 l 264 115 l 646 115 l 646 0 l 125 0 l 125 868 l 642 868 l 625 753 l 264 753 l 264 489 l 593 489 l 593 379 l 264 379 m 574 -239 q 481 -206 515 -239 q 447 -115 447 -172 q 499 -17 447 -58 q 632 33 551 24 l 646 0 l 618 -6 q 568 -28 579 -15 q 557 -72 557 -40 l 557 -101 q 567 -136 557 -124 q 597 -149 578 -149 l 668 -149 l 679 -215 q 627 -233 653 -226 q 574 -239 601 -239 z "},"F":{"ha":625,"x_min":125,"x_max":597,"o":"m 264 361 l 264 0 l 125 0 l 125 868 l 597 868 l 582 753 l 264 753 l 264 471 l 542 471 l 542 361 l 264 361 z "},"G":{"ha":792,"x_min":90,"x_max":701,"o":"m 386 -21 q 238 -3 296 -21 q 147 63 179 15 q 103 201 115 111 q 90 433 90 290 q 105 658 90 569 q 157 797 119 746 q 260 868 194 847 q 431 889 326 889 q 509 885 465 889 q 596 876 553 882 q 668 860 639 869 l 650 746 q 561 760 610 754 q 468 768 513 765 q 396 771 424 771 q 275 752 313 771 q 238 665 238 733 l 238 90 l 683 90 l 701 28 q 559 -10 633 1 q 386 -21 485 -21 m 578 42 l 578 368 l 446 368 l 446 478 l 701 478 l 701 28 l 578 42 z "},"Ğ":{"ha":792,"x_min":90,"x_max":701,"o":"m 386 -21 q 238 -3 296 -21 q 147 63 179 15 q 103 201 115 111 q 90 433 90 290 q 105 658 90 569 q 157 797 119 746 q 260 868 194 847 q 431 889 326 889 q 509 885 465 889 q 596 876 553 882 q 668 860 639 869 l 650 746 q 561 760 610 754 q 468 768 513 765 q 396 771 424 771 q 275 752 313 771 q 238 665 238 733 l 238 90 l 683 90 l 701 28 q 559 -10 633 1 q 386 -21 485 -21 m 578 42 l 578 368 l 446 368 l 446 478 l 701 478 l 701 28 l 578 42 m 435 961 q 333 995 376 961 q 271 1111 289 1029 l 361 1126 q 391 1079 369 1096 q 435 1063 413 1063 q 479 1079 458 1063 q 508 1126 500 1096 l 599 1111 q 536 998 581 1035 q 435 961 492 961 z "},"Ĝ":{"ha":792,"x_min":90,"x_max":701,"o":"m 386 -21 q 238 -3 296 -21 q 147 63 179 15 q 103 201 115 111 q 90 433 90 290 q 105 658 90 569 q 157 797 119 746 q 260 868 194 847 q 431 889 326 889 q 509 885 465 889 q 596 876 553 882 q 668 860 639 869 l 650 746 q 561 760 610 754 q 468 768 513 765 q 396 771 424 771 q 275 752 313 771 q 238 665 238 733 l 238 90 l 683 90 l 701 28 q 559 -10 633 1 q 386 -21 485 -21 m 578 42 l 578 368 l 446 368 l 446 478 l 701 478 l 701 28 l 578 42 m 319 946 l 271 993 l 408 1154 q 422 1163 415 1163 l 447 1163 q 461 1154 456 1163 l 599 993 l 550 946 l 435 1035 l 319 946 z "},"Ģ":{"ha":792,"x_min":90,"x_max":701,"o":"m 386 -21 q 238 -3 296 -21 q 147 63 179 15 q 103 201 115 111 q 90 433 90 290 q 105 658 90 569 q 157 797 119 746 q 260 868 194 847 q 431 889 326 889 q 509 885 465 889 q 596 876 553 882 q 668 860 639 869 l 650 746 q 561 760 610 754 q 468 768 513 765 q 396 771 424 771 q 275 752 313 771 q 238 665 238 733 l 238 90 l 683 90 l 701 28 q 559 -10 633 1 q 386 -21 485 -21 m 578 42 l 578 368 l 446 368 l 446 478 l 701 478 l 701 28 l 578 42 m 414 -397 l 354 -379 l 383 -243 q 330 -219 347 -239 q 313 -151 313 -200 q 335 -76 313 -97 q 407 -56 357 -56 q 479 -76 457 -56 q 501 -151 501 -97 q 490 -233 501 -201 q 457 -308 478 -265 l 414 -397 z "},"Ġ":{"ha":792,"x_min":90,"x_max":701,"o":"m 386 -21 q 238 -3 296 -21 q 147 63 179 15 q 103 201 115 111 q 90 433 90 290 q 105 658 90 569 q 157 797 119 746 q 260 868 194 847 q 431 889 326 889 q 509 885 465 889 q 596 876 553 882 q 668 860 639 869 l 650 746 q 561 760 610 754 q 468 768 513 765 q 396 771 424 771 q 275 752 313 771 q 238 665 238 733 l 238 90 l 683 90 l 701 28 q 559 -10 633 1 q 386 -21 485 -21 m 578 42 l 578 368 l 446 368 l 446 478 l 701 478 l 701 28 l 578 42 m 436 989 q 367 1006 385 989 q 350 1072 350 1024 q 368 1140 350 1122 q 436 1158 386 1158 q 502 1140 485 1158 q 519 1072 519 1122 q 503 1006 519 1024 q 436 989 486 989 z "},"H":{"ha":889,"x_min":125,"x_max":764,"o":"m 264 0 l 125 0 l 125 868 l 264 868 l 264 0 m 625 868 l 764 868 l 764 0 l 625 0 l 625 868 m 647 375 l 242 375 l 242 485 l 647 485 l 647 375 z "},"Ħ":{"ha":889,"x_min":39,"x_max":850,"o":"m 264 0 l 125 0 l 125 868 l 264 868 l 264 0 m 625 868 l 764 868 l 764 0 l 625 0 l 625 868 m 647 375 l 242 375 l 242 485 l 647 485 l 647 375 m 39 661 q 50 708 39 697 q 96 719 61 719 l 850 719 l 850 679 q 840 633 850 644 q 793 622 829 622 l 39 622 l 39 661 z "},"Ĥ":{"ha":889,"x_min":125,"x_max":764,"o":"m 264 0 l 125 0 l 125 868 l 264 868 l 264 0 m 625 868 l 764 868 l 764 0 l 625 0 l 625 868 m 647 375 l 242 375 l 242 485 l 647 485 l 647 375 m 329 946 l 281 993 l 418 1154 q 432 1163 425 1163 l 457 1163 q 471 1154 465 1163 l 608 993 l 560 946 l 444 1035 l 329 946 z "},"I":{"ha":389,"x_min":125,"x_max":264,"o":"m 125 868 l 264 868 l 264 0 l 125 0 l 125 868 z "},"Ĳ":{"ha":876,"x_min":125,"x_max":751,"o":"m 125 868 l 264 868 l 264 0 l 125 0 l 125 868 m 417 111 l 546 111 q 593 117 574 111 q 613 153 613 124 l 613 753 l 474 753 l 474 868 l 751 868 l 751 188 q 726 72 751 113 q 653 16 701 32 q 536 0 606 0 l 433 0 l 417 111 z "},"Í":{"ha":389,"x_min":76,"x_max":379,"o":"m 125 868 l 264 868 l 264 0 l 125 0 l 125 868 m 107 957 l 76 1004 l 288 1157 q 299 1163 294 1163 q 310 1156 304 1163 l 369 1082 q 379 1065 379 1071 q 369 1050 379 1058 l 332 1019 q 320 1011 326 1014 q 301 1006 314 1008 l 107 957 z "},"Ĭ":{"ha":389,"x_min":31,"x_max":358,"o":"m 125 868 l 264 868 l 264 0 l 125 0 l 125 868 m 194 961 q 92 995 136 961 q 31 1111 49 1029 l 121 1126 q 151 1079 129 1096 q 194 1063 172 1063 q 239 1079 218 1063 q 268 1126 260 1096 l 358 1111 q 296 998 340 1035 q 194 961 251 961 z "},"Î":{"ha":389,"x_min":31,"x_max":358,"o":"m 125 868 l 264 868 l 264 0 l 125 0 l 125 868 m 79 946 l 31 993 l 168 1154 q 182 1163 175 1163 l 207 1163 q 221 1154 215 1163 l 358 993 l 310 946 l 194 1035 l 79 946 z "},"Ï":{"ha":389,"x_min":-4,"x_max":393,"o":"m 125 868 l 264 868 l 264 0 l 125 0 l 125 868 m 322 972 q 263 990 276 972 q 250 1051 250 1008 q 263 1114 250 1096 q 322 1132 276 1132 q 380 1114 367 1132 q 393 1051 393 1096 q 380 990 393 1008 q 322 972 367 972 m 68 972 q 9 990 22 972 q -4 1051 -4 1008 q 9 1114 -4 1096 q 68 1132 22 1132 q 126 1114 113 1132 q 139 1051 139 1096 q 126 990 139 1008 q 68 972 113 972 z "},"İ":{"ha":389,"x_min":110,"x_max":279,"o":"m 125 868 l 264 868 l 264 0 l 125 0 l 125 868 m 196 989 q 127 1006 144 989 q 110 1072 110 1024 q 128 1140 110 1122 q 196 1158 146 1158 q 262 1140 244 1158 q 279 1072 279 1122 q 263 1006 279 1024 q 196 989 246 989 z "},"Ì":{"ha":389,"x_min":43,"x_max":346,"o":"m 125 868 l 264 868 l 264 0 l 125 0 l 125 868 m 315 943 l 121 992 q 90 1006 101 997 l 53 1036 q 43 1051 43 1044 q 53 1068 43 1057 l 113 1142 q 124 1149 118 1149 q 135 1143 128 1149 l 346 990 l 315 943 z "},"Ī":{"ha":389,"x_min":25,"x_max":363,"o":"m 125 868 l 264 868 l 264 0 l 125 0 l 125 868 m 88 988 q 35 1002 44 988 q 25 1051 25 1017 l 25 1100 l 301 1100 q 353 1087 344 1100 q 363 1038 363 1074 l 363 988 l 88 988 z "},"Į":{"ha":389,"x_min":65,"x_max":297,"o":"m 125 868 l 264 868 l 264 0 l 125 0 l 125 868 m 192 -239 q 99 -206 133 -239 q 65 -115 65 -172 q 117 -17 65 -58 q 250 33 169 24 l 264 0 l 236 -6 q 186 -28 197 -15 q 175 -72 175 -40 l 175 -101 q 185 -136 175 -124 q 215 -149 196 -149 l 286 -149 l 297 -215 q 245 -233 271 -226 q 192 -239 219 -239 z "},"Ĩ":{"ha":389,"x_min":-4,"x_max":393,"o":"m 125 868 l 264 868 l 264 0 l 125 0 l 125 868 m 224 957 q 199 961 211 957 q 172 978 188 965 q 126 1017 156 992 l 35 971 l -4 1035 q 81 1096 50 1075 q 132 1124 113 1117 q 165 1132 151 1132 q 188 1128 178 1132 q 215 1111 199 1124 q 263 1072 232 1099 l 354 1118 l 393 1054 q 314 997 346 1018 q 261 966 282 975 q 224 957 240 957 z "},"J":{"ha":488,"x_min":28,"x_max":363,"o":"m 28 111 l 157 111 q 204 117 185 111 q 224 153 224 124 l 224 753 l 85 753 l 85 868 l 363 868 l 363 188 q 338 72 363 113 q 265 16 313 32 q 147 0 217 0 l 44 0 l 28 111 z "},"Ĵ":{"ha":488,"x_min":28,"x_max":408,"o":"m 28 111 l 157 111 q 204 117 185 111 q 224 153 224 124 l 224 753 l 85 753 l 85 868 l 363 868 l 363 188 q 338 72 363 113 q 265 16 313 32 q 147 0 217 0 l 44 0 l 28 111 m 129 946 l 81 993 l 218 1154 q 232 1163 225 1163 l 257 1163 q 271 1154 265 1163 l 408 993 l 360 946 l 244 1035 l 129 946 z "},"K":{"ha":768,"x_min":125,"x_max":754,"o":"m 600 0 l 499 215 q 461 301 479 256 q 443 392 443 346 l 242 392 l 242 500 l 443 500 q 460 591 443 546 q 499 676 478 636 l 593 868 l 747 868 l 539 446 l 754 0 l 600 0 m 125 0 l 125 868 l 264 868 l 264 0 l 125 0 z "},"Ķ":{"ha":768,"x_min":125,"x_max":754,"o":"m 600 0 l 499 215 q 461 301 479 256 q 443 392 443 346 l 242 392 l 242 500 l 443 500 q 460 591 443 546 q 499 676 478 636 l 593 868 l 747 868 l 539 446 l 754 0 l 600 0 m 125 0 l 125 868 l 264 868 l 264 0 l 125 0 m 419 -397 l 360 -379 l 389 -243 q 335 -219 353 -239 q 318 -151 318 -200 q 340 -76 318 -97 q 413 -56 363 -56 q 485 -76 463 -56 q 507 -151 507 -97 q 495 -233 507 -201 q 463 -308 483 -265 l 419 -397 z "},"L":{"ha":597,"x_min":125,"x_max":583,"o":"m 125 0 l 125 868 l 264 868 l 264 115 l 583 115 l 583 0 l 125 0 z "},"Ĺ":{"ha":597,"x_min":76,"x_max":583,"o":"m 125 0 l 125 868 l 264 868 l 264 115 l 583 115 l 583 0 l 125 0 m 107 957 l 76 1004 l 288 1157 q 299 1163 294 1163 q 310 1156 304 1163 l 369 1082 q 379 1065 379 1071 q 369 1050 379 1058 l 332 1019 q 320 1011 326 1014 q 301 1006 314 1008 l 107 957 z "},"Ľ":{"ha":597,"x_min":125,"x_max":583,"o":"m 125 0 l 125 868 l 264 868 l 264 115 l 583 115 l 583 0 l 125 0 m 354 -397 l 294 -379 l 324 -243 q 270 -219 288 -239 q 253 -151 253 -200 q 275 -76 253 -97 q 347 -56 297 -56 q 419 -76 397 -56 q 442 -151 442 -97 q 430 -233 442 -201 q 397 -308 418 -265 l 354 -397 z "},"Ļ":{"ha":597,"x_min":125,"x_max":583,"o":"m 125 0 l 125 868 l 264 868 l 264 115 l 583 115 l 583 0 l 125 0 m 354 -397 l 294 -379 l 324 -243 q 270 -219 288 -239 q 253 -151 253 -200 q 275 -76 253 -97 q 347 -56 297 -56 q 419 -76 397 -56 q 442 -151 442 -97 q 430 -233 442 -201 q 397 -308 418 -265 l 354 -397 z "},"Ŀ":{"ha":597,"x_min":125,"x_max":583,"o":"m 393 463 q 407 521 393 503 q 465 539 421 539 q 524 521 510 539 q 538 463 538 503 q 524 403 538 421 q 465 386 510 386 q 407 403 421 386 q 393 463 393 421 m 125 0 l 125 868 l 264 868 l 264 115 l 583 115 l 583 0 l 125 0 z "},"Ł":{"ha":597,"x_min":19,"x_max":583,"o":"m 125 0 l 125 868 l 264 868 l 264 115 l 583 115 l 583 0 l 125 0 m 40 358 l 28 396 q 19 436 19 421 q 43 465 19 457 l 349 567 l 361 529 q 369 489 369 504 q 346 460 369 468 l 40 358 z "},"M":{"ha":1104,"x_min":104,"x_max":1000,"o":"m 104 0 l 163 868 l 354 868 l 547 218 l 557 218 l 750 868 l 942 868 l 1000 0 l 863 0 l 818 685 l 810 685 l 608 0 l 496 0 l 294 685 l 286 685 l 242 0 l 104 0 z "},"N":{"ha":918,"x_min":132,"x_max":786,"o":"m 132 0 l 132 868 l 267 868 l 603 326 q 631 277 624 292 q 639 240 638 263 l 647 240 l 647 868 l 786 868 l 786 0 l 651 0 l 315 542 q 288 591 294 576 q 279 628 282 606 l 271 628 l 271 0 l 132 0 z "},"Ń":{"ha":918,"x_min":132,"x_max":786,"o":"m 132 0 l 132 868 l 267 868 l 603 326 q 631 277 624 292 q 639 240 638 263 l 647 240 l 647 868 l 786 868 l 786 0 l 651 0 l 315 542 q 288 591 294 576 q 279 628 282 606 l 271 628 l 271 0 l 132 0 m 386 957 l 356 1004 l 567 1157 q 578 1163 574 1163 q 589 1156 583 1163 l 649 1082 q 658 1065 658 1071 q 649 1050 658 1058 l 611 1019 q 599 1011 606 1014 q 581 1006 593 1008 l 386 957 z "},"Ň":{"ha":918,"x_min":132,"x_max":786,"o":"m 132 0 l 132 868 l 267 868 l 603 326 q 631 277 624 292 q 639 240 638 263 l 647 240 l 647 868 l 786 868 l 786 0 l 651 0 l 315 542 q 288 591 294 576 q 279 628 282 606 l 271 628 l 271 0 l 132 0 m 358 1163 l 474 1074 l 589 1163 l 638 1115 l 500 954 q 486 946 494 946 l 461 946 q 447 954 454 946 l 310 1115 l 358 1163 z "},"Ņ":{"ha":918,"x_min":132,"x_max":786,"o":"m 132 0 l 132 868 l 267 868 l 603 326 q 631 277 624 292 q 639 240 638 263 l 647 240 l 647 868 l 786 868 l 786 0 l 651 0 l 315 542 q 288 591 294 576 q 279 628 282 606 l 271 628 l 271 0 l 132 0 m 467 -397 l 407 -379 l 436 -243 q 383 -219 400 -239 q 365 -151 365 -200 q 388 -76 365 -97 q 460 -56 410 -56 q 532 -76 510 -56 q 554 -151 554 -97 q 542 -233 554 -201 q 510 -308 531 -265 l 467 -397 z "},"Ŋ":{"ha":918,"x_min":132,"x_max":786,"o":"m 132 0 l 132 868 l 267 868 l 603 326 q 631 277 624 292 q 639 240 638 263 l 647 240 l 647 868 l 786 868 l 786 0 l 651 0 l 315 542 q 288 591 294 576 q 279 628 282 606 l 271 628 l 271 0 l 132 0 m 614 -243 q 558 -239 588 -243 q 507 -228 529 -235 l 515 -147 q 599 -141 571 -147 q 638 -117 628 -135 q 647 -62 647 -99 l 647 685 l 786 706 l 786 -83 q 744 -203 786 -164 q 614 -243 703 -243 z "},"Ñ":{"ha":918,"x_min":132,"x_max":786,"o":"m 132 0 l 132 868 l 267 868 l 603 326 q 631 277 624 292 q 639 240 638 263 l 647 240 l 647 868 l 786 868 l 786 0 l 651 0 l 315 542 q 288 591 294 576 q 279 628 282 606 l 271 628 l 271 0 l 132 0 m 503 957 q 478 961 490 957 q 451 978 467 965 q 406 1017 435 992 l 314 971 l 275 1035 q 360 1096 329 1075 q 411 1124 392 1117 q 444 1132 431 1132 q 467 1128 457 1132 q 494 1111 478 1124 q 542 1072 511 1099 l 633 1118 l 672 1054 q 593 997 625 1018 q 540 966 561 975 q 503 957 519 957 z "},"O":{"ha":883,"x_min":90,"x_max":793,"o":"m 90 433 q 105 665 90 575 q 157 803 119 754 q 263 870 194 851 q 442 889 332 889 q 619 870 550 889 q 726 802 689 851 q 778 664 764 753 q 793 433 793 575 q 778 203 793 292 q 726 65 764 114 q 619 -2 689 17 q 442 -21 550 -21 q 263 -2 332 -21 q 157 65 194 17 q 105 203 119 114 q 90 433 90 292 m 239 97 l 525 97 q 618 119 592 97 q 644 199 644 142 l 644 771 l 357 771 q 265 749 290 771 q 239 669 239 726 l 239 97 z "},"Ó":{"ha":883,"x_min":90,"x_max":793,"o":"m 90 433 q 105 665 90 575 q 157 803 119 754 q 263 870 194 851 q 442 889 332 889 q 619 870 550 889 q 726 802 689 851 q 778 664 764 753 q 793 433 793 575 q 778 203 793 292 q 726 65 764 114 q 619 -2 689 17 q 442 -21 550 -21 q 263 -2 332 -21 q 157 65 194 17 q 105 203 119 114 q 90 433 90 292 m 239 97 l 525 97 q 618 119 592 97 q 644 199 644 142 l 644 771 l 357 771 q 265 749 290 771 q 239 669 239 726 l 239 97 m 354 957 l 324 1004 l 535 1157 q 546 1163 542 1163 q 557 1156 551 1163 l 617 1082 q 626 1065 626 1071 q 617 1050 626 1058 l 579 1019 q 567 1011 574 1014 q 549 1006 561 1008 l 354 957 z "},"Ŏ":{"ha":883,"x_min":90,"x_max":793,"o":"m 90 433 q 105 665 90 575 q 157 803 119 754 q 263 870 194 851 q 442 889 332 889 q 619 870 550 889 q 726 802 689 851 q 778 664 764 753 q 793 433 793 575 q 778 203 793 292 q 726 65 764 114 q 619 -2 689 17 q 442 -21 550 -21 q 263 -2 332 -21 q 157 65 194 17 q 105 203 119 114 q 90 433 90 292 m 239 97 l 525 97 q 618 119 592 97 q 644 199 644 142 l 644 771 l 357 771 q 265 749 290 771 q 239 669 239 726 l 239 97 m 442 961 q 340 995 383 961 q 278 1111 296 1029 l 368 1126 q 398 1079 376 1096 q 442 1063 419 1063 q 486 1079 465 1063 q 515 1126 507 1096 l 606 1111 q 543 998 588 1035 q 442 961 499 961 z "},"Ô":{"ha":883,"x_min":90,"x_max":793,"o":"m 90 433 q 105 665 90 575 q 157 803 119 754 q 263 870 194 851 q 442 889 332 889 q 619 870 550 889 q 726 802 689 851 q 778 664 764 753 q 793 433 793 575 q 778 203 793 292 q 726 65 764 114 q 619 -2 689 17 q 442 -21 550 -21 q 263 -2 332 -21 q 157 65 194 17 q 105 203 119 114 q 90 433 90 292 m 239 97 l 525 97 q 618 119 592 97 q 644 199 644 142 l 644 771 l 357 771 q 265 749 290 771 q 239 669 239 726 l 239 97 m 326 946 l 278 993 l 415 1154 q 429 1163 422 1163 l 454 1163 q 468 1154 463 1163 l 606 993 l 557 946 l 442 1035 l 326 946 z "},"Ö":{"ha":883,"x_min":90,"x_max":793,"o":"m 90 433 q 105 665 90 575 q 157 803 119 754 q 263 870 194 851 q 442 889 332 889 q 619 870 550 889 q 726 802 689 851 q 778 664 764 753 q 793 433 793 575 q 778 203 793 292 q 726 65 764 114 q 619 -2 689 17 q 442 -21 550 -21 q 263 -2 332 -21 q 157 65 194 17 q 105 203 119 114 q 90 433 90 292 m 239 97 l 525 97 q 618 119 592 97 q 644 199 644 142 l 644 771 l 357 771 q 265 749 290 771 q 239 669 239 726 l 239 97 m 569 972 q 510 990 524 972 q 497 1051 497 1008 q 510 1114 497 1096 q 569 1132 524 1132 q 627 1114 614 1132 q 640 1051 640 1096 q 627 990 640 1008 q 569 972 614 972 m 315 972 q 256 990 269 972 q 243 1051 243 1008 q 256 1114 243 1096 q 315 1132 269 1132 q 373 1114 360 1132 q 386 1051 386 1096 q 373 990 386 1008 q 315 972 360 972 z "},"Ò":{"ha":883,"x_min":90,"x_max":793,"o":"m 90 433 q 105 665 90 575 q 157 803 119 754 q 263 870 194 851 q 442 889 332 889 q 619 870 550 889 q 726 802 689 851 q 778 664 764 753 q 793 433 793 575 q 778 203 793 292 q 726 65 764 114 q 619 -2 689 17 q 442 -21 550 -21 q 263 -2 332 -21 q 157 65 194 17 q 105 203 119 114 q 90 433 90 292 m 239 97 l 525 97 q 618 119 592 97 q 644 199 644 142 l 644 771 l 357 771 q 265 749 290 771 q 239 669 239 726 l 239 97 m 563 943 l 368 992 q 338 1006 349 997 l 300 1036 q 290 1051 290 1044 q 300 1068 290 1057 l 360 1142 q 371 1149 365 1149 q 382 1143 375 1149 l 593 990 l 563 943 z "},"Ő":{"ha":883,"x_min":90,"x_max":793,"o":"m 90 433 q 105 665 90 575 q 157 803 119 754 q 263 870 194 851 q 442 889 332 889 q 619 870 550 889 q 726 802 689 851 q 778 664 764 753 q 793 433 793 575 q 778 203 793 292 q 726 65 764 114 q 619 -2 689 17 q 442 -21 550 -21 q 263 -2 332 -21 q 157 65 194 17 q 105 203 119 114 q 90 433 90 292 m 239 97 l 525 97 q 618 119 592 97 q 644 199 644 142 l 644 771 l 357 771 q 265 749 290 771 q 239 669 239 726 l 239 97 m 515 964 l 485 1011 l 669 1157 q 681 1163 676 1163 q 685 1162 683 1163 q 692 1156 688 1161 l 753 1081 q 758 1073 756 1076 q 761 1065 761 1069 q 760 1061 761 1064 q 756 1054 760 1058 l 714 1019 q 703 1012 708 1015 q 683 1006 697 1008 l 515 964 m 208 964 l 178 1011 l 363 1157 q 374 1163 369 1163 q 378 1162 376 1163 q 385 1156 381 1161 l 446 1081 q 451 1073 449 1076 q 454 1065 454 1069 q 453 1061 454 1064 q 449 1054 453 1058 l 407 1019 q 396 1012 401 1015 q 376 1006 390 1008 l 208 964 z "},"Ō":{"ha":883,"x_min":90,"x_max":793,"o":"m 90 433 q 105 665 90 575 q 157 803 119 754 q 263 870 194 851 q 442 889 332 889 q 619 870 550 889 q 726 802 689 851 q 778 664 764 753 q 793 433 793 575 q 778 203 793 292 q 726 65 764 114 q 619 -2 689 17 q 442 -21 550 -21 q 263 -2 332 -21 q 157 65 194 17 q 105 203 119 114 q 90 433 90 292 m 239 97 l 525 97 q 618 119 592 97 q 644 199 644 142 l 644 771 l 357 771 q 265 749 290 771 q 239 669 239 726 l 239 97 m 335 988 q 282 1002 292 988 q 272 1051 272 1017 l 272 1100 l 549 1100 q 601 1087 592 1100 q 610 1038 610 1074 l 610 988 l 335 988 z "},"Ø":{"ha":883,"x_min":90,"x_max":793,"o":"m 264 -65 q 241 -97 254 -89 q 204 -104 228 -104 l 161 -104 l 619 935 q 643 966 631 958 q 679 974 656 974 l 722 974 l 264 -65 m 90 433 q 105 665 90 575 q 157 803 119 754 q 263 870 194 851 q 442 889 332 889 q 619 870 550 889 q 726 802 689 851 q 778 664 764 753 q 793 433 793 575 q 778 203 793 292 q 726 65 764 114 q 619 -2 689 17 q 442 -21 550 -21 q 263 -2 332 -21 q 157 65 194 17 q 105 203 119 114 q 90 433 90 292 m 239 97 l 525 97 q 618 119 592 97 q 644 199 644 142 l 644 771 l 357 771 q 265 749 290 771 q 239 669 239 726 l 239 97 z "},"Ǿ":{"ha":883,"x_min":90,"x_max":793,"o":"m 264 -65 q 241 -97 254 -89 q 204 -104 228 -104 l 161 -104 l 619 935 q 643 966 631 958 q 679 974 656 974 l 722 974 l 264 -65 m 90 433 q 105 665 90 575 q 157 803 119 754 q 263 870 194 851 q 442 889 332 889 q 619 870 550 889 q 726 802 689 851 q 778 664 764 753 q 793 433 793 575 q 778 203 793 292 q 726 65 764 114 q 619 -2 689 17 q 442 -21 550 -21 q 263 -2 332 -21 q 157 65 194 17 q 105 203 119 114 q 90 433 90 292 m 239 97 l 525 97 q 618 119 592 97 q 644 199 644 142 l 644 771 l 357 771 q 265 749 290 771 q 239 669 239 726 l 239 97 m 354 957 l 324 1004 l 535 1157 q 546 1163 542 1163 q 557 1156 551 1163 l 617 1082 q 626 1065 626 1071 q 617 1050 626 1058 l 579 1019 q 567 1011 574 1014 q 549 1006 561 1008 l 354 957 z "},"Õ":{"ha":883,"x_min":90,"x_max":793,"o":"m 90 433 q 105 665 90 575 q 157 803 119 754 q 263 870 194 851 q 442 889 332 889 q 619 870 550 889 q 726 802 689 851 q 778 664 764 753 q 793 433 793 575 q 778 203 793 292 q 726 65 764 114 q 619 -2 689 17 q 442 -21 550 -21 q 263 -2 332 -21 q 157 65 194 17 q 105 203 119 114 q 90 433 90 292 m 239 97 l 525 97 q 618 119 592 97 q 644 199 644 142 l 644 771 l 357 771 q 265 749 290 771 q 239 669 239 726 l 239 97 m 471 957 q 447 961 458 957 q 419 978 435 965 q 374 1017 403 992 l 282 971 l 243 1035 q 328 1096 297 1075 q 379 1124 360 1117 q 413 1132 399 1132 q 435 1128 425 1132 q 463 1111 446 1124 q 510 1072 479 1099 l 601 1118 l 640 1054 q 561 997 593 1018 q 508 966 529 975 q 471 957 488 957 z "},"Œ":{"ha":1235,"x_min":90,"x_max":1165,"o":"m 783 379 l 783 115 l 1165 115 l 1165 0 l 644 0 l 644 868 l 1161 868 l 1144 753 l 783 753 l 783 489 l 1113 489 l 1113 379 l 783 379 m 90 433 q 105 653 90 568 q 157 785 119 739 q 264 850 194 832 q 442 868 333 868 l 658 868 l 658 0 l 442 0 q 263 17 332 0 q 157 81 194 35 q 105 213 119 128 q 90 433 90 299 m 239 115 l 525 115 q 618 138 592 115 q 644 217 644 160 l 644 753 l 357 753 q 265 731 290 753 q 239 651 239 708 l 239 115 z "},"P":{"ha":736,"x_min":125,"x_max":708,"o":"m 264 286 l 264 0 l 125 0 l 125 868 l 465 868 q 610 840 557 868 q 685 749 663 813 q 708 575 708 685 q 657 353 708 419 q 486 286 606 286 l 264 286 m 264 396 l 467 396 q 542 408 521 396 q 563 454 563 421 l 563 694 q 542 740 563 728 q 467 753 521 753 l 264 753 l 264 396 z "},"Þ":{"ha":736,"x_min":125,"x_max":708,"o":"m 465 725 q 610 697 557 725 q 685 606 663 669 q 708 432 708 542 q 657 210 708 276 q 486 143 606 143 l 264 143 l 264 0 l 125 0 l 125 868 l 264 868 l 264 725 l 465 725 m 563 311 l 563 557 q 542 603 563 590 q 467 615 521 615 l 264 615 l 264 253 l 467 253 q 542 265 521 253 q 563 311 563 278 z "},"Q":{"ha":869,"x_min":90,"x_max":789,"o":"m 435 -21 q 260 -2 328 -21 q 156 65 193 17 q 104 203 118 114 q 90 433 90 292 q 104 664 90 575 q 156 802 118 753 q 260 870 193 851 q 435 889 328 889 q 609 870 542 889 q 713 802 676 851 q 765 663 750 753 q 779 433 779 574 q 766 217 779 300 q 722 88 753 133 q 638 21 692 43 l 514 18 l 435 -21 m 240 97 l 514 97 q 604 119 579 97 q 629 199 629 142 l 629 771 l 354 771 q 265 749 290 771 q 240 669 240 726 l 240 97 m 754 -100 l 514 -21 l 514 18 l 635 74 l 789 -24 l 754 -100 z "},"R":{"ha":806,"x_min":125,"x_max":757,"o":"m 264 307 l 264 0 l 125 0 l 125 868 l 472 868 q 617 840 564 868 q 692 749 669 813 q 715 575 715 685 q 664 369 715 432 q 493 307 613 307 l 264 307 m 264 417 l 474 417 q 549 429 528 417 q 569 475 569 442 l 569 694 q 549 740 569 728 q 474 753 528 753 l 264 753 l 264 417 m 576 372 l 757 0 l 606 0 l 442 347 l 576 372 z "},"Ŕ":{"ha":806,"x_min":125,"x_max":757,"o":"m 264 307 l 264 0 l 125 0 l 125 868 l 472 868 q 617 840 564 868 q 692 749 669 813 q 715 575 715 685 q 664 369 715 432 q 493 307 613 307 l 264 307 m 264 417 l 474 417 q 549 429 528 417 q 569 475 569 442 l 569 694 q 549 740 569 728 q 474 753 528 753 l 264 753 l 264 417 m 576 372 l 757 0 l 606 0 l 442 347 l 576 372 m 329 957 l 299 1004 l 510 1157 q 521 1163 517 1163 q 532 1156 526 1163 l 592 1082 q 601 1065 601 1071 q 592 1050 601 1058 l 554 1019 q 542 1011 549 1014 q 524 1006 536 1008 l 329 957 z "},"Ř":{"ha":806,"x_min":125,"x_max":757,"o":"m 264 307 l 264 0 l 125 0 l 125 868 l 472 868 q 617 840 564 868 q 692 749 669 813 q 715 575 715 685 q 664 369 715 432 q 493 307 613 307 l 264 307 m 264 417 l 474 417 q 549 429 528 417 q 569 475 569 442 l 569 694 q 549 740 569 728 q 474 753 528 753 l 264 753 l 264 417 m 576 372 l 757 0 l 606 0 l 442 347 l 576 372 m 301 1163 l 417 1074 l 532 1163 l 581 1115 l 443 954 q 429 946 438 946 l 404 946 q 390 954 397 946 l 253 1115 l 301 1163 z "},"Ŗ":{"ha":806,"x_min":125,"x_max":757,"o":"m 264 307 l 264 0 l 125 0 l 125 868 l 472 868 q 617 840 564 868 q 692 749 669 813 q 715 575 715 685 q 664 369 715 432 q 493 307 613 307 l 264 307 m 264 417 l 474 417 q 549 429 528 417 q 569 475 569 442 l 569 694 q 549 740 569 728 q 474 753 528 753 l 264 753 l 264 417 m 576 372 l 757 0 l 606 0 l 442 347 l 576 372 m 410 -397 l 350 -379 l 379 -243 q 326 -219 343 -239 q 308 -151 308 -200 q 331 -76 308 -97 q 403 -56 353 -56 q 475 -76 453 -56 q 497 -151 497 -97 q 485 -233 497 -201 q 453 -308 474 -265 l 410 -397 z "},"S":{"ha":721,"x_min":64,"x_max":665,"o":"m 85 126 q 215 103 140 113 q 357 94 289 94 q 426 96 392 94 q 514 103 460 97 l 514 361 l 382 371 q 229 392 289 378 q 135 434 169 407 q 88 506 101 461 q 75 618 75 550 q 101 777 75 718 q 185 863 126 836 q 339 889 243 889 q 479 883 411 889 q 619 863 547 876 l 601 753 q 481 769 540 764 q 347 774 421 774 q 282 772 307 774 q 226 767 257 771 l 226 506 l 381 496 q 552 463 490 489 q 640 383 614 438 q 665 236 665 329 q 635 84 665 140 q 534 3 604 28 q 344 -21 464 -21 q 203 -13 271 -21 q 64 13 135 -6 l 85 126 z "},"Ś":{"ha":721,"x_min":64,"x_max":665,"o":"m 85 126 q 215 103 140 113 q 357 94 289 94 q 426 96 392 94 q 514 103 460 97 l 514 361 l 382 371 q 229 392 289 378 q 135 434 169 407 q 88 506 101 461 q 75 618 75 550 q 101 777 75 718 q 185 863 126 836 q 339 889 243 889 q 479 883 411 889 q 619 863 547 876 l 601 753 q 481 769 540 764 q 347 774 421 774 q 282 772 307 774 q 226 767 257 771 l 226 506 l 381 496 q 552 463 490 489 q 640 383 614 438 q 665 236 665 329 q 635 84 665 140 q 534 3 604 28 q 344 -21 464 -21 q 203 -13 271 -21 q 64 13 135 -6 l 85 126 m 272 957 l 242 1004 l 453 1157 q 464 1163 460 1163 q 475 1156 469 1163 l 535 1082 q 544 1065 544 1071 q 535 1050 544 1058 l 497 1019 q 485 1011 492 1014 q 467 1006 479 1008 l 272 957 z "},"Š":{"ha":721,"x_min":64,"x_max":665,"o":"m 85 126 q 215 103 140 113 q 357 94 289 94 q 426 96 392 94 q 514 103 460 97 l 514 361 l 382 371 q 229 392 289 378 q 135 434 169 407 q 88 506 101 461 q 75 618 75 550 q 101 777 75 718 q 185 863 126 836 q 339 889 243 889 q 479 883 411 889 q 619 863 547 876 l 601 753 q 481 769 540 764 q 347 774 421 774 q 282 772 307 774 q 226 767 257 771 l 226 506 l 381 496 q 552 463 490 489 q 640 383 614 438 q 665 236 665 329 q 635 84 665 140 q 534 3 604 28 q 344 -21 464 -21 q 203 -13 271 -21 q 64 13 135 -6 l 85 126 m 244 1163 l 360 1074 l 475 1163 l 524 1115 l 386 954 q 372 946 381 946 l 347 946 q 333 954 340 946 l 196 1115 l 244 1163 z "},"Ş":{"ha":721,"x_min":64,"x_max":665,"o":"m 85 126 q 215 103 140 113 q 357 94 289 94 q 426 96 392 94 q 514 103 460 97 l 514 361 l 382 371 q 229 392 289 378 q 135 434 169 407 q 88 506 101 461 q 75 618 75 550 q 101 777 75 718 q 185 863 126 836 q 339 889 243 889 q 479 883 411 889 q 619 863 547 876 l 601 753 q 481 769 540 764 q 347 774 421 774 q 282 772 307 774 q 226 767 257 771 l 226 506 l 381 496 q 552 463 490 489 q 640 383 614 438 q 665 236 665 329 q 635 84 665 140 q 534 3 604 28 q 344 -21 464 -21 q 203 -13 271 -21 q 64 13 135 -6 l 85 126 m 308 -239 q 214 -217 263 -239 l 224 -149 l 272 -149 q 319 -139 306 -149 q 332 -104 332 -129 l 332 29 l 360 29 q 419 -33 396 10 q 442 -126 442 -76 q 406 -208 442 -178 q 308 -239 369 -239 z "},"Ŝ":{"ha":721,"x_min":64,"x_max":665,"o":"m 85 126 q 215 103 140 113 q 357 94 289 94 q 426 96 392 94 q 514 103 460 97 l 514 361 l 382 371 q 229 392 289 378 q 135 434 169 407 q 88 506 101 461 q 75 618 75 550 q 101 777 75 718 q 185 863 126 836 q 339 889 243 889 q 479 883 411 889 q 619 863 547 876 l 601 753 q 481 769 540 764 q 347 774 421 774 q 282 772 307 774 q 226 767 257 771 l 226 506 l 381 496 q 552 463 490 489 q 640 383 614 438 q 665 236 665 329 q 635 84 665 140 q 534 3 604 28 q 344 -21 464 -21 q 203 -13 271 -21 q 64 13 135 -6 l 85 126 m 244 946 l 196 993 l 333 1154 q 347 1163 340 1163 l 372 1163 q 386 1154 381 1163 l 524 993 l 475 946 l 360 1035 l 244 946 z "},"Ș":{"ha":721,"x_min":64,"x_max":665,"o":"m 85 126 q 215 103 140 113 q 357 94 289 94 q 426 96 392 94 q 514 103 460 97 l 514 361 l 382 371 q 229 392 289 378 q 135 434 169 407 q 88 506 101 461 q 75 618 75 550 q 101 777 75 718 q 185 863 126 836 q 339 889 243 889 q 479 883 411 889 q 619 863 547 876 l 601 753 q 481 769 540 764 q 347 774 421 774 q 282 772 307 774 q 226 767 257 771 l 226 506 l 381 496 q 552 463 490 489 q 640 383 614 438 q 665 236 665 329 q 635 84 665 140 q 534 3 604 28 q 344 -21 464 -21 q 203 -13 271 -21 q 64 13 135 -6 l 85 126 m 367 -397 l 307 -379 l 336 -243 q 283 -219 300 -239 q 265 -151 265 -200 q 288 -76 265 -97 q 360 -56 310 -56 q 432 -76 410 -56 q 454 -151 454 -97 q 442 -233 454 -201 q 410 -308 431 -265 l 367 -397 z "},"T":{"ha":639,"x_min":21,"x_max":618,"o":"m 389 753 l 389 0 l 250 0 l 250 753 l 21 753 l 21 868 l 618 868 l 618 753 l 389 753 z "},"Ŧ":{"ha":639,"x_min":21,"x_max":618,"o":"m 389 753 l 389 0 l 250 0 l 250 753 l 21 753 l 21 868 l 618 868 l 618 753 l 389 753 m 136 411 q 147 458 136 447 q 193 469 158 469 l 503 469 l 503 429 q 492 383 503 394 q 446 372 482 372 l 136 372 l 136 411 z "},"Ť":{"ha":639,"x_min":21,"x_max":618,"o":"m 389 753 l 389 0 l 250 0 l 250 753 l 21 753 l 21 868 l 618 868 l 618 753 l 389 753 m 204 1163 l 319 1074 l 435 1163 l 483 1115 l 346 954 q 332 946 340 946 l 307 946 q 293 954 300 946 l 156 1115 l 204 1163 z "},"Ţ":{"ha":639,"x_min":21,"x_max":618,"o":"m 389 753 l 389 0 l 250 0 l 250 753 l 21 753 l 21 868 l 618 868 l 618 753 l 389 753 m 268 -239 q 174 -217 222 -239 l 183 -149 l 232 -149 q 278 -139 265 -149 q 292 -104 292 -129 l 292 29 l 319 29 q 378 -33 356 10 q 401 -126 401 -76 q 365 -208 401 -178 q 268 -239 329 -239 z "},"Ț":{"ha":639,"x_min":21,"x_max":618,"o":"m 389 753 l 389 0 l 250 0 l 250 753 l 21 753 l 21 868 l 618 868 l 618 753 l 389 753 m 326 -397 l 267 -379 l 296 -243 q 242 -219 260 -239 q 225 -151 225 -200 q 247 -76 225 -97 q 319 -56 269 -56 q 392 -76 369 -56 q 414 -151 414 -97 q 402 -233 414 -201 q 369 -308 390 -265 l 326 -397 z "},"U":{"ha":886,"x_min":111,"x_max":775,"o":"m 443 -21 q 277 -8 342 -21 q 176 35 213 4 q 126 121 140 65 q 111 263 111 176 l 111 868 l 250 868 l 250 97 l 450 97 q 566 103 526 97 q 621 126 606 110 q 636 171 636 142 l 636 868 l 775 868 l 775 263 q 760 121 775 176 q 710 35 746 65 q 609 -8 674 4 q 443 -21 544 -21 z "},"Ú":{"ha":886,"x_min":111,"x_max":775,"o":"m 443 -21 q 277 -8 342 -21 q 176 35 213 4 q 126 121 140 65 q 111 263 111 176 l 111 868 l 250 868 l 250 97 l 450 97 q 566 103 526 97 q 621 126 606 110 q 636 171 636 142 l 636 868 l 775 868 l 775 263 q 760 121 775 176 q 710 35 746 65 q 609 -8 674 4 q 443 -21 544 -21 m 357 957 l 326 1004 l 538 1157 q 549 1163 544 1163 q 560 1156 554 1163 l 619 1082 q 629 1065 629 1071 q 619 1050 629 1058 l 582 1019 q 570 1011 576 1014 q 551 1006 564 1008 l 357 957 z "},"Ŭ":{"ha":886,"x_min":111,"x_max":775,"o":"m 443 -21 q 277 -8 342 -21 q 176 35 213 4 q 126 121 140 65 q 111 263 111 176 l 111 868 l 250 868 l 250 97 l 450 97 q 566 103 526 97 q 621 126 606 110 q 636 171 636 142 l 636 868 l 775 868 l 775 263 q 760 121 775 176 q 710 35 746 65 q 609 -8 674 4 q 443 -21 544 -21 m 444 961 q 342 995 386 961 q 281 1111 299 1029 l 371 1126 q 401 1079 379 1096 q 444 1063 422 1063 q 489 1079 468 1063 q 518 1126 510 1096 l 608 1111 q 546 998 590 1035 q 444 961 501 961 z "},"Û":{"ha":886,"x_min":111,"x_max":775,"o":"m 443 -21 q 277 -8 342 -21 q 176 35 213 4 q 126 121 140 65 q 111 263 111 176 l 111 868 l 250 868 l 250 97 l 450 97 q 566 103 526 97 q 621 126 606 110 q 636 171 636 142 l 636 868 l 775 868 l 775 263 q 760 121 775 176 q 710 35 746 65 q 609 -8 674 4 q 443 -21 544 -21 m 329 946 l 281 993 l 418 1154 q 432 1163 425 1163 l 457 1163 q 471 1154 465 1163 l 608 993 l 560 946 l 444 1035 l 329 946 z "},"Ü":{"ha":886,"x_min":111,"x_max":775,"o":"m 443 -21 q 277 -8 342 -21 q 176 35 213 4 q 126 121 140 65 q 111 263 111 176 l 111 868 l 250 868 l 250 97 l 450 97 q 566 103 526 97 q 621 126 606 110 q 636 171 636 142 l 636 868 l 775 868 l 775 263 q 760 121 775 176 q 710 35 746 65 q 609 -8 674 4 q 443 -21 544 -21 m 572 972 q 513 990 526 972 q 500 1051 500 1008 q 513 1114 500 1096 q 572 1132 526 1132 q 630 1114 617 1132 q 643 1051 643 1096 q 630 990 643 1008 q 572 972 617 972 m 318 972 q 259 990 272 972 q 246 1051 246 1008 q 259 1114 246 1096 q 318 1132 272 1132 q 376 1114 363 1132 q 389 1051 389 1096 q 376 990 389 1008 q 318 972 363 972 z "},"Ù":{"ha":886,"x_min":111,"x_max":775,"o":"m 443 -21 q 277 -8 342 -21 q 176 35 213 4 q 126 121 140 65 q 111 263 111 176 l 111 868 l 250 868 l 250 97 l 450 97 q 566 103 526 97 q 621 126 606 110 q 636 171 636 142 l 636 868 l 775 868 l 775 263 q 760 121 775 176 q 710 35 746 65 q 609 -8 674 4 q 443 -21 544 -21 m 565 943 l 371 992 q 340 1006 351 997 l 303 1036 q 293 1051 293 1044 q 303 1068 293 1057 l 363 1142 q 374 1149 368 1149 q 385 1143 378 1149 l 596 990 l 565 943 z "},"Ű":{"ha":886,"x_min":111,"x_max":775,"o":"m 443 -21 q 277 -8 342 -21 q 176 35 213 4 q 126 121 140 65 q 111 263 111 176 l 111 868 l 250 868 l 250 97 l 450 97 q 566 103 526 97 q 621 126 606 110 q 636 171 636 142 l 636 868 l 775 868 l 775 263 q 760 121 775 176 q 710 35 746 65 q 609 -8 674 4 q 443 -21 544 -21 m 518 964 l 488 1011 l 672 1157 q 683 1163 679 1163 q 688 1162 686 1163 q 694 1156 690 1161 l 756 1081 q 761 1073 758 1076 q 764 1065 764 1069 q 763 1061 764 1064 q 758 1054 763 1058 l 717 1019 q 706 1012 711 1015 q 686 1006 700 1008 l 518 964 m 211 964 l 181 1011 l 365 1157 q 376 1163 372 1163 q 381 1162 379 1163 q 388 1156 383 1161 l 449 1081 q 454 1073 451 1076 q 457 1065 457 1069 q 456 1061 457 1064 q 451 1054 456 1058 l 410 1019 q 399 1012 404 1015 q 379 1006 393 1008 l 211 964 z "},"Ū":{"ha":886,"x_min":111,"x_max":775,"o":"m 443 -21 q 277 -8 342 -21 q 176 35 213 4 q 126 121 140 65 q 111 263 111 176 l 111 868 l 250 868 l 250 97 l 450 97 q 566 103 526 97 q 621 126 606 110 q 636 171 636 142 l 636 868 l 775 868 l 775 263 q 760 121 775 176 q 710 35 746 65 q 609 -8 674 4 q 443 -21 544 -21 m 338 988 q 285 1002 294 988 q 275 1051 275 1017 l 275 1100 l 551 1100 q 603 1087 594 1100 q 613 1038 613 1074 l 613 988 l 338 988 z "},"Ų":{"ha":886,"x_min":111,"x_max":775,"o":"m 443 -21 q 277 -8 342 -21 q 176 35 213 4 q 126 121 140 65 q 111 263 111 176 l 111 868 l 250 868 l 250 97 l 450 97 q 566 103 526 97 q 621 126 606 110 q 636 171 636 142 l 636 868 l 775 868 l 775 263 q 760 121 775 176 q 710 35 746 65 q 609 -8 674 4 q 443 -21 544 -21 m 439 -254 q 347 -221 381 -254 q 313 -131 313 -187 q 365 -33 313 -74 q 497 18 417 8 l 511 -15 l 483 -21 q 433 -43 444 -31 q 422 -87 422 -56 l 422 -117 q 433 -151 422 -139 q 463 -164 443 -164 l 533 -164 l 544 -231 q 492 -248 518 -242 q 439 -254 467 -254 z "},"Ů":{"ha":886,"x_min":111,"x_max":775,"o":"m 443 -21 q 277 -8 342 -21 q 176 35 213 4 q 126 121 140 65 q 111 263 111 176 l 111 868 l 250 868 l 250 97 l 450 97 q 566 103 526 97 q 621 126 606 110 q 636 171 636 142 l 636 868 l 775 868 l 775 263 q 760 121 775 176 q 710 35 746 65 q 609 -8 674 4 q 443 -21 544 -21 m 444 922 q 339 957 371 922 q 307 1060 307 992 q 339 1162 307 1128 q 444 1196 371 1196 q 549 1162 518 1196 q 581 1060 581 1128 q 549 957 581 992 q 444 922 518 922 m 385 994 l 443 994 q 485 999 469 994 q 501 1031 501 1004 l 501 1124 l 447 1124 q 402 1119 419 1124 q 385 1089 385 1114 l 385 994 z "},"Ũ":{"ha":886,"x_min":111,"x_max":775,"o":"m 443 -21 q 277 -8 342 -21 q 176 35 213 4 q 126 121 140 65 q 111 263 111 176 l 111 868 l 250 868 l 250 97 l 450 97 q 566 103 526 97 q 621 126 606 110 q 636 171 636 142 l 636 868 l 775 868 l 775 263 q 760 121 775 176 q 710 35 746 65 q 609 -8 674 4 q 443 -21 544 -21 m 474 957 q 449 961 461 957 q 422 978 438 965 q 376 1017 406 992 l 285 971 l 246 1035 q 331 1096 300 1075 q 382 1124 363 1117 q 415 1132 401 1132 q 438 1128 428 1132 q 465 1111 449 1124 q 513 1072 482 1099 l 604 1118 l 643 1054 q 564 997 596 1018 q 511 966 532 975 q 474 957 490 957 z "},"V":{"ha":724,"x_min":14,"x_max":710,"o":"m 14 868 l 153 868 l 356 128 l 368 128 l 571 868 l 710 868 l 467 0 l 257 0 l 14 868 z "},"W":{"ha":1114,"x_min":35,"x_max":1079,"o":"m 35 868 l 174 868 l 293 128 l 306 128 l 483 868 l 599 868 l 397 0 l 181 0 l 35 868 m 1079 868 l 933 0 l 717 0 l 515 868 l 631 868 l 808 128 l 821 128 l 940 868 l 1079 868 z "},"Ẃ":{"ha":1114,"x_min":35,"x_max":1079,"o":"m 35 868 l 174 868 l 293 128 l 306 128 l 483 868 l 599 868 l 397 0 l 181 0 l 35 868 m 1079 868 l 933 0 l 717 0 l 515 868 l 631 868 l 808 128 l 821 128 l 940 868 l 1079 868 m 469 957 l 439 1004 l 650 1157 q 661 1163 657 1163 q 672 1156 667 1163 l 732 1082 q 742 1065 742 1071 q 732 1050 742 1058 l 694 1019 q 683 1011 689 1014 q 664 1006 676 1008 l 469 957 z "},"Ŵ":{"ha":1114,"x_min":35,"x_max":1079,"o":"m 35 868 l 174 868 l 293 128 l 306 128 l 483 868 l 599 868 l 397 0 l 181 0 l 35 868 m 1079 868 l 933 0 l 717 0 l 515 868 l 631 868 l 808 128 l 821 128 l 940 868 l 1079 868 m 442 946 l 393 993 l 531 1154 q 544 1163 538 1163 l 569 1163 q 583 1154 578 1163 l 721 993 l 672 946 l 557 1035 l 442 946 z "},"Ẅ":{"ha":1114,"x_min":35,"x_max":1079,"o":"m 35 868 l 174 868 l 293 128 l 306 128 l 483 868 l 599 868 l 397 0 l 181 0 l 35 868 m 1079 868 l 933 0 l 717 0 l 515 868 l 631 868 l 808 128 l 821 128 l 940 868 l 1079 868 m 685 972 q 626 990 639 972 q 613 1051 613 1008 q 626 1114 613 1096 q 685 1132 639 1132 q 742 1114 729 1132 q 756 1051 756 1096 q 742 990 756 1008 q 685 972 729 972 m 431 972 q 372 990 385 972 q 358 1051 358 1008 q 372 1114 358 1096 q 431 1132 385 1132 q 488 1114 475 1132 q 501 1051 501 1096 q 488 990 501 1008 q 431 972 475 972 z "},"Ẁ":{"ha":1114,"x_min":35,"x_max":1079,"o":"m 35 868 l 174 868 l 293 128 l 306 128 l 483 868 l 599 868 l 397 0 l 181 0 l 35 868 m 1079 868 l 933 0 l 717 0 l 515 868 l 631 868 l 808 128 l 821 128 l 940 868 l 1079 868 m 678 943 l 483 992 q 453 1006 464 997 l 415 1036 q 406 1051 406 1044 q 415 1068 406 1057 l 475 1142 q 486 1149 481 1149 q 497 1143 490 1149 l 708 990 l 678 943 z "},"X":{"ha":736,"x_min":14,"x_max":722,"o":"m 722 0 l 567 0 l 25 868 l 181 868 l 722 0 m 390 379 l 165 0 l 14 0 l 319 507 l 390 379 m 335 489 l 560 868 l 711 868 l 407 361 l 335 489 z "},"Y":{"ha":681,"x_min":14,"x_max":667,"o":"m 315 385 l 522 868 l 667 868 l 410 299 l 410 0 l 271 0 l 271 299 l 14 868 l 158 868 l 365 385 l 315 385 z "},"Ý":{"ha":681,"x_min":14,"x_max":667,"o":"m 315 385 l 522 868 l 667 868 l 410 299 l 410 0 l 271 0 l 271 299 l 14 868 l 158 868 l 365 385 l 315 385 m 253 957 l 222 1004 l 433 1157 q 444 1163 440 1163 q 456 1156 450 1163 l 515 1082 q 525 1065 525 1071 q 515 1050 525 1058 l 478 1019 q 466 1011 472 1014 q 447 1006 460 1008 l 253 957 z "},"Ŷ":{"ha":681,"x_min":14,"x_max":667,"o":"m 315 385 l 522 868 l 667 868 l 410 299 l 410 0 l 271 0 l 271 299 l 14 868 l 158 868 l 365 385 l 315 385 m 225 946 l 176 993 l 314 1154 q 328 1163 321 1163 l 353 1163 q 367 1154 361 1163 l 504 993 l 456 946 l 340 1035 l 225 946 z "},"Ÿ":{"ha":681,"x_min":14,"x_max":667,"o":"m 315 385 l 522 868 l 667 868 l 410 299 l 410 0 l 271 0 l 271 299 l 14 868 l 158 868 l 365 385 l 315 385 m 468 972 q 409 990 422 972 q 396 1051 396 1008 q 409 1114 396 1096 q 468 1132 422 1132 q 526 1114 513 1132 q 539 1051 539 1096 q 526 990 539 1008 q 468 972 513 972 m 214 972 q 155 990 168 972 q 142 1051 142 1008 q 155 1114 142 1096 q 214 1132 168 1132 q 272 1114 258 1132 q 285 1051 285 1096 q 272 990 285 1008 q 214 972 258 972 z "},"Ỳ":{"ha":681,"x_min":14,"x_max":667,"o":"m 315 385 l 522 868 l 667 868 l 410 299 l 410 0 l 271 0 l 271 299 l 14 868 l 158 868 l 365 385 l 315 385 m 461 943 l 267 992 q 236 1006 247 997 l 199 1036 q 189 1051 189 1044 q 199 1068 189 1057 l 258 1142 q 269 1149 264 1149 q 281 1143 274 1149 l 492 990 l 461 943 z "},"Z":{"ha":757,"x_min":49,"x_max":708,"o":"m 49 0 l 49 93 l 524 744 l 519 753 l 118 753 l 101 868 l 708 868 l 708 775 l 233 124 l 238 115 l 686 115 l 686 0 l 49 0 z "},"Ź":{"ha":757,"x_min":49,"x_max":708,"o":"m 49 0 l 49 93 l 524 744 l 519 753 l 118 753 l 101 868 l 708 868 l 708 775 l 233 124 l 238 115 l 686 115 l 686 0 l 49 0 m 339 957 l 308 1004 l 519 1157 q 531 1163 526 1163 q 542 1156 536 1163 l 601 1082 q 611 1065 611 1071 q 601 1050 611 1058 l 564 1019 q 552 1011 558 1014 q 533 1006 546 1008 l 339 957 z "},"Ž":{"ha":757,"x_min":49,"x_max":708,"o":"m 49 0 l 49 93 l 524 744 l 519 753 l 118 753 l 101 868 l 708 868 l 708 775 l 233 124 l 238 115 l 686 115 l 686 0 l 49 0 m 311 1163 l 426 1074 l 542 1163 l 590 1115 l 453 954 q 439 946 447 946 l 414 946 q 400 954 407 946 l 263 1115 l 311 1163 z "},"Ż":{"ha":757,"x_min":49,"x_max":708,"o":"m 49 0 l 49 93 l 524 744 l 519 753 l 118 753 l 101 868 l 708 868 l 708 775 l 233 124 l 238 115 l 686 115 l 686 0 l 49 0 m 428 989 q 359 1006 376 989 q 342 1072 342 1024 q 360 1140 342 1122 q 428 1158 378 1158 q 494 1140 476 1158 q 511 1072 511 1122 q 494 1006 511 1024 q 428 989 478 989 z "},"a":{"ha":757,"x_min":76,"x_max":639,"o":"m 289 -14 q 126 34 175 -14 q 76 194 76 82 q 90 310 76 267 q 145 377 104 354 q 267 408 186 400 q 479 415 347 415 l 542 415 l 542 325 l 315 325 q 226 308 250 325 q 203 244 203 292 l 203 93 l 389 93 q 477 110 454 93 q 500 174 500 126 l 500 583 q 360 599 449 599 q 246 590 306 599 q 125 565 186 582 l 107 667 q 188 689 142 679 q 285 703 233 699 q 383 708 336 708 q 534 690 478 708 q 615 628 590 671 q 639 514 639 586 l 639 0 l 575 0 l 538 69 q 427 6 488 26 q 289 -14 367 -14 z "},"á":{"ha":757,"x_min":76,"x_max":639,"o":"m 289 -14 q 126 34 175 -14 q 76 194 76 82 q 90 310 76 267 q 145 377 104 354 q 267 408 186 400 q 479 415 347 415 l 542 415 l 542 325 l 315 325 q 226 308 250 325 q 203 244 203 292 l 203 93 l 389 93 q 477 110 454 93 q 500 174 500 126 l 500 583 q 360 599 449 599 q 246 590 306 599 q 125 565 186 582 l 107 667 q 188 689 142 679 q 285 703 233 699 q 383 708 336 708 q 534 690 478 708 q 615 628 590 671 q 639 514 639 586 l 639 0 l 575 0 l 538 69 q 427 6 488 26 q 289 -14 367 -14 m 296 783 l 265 831 l 476 983 q 488 989 483 989 q 499 982 493 989 l 558 908 q 568 892 568 897 q 558 876 568 885 l 521 846 q 509 838 515 840 q 490 832 503 835 l 296 783 z "},"ă":{"ha":757,"x_min":76,"x_max":639,"o":"m 289 -14 q 126 34 175 -14 q 76 194 76 82 q 90 310 76 267 q 145 377 104 354 q 267 408 186 400 q 479 415 347 415 l 542 415 l 542 325 l 315 325 q 226 308 250 325 q 203 244 203 292 l 203 93 l 389 93 q 477 110 454 93 q 500 174 500 126 l 500 583 q 360 599 449 599 q 246 590 306 599 q 125 565 186 582 l 107 667 q 188 689 142 679 q 285 703 233 699 q 383 708 336 708 q 534 690 478 708 q 615 628 590 671 q 639 514 639 586 l 639 0 l 575 0 l 538 69 q 427 6 488 26 q 289 -14 367 -14 m 383 788 q 281 822 325 788 q 219 938 238 856 l 310 953 q 340 906 318 922 q 383 889 361 889 q 428 906 407 889 q 457 953 449 922 l 547 938 q 485 824 529 861 q 383 788 440 788 z "},"â":{"ha":757,"x_min":76,"x_max":639,"o":"m 289 -14 q 126 34 175 -14 q 76 194 76 82 q 90 310 76 267 q 145 377 104 354 q 267 408 186 400 q 479 415 347 415 l 542 415 l 542 325 l 315 325 q 226 308 250 325 q 203 244 203 292 l 203 93 l 389 93 q 477 110 454 93 q 500 174 500 126 l 500 583 q 360 599 449 599 q 246 590 306 599 q 125 565 186 582 l 107 667 q 188 689 142 679 q 285 703 233 699 q 383 708 336 708 q 534 690 478 708 q 615 628 590 671 q 639 514 639 586 l 639 0 l 575 0 l 538 69 q 427 6 488 26 q 289 -14 367 -14 m 268 772 l 219 819 l 357 981 q 371 989 364 989 l 396 989 q 410 981 404 989 l 547 819 l 499 772 l 383 861 l 268 772 z "},"ä":{"ha":757,"x_min":76,"x_max":639,"o":"m 289 -14 q 126 34 175 -14 q 76 194 76 82 q 90 310 76 267 q 145 377 104 354 q 267 408 186 400 q 479 415 347 415 l 542 415 l 542 325 l 315 325 q 226 308 250 325 q 203 244 203 292 l 203 93 l 389 93 q 477 110 454 93 q 500 174 500 126 l 500 583 q 360 599 449 599 q 246 590 306 599 q 125 565 186 582 l 107 667 q 188 689 142 679 q 285 703 233 699 q 383 708 336 708 q 534 690 478 708 q 615 628 590 671 q 639 514 639 586 l 639 0 l 575 0 l 538 69 q 427 6 488 26 q 289 -14 367 -14 m 511 799 q 452 817 465 799 q 439 878 439 835 q 452 940 439 922 q 511 958 465 958 q 569 940 556 958 q 582 878 582 922 q 569 817 582 835 q 511 799 556 799 m 257 799 q 198 817 211 799 q 185 878 185 835 q 198 940 185 922 q 257 958 211 958 q 315 940 301 958 q 328 878 328 922 q 315 817 328 835 q 257 799 301 799 z "},"à":{"ha":757,"x_min":76,"x_max":639,"o":"m 289 -14 q 126 34 175 -14 q 76 194 76 82 q 90 310 76 267 q 145 377 104 354 q 267 408 186 400 q 479 415 347 415 l 542 415 l 542 325 l 315 325 q 226 308 250 325 q 203 244 203 292 l 203 93 l 389 93 q 477 110 454 93 q 500 174 500 126 l 500 583 q 360 599 449 599 q 246 590 306 599 q 125 565 186 582 l 107 667 q 188 689 142 679 q 285 703 233 699 q 383 708 336 708 q 534 690 478 708 q 615 628 590 671 q 639 514 639 586 l 639 0 l 575 0 l 538 69 q 427 6 488 26 q 289 -14 367 -14 m 504 769 l 310 818 q 279 832 290 824 l 242 863 q 232 878 232 871 q 242 894 232 883 l 301 968 q 313 975 307 975 q 324 969 317 975 l 535 817 l 504 769 z "},"ā":{"ha":757,"x_min":76,"x_max":639,"o":"m 289 -14 q 126 34 175 -14 q 76 194 76 82 q 90 310 76 267 q 145 377 104 354 q 267 408 186 400 q 479 415 347 415 l 542 415 l 542 325 l 315 325 q 226 308 250 325 q 203 244 203 292 l 203 93 l 389 93 q 477 110 454 93 q 500 174 500 126 l 500 583 q 360 599 449 599 q 246 590 306 599 q 125 565 186 582 l 107 667 q 188 689 142 679 q 285 703 233 699 q 383 708 336 708 q 534 690 478 708 q 615 628 590 671 q 639 514 639 586 l 639 0 l 575 0 l 538 69 q 427 6 488 26 q 289 -14 367 -14 m 276 814 q 224 828 233 814 q 214 878 214 843 l 214 926 l 490 926 q 542 913 533 926 q 551 864 551 900 l 551 814 l 276 814 z "},"ą":{"ha":757,"x_min":76,"x_max":672,"o":"m 289 -14 q 126 34 175 -14 q 76 194 76 82 q 90 310 76 267 q 145 377 104 354 q 267 408 186 400 q 479 415 347 415 l 542 415 l 542 325 l 315 325 q 226 308 250 325 q 203 244 203 292 l 203 93 l 389 93 q 477 110 454 93 q 500 174 500 126 l 500 583 q 360 599 449 599 q 246 590 306 599 q 125 565 186 582 l 107 667 q 188 689 142 679 q 285 703 233 699 q 383 708 336 708 q 534 690 478 708 q 615 628 590 671 q 639 514 639 586 l 639 0 l 575 0 l 538 69 q 427 6 488 26 q 289 -14 367 -14 m 567 -239 q 474 -206 508 -239 q 440 -115 440 -172 q 492 -17 440 -58 q 625 33 544 24 l 639 0 l 611 -6 q 561 -28 572 -15 q 550 -72 550 -40 l 550 -101 q 560 -136 550 -124 q 590 -149 571 -149 l 661 -149 l 672 -215 q 620 -233 646 -226 q 567 -239 594 -239 z "},"å":{"ha":757,"x_min":76,"x_max":639,"o":"m 289 -14 q 126 34 175 -14 q 76 194 76 82 q 90 310 76 267 q 145 377 104 354 q 267 408 186 400 q 479 415 347 415 l 542 415 l 542 325 l 315 325 q 226 308 250 325 q 203 244 203 292 l 203 93 l 389 93 q 477 110 454 93 q 500 174 500 126 l 500 583 q 360 599 449 599 q 246 590 306 599 q 125 565 186 582 l 107 667 q 188 689 142 679 q 285 703 233 699 q 383 708 336 708 q 534 690 478 708 q 615 628 590 671 q 639 514 639 586 l 639 0 l 575 0 l 538 69 q 427 6 488 26 q 289 -14 367 -14 m 383 749 q 278 783 310 749 q 246 886 246 818 q 278 988 246 954 q 383 1022 310 1022 q 488 988 457 1022 q 519 886 519 954 q 488 783 519 818 q 383 749 457 749 m 324 821 l 382 821 q 424 826 408 821 q 440 857 440 831 l 440 950 l 386 950 q 341 945 358 950 q 324 915 324 940 l 324 821 z "},"ǻ":{"ha":757,"x_min":76,"x_max":639,"o":"m 289 -14 q 126 34 175 -14 q 76 194 76 82 q 90 310 76 267 q 145 377 104 354 q 267 408 186 400 q 479 415 347 415 l 542 415 l 542 325 l 315 325 q 226 308 250 325 q 203 244 203 292 l 203 93 l 389 93 q 477 110 454 93 q 500 174 500 126 l 500 583 q 360 599 449 599 q 246 590 306 599 q 125 565 186 582 l 107 667 q 188 689 142 679 q 285 703 233 699 q 383 708 336 708 q 534 690 478 708 q 615 628 590 671 q 639 514 639 586 l 639 0 l 575 0 l 538 69 q 427 6 488 26 q 289 -14 367 -14 m 383 749 q 278 783 310 749 q 246 886 246 818 q 278 988 246 954 q 383 1022 310 1022 q 488 988 457 1022 q 519 886 519 954 q 488 783 519 818 q 383 749 457 749 m 324 821 l 382 821 q 424 826 408 821 q 440 857 440 831 l 440 950 l 386 950 q 341 945 358 950 q 324 915 324 940 l 324 821 m 296 1083 l 265 1131 l 476 1283 q 488 1289 483 1289 q 499 1282 493 1289 l 558 1208 q 568 1192 568 1197 q 558 1176 568 1185 l 521 1146 q 509 1138 515 1140 q 490 1132 503 1135 l 296 1083 z "},"ã":{"ha":757,"x_min":76,"x_max":639,"o":"m 289 -14 q 126 34 175 -14 q 76 194 76 82 q 90 310 76 267 q 145 377 104 354 q 267 408 186 400 q 479 415 347 415 l 542 415 l 542 325 l 315 325 q 226 308 250 325 q 203 244 203 292 l 203 93 l 389 93 q 477 110 454 93 q 500 174 500 126 l 500 583 q 360 599 449 599 q 246 590 306 599 q 125 565 186 582 l 107 667 q 188 689 142 679 q 285 703 233 699 q 383 708 336 708 q 534 690 478 708 q 615 628 590 671 q 639 514 639 586 l 639 0 l 575 0 l 538 69 q 427 6 488 26 q 289 -14 367 -14 m 413 783 q 388 788 400 783 q 360 805 376 792 q 315 843 344 818 l 224 797 l 185 861 q 270 922 239 901 q 321 951 301 943 q 354 958 340 958 q 377 954 367 958 q 404 938 388 950 q 451 899 421 925 l 543 944 l 582 881 q 503 823 535 844 q 450 792 471 801 q 413 783 429 783 z "},"æ":{"ha":1163,"x_min":76,"x_max":1065,"o":"m 289 -14 q 126 34 175 -14 q 76 194 76 82 q 90 310 76 267 q 145 377 104 354 q 267 408 186 400 q 479 415 347 415 l 542 415 l 542 325 l 315 325 q 226 308 250 325 q 203 244 203 292 l 203 93 l 389 93 q 477 110 454 93 q 500 174 500 126 l 500 583 q 360 599 449 599 q 246 590 306 599 q 125 565 186 582 l 107 667 q 188 689 142 679 q 285 703 233 699 q 383 708 336 708 q 534 690 478 708 q 615 628 590 671 q 640 514 640 586 l 640 69 l 549 79 q 434 9 497 32 q 289 -14 371 -14 m 764 -14 q 604 14 658 -14 q 524 107 550 42 l 551 624 q 639 688 583 668 q 788 708 694 708 q 958 690 897 708 q 1042 627 1018 672 q 1065 500 1065 582 q 1051 384 1065 428 q 992 317 1036 340 q 865 287 949 294 q 640 279 781 279 l 599 279 l 599 369 l 824 369 q 916 386 892 369 q 940 450 940 403 l 940 594 l 756 594 q 665 578 689 594 q 640 514 640 561 l 640 111 q 707 99 672 103 q 789 96 742 96 q 899 103 844 96 q 1029 129 953 111 l 1047 28 q 917 -3 993 8 q 764 -14 842 -14 z "},"ǽ":{"ha":1163,"x_min":76,"x_max":1065,"o":"m 289 -14 q 126 34 175 -14 q 76 194 76 82 q 90 310 76 267 q 145 377 104 354 q 267 408 186 400 q 479 415 347 415 l 542 415 l 542 325 l 315 325 q 226 308 250 325 q 203 244 203 292 l 203 93 l 389 93 q 477 110 454 93 q 500 174 500 126 l 500 583 q 360 599 449 599 q 246 590 306 599 q 125 565 186 582 l 107 667 q 188 689 142 679 q 285 703 233 699 q 383 708 336 708 q 534 690 478 708 q 615 628 590 671 q 640 514 640 586 l 640 69 l 549 79 q 434 9 497 32 q 289 -14 371 -14 m 764 -14 q 604 14 658 -14 q 524 107 550 42 l 551 624 q 639 688 583 668 q 788 708 694 708 q 958 690 897 708 q 1042 627 1018 672 q 1065 500 1065 582 q 1051 384 1065 428 q 992 317 1036 340 q 865 287 949 294 q 640 279 781 279 l 599 279 l 599 369 l 824 369 q 916 386 892 369 q 940 450 940 403 l 940 594 l 756 594 q 665 578 689 594 q 640 514 640 561 l 640 111 q 707 99 672 103 q 789 96 742 96 q 899 103 844 96 q 1029 129 953 111 l 1047 28 q 917 -3 993 8 q 764 -14 842 -14 m 494 783 l 464 831 l 675 983 q 686 989 682 989 q 697 982 692 989 l 757 908 q 767 892 767 897 q 757 876 767 885 l 719 846 q 708 838 714 840 q 689 832 701 835 l 494 783 z "},"b":{"ha":790,"x_min":125,"x_max":707,"o":"m 457 715 q 581 699 532 715 q 657 642 629 683 q 696 530 685 601 q 707 347 707 458 q 695 167 707 238 q 653 58 683 97 q 568 2 622 18 q 429 -14 514 -14 q 298 0 349 -14 q 220 52 247 14 q 183 162 193 90 q 174 347 174 233 q 185 536 174 464 q 226 647 196 608 q 312 701 256 686 q 457 715 368 715 m 561 601 l 328 601 q 277 594 290 601 q 264 567 264 588 l 264 100 l 497 100 q 547 106 533 100 q 561 128 561 113 l 561 601 m 125 924 l 264 940 l 264 139 l 264 72 l 429 -14 q 275 -3 344 -14 q 125 29 206 7 l 125 924 z "},"c":{"ha":629,"x_min":83,"x_max":574,"o":"m 333 -14 q 210 2 258 -14 q 133 58 161 18 q 94 169 106 99 q 83 347 83 239 q 94 526 83 456 q 133 637 106 597 q 210 692 161 676 q 333 708 258 708 q 412 706 371 708 q 491 697 453 703 q 558 683 529 692 l 542 578 q 444 594 492 589 q 349 599 397 599 q 254 573 281 599 q 228 482 228 547 l 228 111 q 369 96 278 96 q 456 103 414 96 q 558 129 499 111 l 574 28 q 463 -3 526 8 q 333 -14 400 -14 z "},"ć":{"ha":629,"x_min":83,"x_max":574,"o":"m 333 -14 q 210 2 258 -14 q 133 58 161 18 q 94 169 106 99 q 83 347 83 239 q 94 526 83 456 q 133 637 106 597 q 210 692 161 676 q 333 708 258 708 q 412 706 371 708 q 491 697 453 703 q 558 683 529 692 l 542 578 q 444 594 492 589 q 349 599 397 599 q 254 573 281 599 q 228 482 228 547 l 228 111 q 369 96 278 96 q 456 103 414 96 q 558 129 499 111 l 574 28 q 463 -3 526 8 q 333 -14 400 -14 m 256 783 l 225 831 l 436 983 q 447 989 443 989 q 458 982 453 989 l 518 908 q 528 892 528 897 q 518 876 528 885 l 481 846 q 469 838 475 840 q 450 832 463 835 l 256 783 z "},"č":{"ha":629,"x_min":83,"x_max":574,"o":"m 333 -14 q 210 2 258 -14 q 133 58 161 18 q 94 169 106 99 q 83 347 83 239 q 94 526 83 456 q 133 637 106 597 q 210 692 161 676 q 333 708 258 708 q 412 706 371 708 q 491 697 453 703 q 558 683 529 692 l 542 578 q 444 594 492 589 q 349 599 397 599 q 254 573 281 599 q 228 482 228 547 l 228 111 q 369 96 278 96 q 456 103 414 96 q 558 129 499 111 l 574 28 q 463 -3 526 8 q 333 -14 400 -14 m 228 989 l 343 900 l 458 989 l 507 942 l 369 781 q 356 772 364 772 l 331 772 q 317 781 324 772 l 179 942 l 228 989 z "},"ç":{"ha":629,"x_min":83,"x_max":574,"o":"m 333 -14 q 210 2 258 -14 q 133 58 161 18 q 94 169 106 99 q 83 347 83 239 q 94 526 83 456 q 133 637 106 597 q 210 692 161 676 q 333 708 258 708 q 412 706 371 708 q 491 697 453 703 q 558 683 529 692 l 542 578 q 444 594 492 589 q 349 599 397 599 q 254 573 281 599 q 228 482 228 547 l 228 111 q 369 96 278 96 q 456 103 414 96 q 558 129 499 111 l 574 28 q 463 -3 526 8 q 333 -14 400 -14 m 278 -239 q 183 -217 232 -239 l 193 -149 l 242 -149 q 288 -139 275 -149 q 301 -104 301 -129 l 301 29 l 329 29 q 388 -33 365 10 q 411 -126 411 -76 q 375 -208 411 -178 q 278 -239 339 -239 z "},"ĉ":{"ha":629,"x_min":83,"x_max":574,"o":"m 333 -14 q 210 2 258 -14 q 133 58 161 18 q 94 169 106 99 q 83 347 83 239 q 94 526 83 456 q 133 637 106 597 q 210 692 161 676 q 333 708 258 708 q 412 706 371 708 q 491 697 453 703 q 558 683 529 692 l 542 578 q 444 594 492 589 q 349 599 397 599 q 254 573 281 599 q 228 482 228 547 l 228 111 q 369 96 278 96 q 456 103 414 96 q 558 129 499 111 l 574 28 q 463 -3 526 8 q 333 -14 400 -14 m 228 772 l 179 819 l 317 981 q 331 989 324 989 l 356 989 q 369 981 364 989 l 507 819 l 458 772 l 343 861 l 228 772 z "},"ċ":{"ha":629,"x_min":83,"x_max":574,"o":"m 333 -14 q 210 2 258 -14 q 133 58 161 18 q 94 169 106 99 q 83 347 83 239 q 94 526 83 456 q 133 637 106 597 q 210 692 161 676 q 333 708 258 708 q 412 706 371 708 q 491 697 453 703 q 558 683 529 692 l 542 578 q 444 594 492 589 q 349 599 397 599 q 254 573 281 599 q 228 482 228 547 l 228 111 q 369 96 278 96 q 456 103 414 96 q 558 129 499 111 l 574 28 q 463 -3 526 8 q 333 -14 400 -14 m 344 815 q 276 833 293 815 q 258 899 258 850 q 276 967 258 949 q 344 985 294 985 q 410 967 393 985 q 428 899 428 949 q 411 833 428 850 q 344 815 394 815 z "},"d":{"ha":790,"x_min":83,"x_max":665,"o":"m 333 708 q 479 694 424 708 q 565 641 535 679 q 606 532 594 603 q 617 347 617 461 q 606 158 617 231 q 565 46 594 85 q 479 -7 535 7 q 333 -21 424 -21 q 208 -4 257 -21 q 133 53 160 13 q 94 165 106 93 q 83 347 83 236 q 94 526 83 456 q 133 637 106 597 q 210 692 161 676 q 333 708 258 708 m 526 594 l 293 594 q 242 588 256 594 q 229 560 229 581 l 229 93 l 463 93 q 513 100 500 93 q 526 128 526 107 l 526 594 m 665 940 l 665 0 l 601 0 l 526 139 l 526 924 l 665 940 z "},"ð":{"ha":774,"x_min":90,"x_max":713,"o":"m 385 -14 q 239 0 296 -14 q 149 49 182 14 q 103 144 117 83 q 90 299 90 206 q 103 453 90 393 q 149 549 117 514 q 239 597 182 583 q 385 611 296 611 l 581 611 l 679 497 l 679 299 q 666 144 679 206 q 620 49 653 83 q 531 0 588 14 q 385 -14 474 -14 m 236 100 l 469 100 q 520 107 507 100 q 533 135 533 114 l 533 497 l 300 497 q 249 490 263 497 q 236 463 236 483 l 236 100 m 547 497 q 508 698 547 593 q 396 907 469 803 l 515 940 q 602 796 565 874 q 659 641 639 718 q 679 497 679 564 l 547 497 m 383 688 l 371 725 q 363 765 363 750 q 386 794 363 786 l 692 896 l 704 858 q 713 818 713 833 q 689 789 713 797 l 383 688 z "},"ď":{"ha":910,"x_min":83,"x_max":910,"o":"m 333 708 q 479 694 424 708 q 565 641 535 679 q 606 532 594 603 q 617 347 617 461 q 606 158 617 231 q 565 46 594 85 q 479 -7 535 7 q 333 -21 424 -21 q 208 -4 257 -21 q 133 53 160 13 q 94 165 106 93 q 83 347 83 236 q 94 526 83 456 q 133 637 106 597 q 210 692 161 676 q 333 708 258 708 m 526 594 l 293 594 q 242 588 256 594 q 229 560 229 581 l 229 93 l 463 93 q 513 100 500 93 q 526 128 526 107 l 526 594 m 665 940 l 665 0 l 601 0 l 526 139 l 526 924 l 665 940 m 822 631 l 763 649 l 792 785 q 738 808 756 789 q 721 876 721 828 q 743 951 721 931 q 815 972 765 972 q 888 951 865 972 q 910 876 910 931 q 898 794 910 826 q 865 719 886 763 l 822 631 z "},"đ":{"ha":790,"x_min":83,"x_max":761,"o":"m 431 813 q 441 838 431 832 q 482 844 451 844 l 761 844 l 761 822 q 751 797 761 803 q 710 792 742 792 l 431 792 l 431 813 m 333 708 q 479 694 424 708 q 565 641 535 679 q 606 532 594 603 q 617 347 617 461 q 606 158 617 231 q 565 46 594 85 q 479 -7 535 7 q 333 -21 424 -21 q 208 -4 257 -21 q 133 53 160 13 q 94 165 106 93 q 83 347 83 236 q 94 526 83 456 q 133 637 106 597 q 210 692 161 676 q 333 708 258 708 m 526 594 l 293 594 q 242 588 256 594 q 229 560 229 581 l 229 93 l 463 93 q 513 100 500 93 q 526 128 526 107 l 526 594 m 665 940 l 665 0 l 601 0 l 526 139 l 526 924 l 665 940 z "},"e":{"ha":751,"x_min":83,"x_max":654,"o":"m 353 -14 q 221 3 274 -14 q 138 60 168 19 q 96 170 108 100 q 83 347 83 240 q 110 564 83 485 q 201 676 136 643 q 376 708 265 708 q 547 690 486 708 q 631 627 607 672 q 654 500 654 582 q 640 384 654 428 q 581 317 625 340 q 453 287 538 294 q 229 279 369 279 l 188 279 l 188 369 l 413 369 q 505 386 481 369 q 529 450 529 403 l 529 594 l 344 594 q 253 578 278 594 q 229 514 229 561 l 229 111 q 294 99 260 103 q 378 96 329 96 q 488 103 433 96 q 618 129 542 111 l 636 28 q 509 -3 585 8 q 353 -14 433 -14 z "},"é":{"ha":751,"x_min":83,"x_max":654,"o":"m 353 -14 q 221 3 274 -14 q 138 60 168 19 q 96 170 108 100 q 83 347 83 240 q 110 564 83 485 q 201 676 136 643 q 376 708 265 708 q 547 690 486 708 q 631 627 607 672 q 654 500 654 582 q 640 384 654 428 q 581 317 625 340 q 453 287 538 294 q 229 279 369 279 l 188 279 l 188 369 l 413 369 q 505 386 481 369 q 529 450 529 403 l 529 594 l 344 594 q 253 578 278 594 q 229 514 229 561 l 229 111 q 294 99 260 103 q 378 96 329 96 q 488 103 433 96 q 618 129 542 111 l 636 28 q 509 -3 585 8 q 353 -14 433 -14 m 289 783 l 258 831 l 469 983 q 481 989 476 989 q 492 982 486 989 l 551 908 q 561 892 561 897 q 551 876 561 885 l 514 846 q 502 838 508 840 q 483 832 496 835 l 289 783 z "},"ĕ":{"ha":751,"x_min":83,"x_max":654,"o":"m 353 -14 q 221 3 274 -14 q 138 60 168 19 q 96 170 108 100 q 83 347 83 240 q 110 564 83 485 q 201 676 136 643 q 376 708 265 708 q 547 690 486 708 q 631 627 607 672 q 654 500 654 582 q 640 384 654 428 q 581 317 625 340 q 453 287 538 294 q 229 279 369 279 l 188 279 l 188 369 l 413 369 q 505 386 481 369 q 529 450 529 403 l 529 594 l 344 594 q 253 578 278 594 q 229 514 229 561 l 229 111 q 294 99 260 103 q 378 96 329 96 q 488 103 433 96 q 618 129 542 111 l 636 28 q 509 -3 585 8 q 353 -14 433 -14 m 376 788 q 274 822 318 788 q 213 938 231 856 l 303 953 q 333 906 311 922 q 376 889 354 889 q 421 906 400 889 q 450 953 442 922 l 540 938 q 478 824 522 861 q 376 788 433 788 z "},"ě":{"ha":751,"x_min":83,"x_max":654,"o":"m 353 -14 q 221 3 274 -14 q 138 60 168 19 q 96 170 108 100 q 83 347 83 240 q 110 564 83 485 q 201 676 136 643 q 376 708 265 708 q 547 690 486 708 q 631 627 607 672 q 654 500 654 582 q 640 384 654 428 q 581 317 625 340 q 453 287 538 294 q 229 279 369 279 l 188 279 l 188 369 l 413 369 q 505 386 481 369 q 529 450 529 403 l 529 594 l 344 594 q 253 578 278 594 q 229 514 229 561 l 229 111 q 294 99 260 103 q 378 96 329 96 q 488 103 433 96 q 618 129 542 111 l 636 28 q 509 -3 585 8 q 353 -14 433 -14 m 261 989 l 376 900 l 492 989 l 540 942 l 403 781 q 389 772 397 772 l 364 772 q 350 781 357 772 l 213 942 l 261 989 z "},"ê":{"ha":751,"x_min":83,"x_max":654,"o":"m 353 -14 q 221 3 274 -14 q 138 60 168 19 q 96 170 108 100 q 83 347 83 240 q 110 564 83 485 q 201 676 136 643 q 376 708 265 708 q 547 690 486 708 q 631 627 607 672 q 654 500 654 582 q 640 384 654 428 q 581 317 625 340 q 453 287 538 294 q 229 279 369 279 l 188 279 l 188 369 l 413 369 q 505 386 481 369 q 529 450 529 403 l 529 594 l 344 594 q 253 578 278 594 q 229 514 229 561 l 229 111 q 294 99 260 103 q 378 96 329 96 q 488 103 433 96 q 618 129 542 111 l 636 28 q 509 -3 585 8 q 353 -14 433 -14 m 261 772 l 213 819 l 350 981 q 364 989 357 989 l 389 989 q 403 981 397 989 l 540 819 l 492 772 l 376 861 l 261 772 z "},"ë":{"ha":751,"x_min":83,"x_max":654,"o":"m 353 -14 q 221 3 274 -14 q 138 60 168 19 q 96 170 108 100 q 83 347 83 240 q 110 564 83 485 q 201 676 136 643 q 376 708 265 708 q 547 690 486 708 q 631 627 607 672 q 654 500 654 582 q 640 384 654 428 q 581 317 625 340 q 453 287 538 294 q 229 279 369 279 l 188 279 l 188 369 l 413 369 q 505 386 481 369 q 529 450 529 403 l 529 594 l 344 594 q 253 578 278 594 q 229 514 229 561 l 229 111 q 294 99 260 103 q 378 96 329 96 q 488 103 433 96 q 618 129 542 111 l 636 28 q 509 -3 585 8 q 353 -14 433 -14 m 504 799 q 445 817 458 799 q 432 878 432 835 q 445 940 432 922 q 504 958 458 958 q 562 940 549 958 q 575 878 575 922 q 562 817 575 835 q 504 799 549 799 m 250 799 q 191 817 204 799 q 178 878 178 835 q 191 940 178 922 q 250 958 204 958 q 308 940 294 958 q 321 878 321 922 q 308 817 321 835 q 250 799 294 799 z "},"ė":{"ha":751,"x_min":83,"x_max":654,"o":"m 353 -14 q 221 3 274 -14 q 138 60 168 19 q 96 170 108 100 q 83 347 83 240 q 110 564 83 485 q 201 676 136 643 q 376 708 265 708 q 547 690 486 708 q 631 627 607 672 q 654 500 654 582 q 640 384 654 428 q 581 317 625 340 q 453 287 538 294 q 229 279 369 279 l 188 279 l 188 369 l 413 369 q 505 386 481 369 q 529 450 529 403 l 529 594 l 344 594 q 253 578 278 594 q 229 514 229 561 l 229 111 q 294 99 260 103 q 378 96 329 96 q 488 103 433 96 q 618 129 542 111 l 636 28 q 509 -3 585 8 q 353 -14 433 -14 m 378 815 q 309 833 326 815 q 292 899 292 850 q 310 967 292 949 q 378 985 328 985 q 444 967 426 985 q 461 899 461 949 q 444 833 461 850 q 378 815 428 815 z "},"è":{"ha":751,"x_min":83,"x_max":654,"o":"m 353 -14 q 221 3 274 -14 q 138 60 168 19 q 96 170 108 100 q 83 347 83 240 q 110 564 83 485 q 201 676 136 643 q 376 708 265 708 q 547 690 486 708 q 631 627 607 672 q 654 500 654 582 q 640 384 654 428 q 581 317 625 340 q 453 287 538 294 q 229 279 369 279 l 188 279 l 188 369 l 413 369 q 505 386 481 369 q 529 450 529 403 l 529 594 l 344 594 q 253 578 278 594 q 229 514 229 561 l 229 111 q 294 99 260 103 q 378 96 329 96 q 488 103 433 96 q 618 129 542 111 l 636 28 q 509 -3 585 8 q 353 -14 433 -14 m 497 769 l 303 818 q 272 832 283 824 l 235 863 q 225 878 225 871 q 235 894 225 883 l 294 968 q 306 975 300 975 q 317 969 310 975 l 528 817 l 497 769 z "},"ē":{"ha":751,"x_min":83,"x_max":654,"o":"m 353 -14 q 221 3 274 -14 q 138 60 168 19 q 96 170 108 100 q 83 347 83 240 q 110 564 83 485 q 201 676 136 643 q 376 708 265 708 q 547 690 486 708 q 631 627 607 672 q 654 500 654 582 q 640 384 654 428 q 581 317 625 340 q 453 287 538 294 q 229 279 369 279 l 188 279 l 188 369 l 413 369 q 505 386 481 369 q 529 450 529 403 l 529 594 l 344 594 q 253 578 278 594 q 229 514 229 561 l 229 111 q 294 99 260 103 q 378 96 329 96 q 488 103 433 96 q 618 129 542 111 l 636 28 q 509 -3 585 8 q 353 -14 433 -14 m 269 814 q 217 828 226 814 q 207 878 207 843 l 207 926 l 483 926 q 535 913 526 926 q 544 864 544 900 l 544 814 l 269 814 z "},"ę":{"ha":751,"x_min":83,"x_max":669,"o":"m 353 -14 q 221 3 274 -14 q 138 60 168 19 q 96 170 108 100 q 83 347 83 240 q 110 564 83 485 q 201 676 136 643 q 376 708 265 708 q 547 690 486 708 q 631 627 607 672 q 654 500 654 582 q 640 384 654 428 q 581 317 625 340 q 453 287 538 294 q 229 279 369 279 l 188 279 l 188 369 l 413 369 q 505 386 481 369 q 529 450 529 403 l 529 594 l 344 594 q 253 578 278 594 q 229 514 229 561 l 229 111 q 294 99 260 103 q 378 96 329 96 q 488 103 433 96 q 618 129 542 111 l 636 28 q 509 -3 585 8 q 353 -14 433 -14 m 564 -211 q 472 -178 506 -211 q 438 -87 438 -144 q 490 10 438 -31 q 622 61 542 51 l 636 28 l 608 22 q 558 0 569 13 q 547 -44 547 -12 l 547 -74 q 558 -108 547 -96 q 588 -121 568 -121 l 658 -121 l 669 -187 q 617 -205 643 -199 q 564 -211 592 -211 z "},"f":{"ha":463,"x_min":69,"x_max":463,"o":"m 306 0 l 167 0 l 167 686 q 188 838 172 783 q 240 915 204 893 q 335 938 275 938 q 399 934 367 938 q 463 924 431 931 l 454 824 l 306 836 l 306 0 m 417 694 l 417 599 l 69 599 l 69 694 l 417 694 z "},"g":{"ha":703,"x_min":63,"x_max":668,"o":"m 336 203 q 173 226 233 203 q 88 306 113 250 q 63 458 63 361 q 88 611 63 556 q 173 691 113 667 q 336 715 233 715 q 500 691 440 715 q 585 611 560 667 q 611 458 611 556 q 586 306 611 363 q 501 226 561 250 q 336 203 440 203 m 200 294 l 372 294 q 451 313 429 294 q 474 381 474 332 l 474 624 l 301 624 q 222 605 244 624 q 200 538 200 586 l 200 294 m 619 -54 q 593 -157 619 -118 q 506 -212 567 -196 q 343 -229 446 -229 q 197 -218 268 -229 q 74 -187 125 -207 l 92 -82 q 214 -108 163 -100 q 318 -115 265 -115 q 416 -112 375 -115 q 496 -100 457 -108 l 496 3 q 294 25 354 11 q 235 63 235 39 l 276 222 l 365 222 l 357 103 q 492 83 440 93 q 572 56 544 72 q 609 13 599 39 q 619 -54 619 -14 m 563 576 l 481 676 l 599 767 l 668 699 l 563 576 z "},"ğ":{"ha":703,"x_min":63,"x_max":668,"o":"m 336 203 q 173 226 233 203 q 88 306 113 250 q 63 458 63 361 q 88 611 63 556 q 173 691 113 667 q 336 715 233 715 q 500 691 440 715 q 585 611 560 667 q 611 458 611 556 q 586 306 611 363 q 501 226 561 250 q 336 203 440 203 m 200 294 l 372 294 q 451 313 429 294 q 474 381 474 332 l 474 624 l 301 624 q 222 605 244 624 q 200 538 200 586 l 200 294 m 619 -54 q 593 -157 619 -118 q 506 -212 567 -196 q 343 -229 446 -229 q 197 -218 268 -229 q 74 -187 125 -207 l 92 -82 q 214 -108 163 -100 q 318 -115 265 -115 q 416 -112 375 -115 q 496 -100 457 -108 l 496 3 q 294 25 354 11 q 235 63 235 39 l 276 222 l 365 222 l 357 103 q 492 83 440 93 q 572 56 544 72 q 609 13 599 39 q 619 -54 619 -14 m 563 576 l 481 676 l 599 767 l 668 699 l 563 576 m 351 788 q 249 822 293 788 q 188 938 206 856 l 278 953 q 308 906 286 922 q 351 889 329 889 q 396 906 375 889 q 425 953 417 922 l 515 938 q 453 824 497 861 q 351 788 408 788 z "},"ĝ":{"ha":703,"x_min":63,"x_max":668,"o":"m 336 203 q 173 226 233 203 q 88 306 113 250 q 63 458 63 361 q 88 611 63 556 q 173 691 113 667 q 336 715 233 715 q 500 691 440 715 q 585 611 560 667 q 611 458 611 556 q 586 306 611 363 q 501 226 561 250 q 336 203 440 203 m 200 294 l 372 294 q 451 313 429 294 q 474 381 474 332 l 474 624 l 301 624 q 222 605 244 624 q 200 538 200 586 l 200 294 m 619 -54 q 593 -157 619 -118 q 506 -212 567 -196 q 343 -229 446 -229 q 197 -218 268 -229 q 74 -187 125 -207 l 92 -82 q 214 -108 163 -100 q 318 -115 265 -115 q 416 -112 375 -115 q 496 -100 457 -108 l 496 3 q 294 25 354 11 q 235 63 235 39 l 276 222 l 365 222 l 357 103 q 492 83 440 93 q 572 56 544 72 q 609 13 599 39 q 619 -54 619 -14 m 563 576 l 481 676 l 599 767 l 668 699 l 563 576 m 236 772 l 188 819 l 325 981 q 339 989 332 989 l 364 989 q 378 981 372 989 l 515 819 l 467 772 l 351 861 l 236 772 z "},"ģ":{"ha":703,"x_min":63,"x_max":668,"o":"m 336 203 q 173 226 233 203 q 88 306 113 250 q 63 458 63 361 q 88 611 63 556 q 173 691 113 667 q 336 715 233 715 q 500 691 440 715 q 585 611 560 667 q 611 458 611 556 q 586 306 611 363 q 501 226 561 250 q 336 203 440 203 m 200 294 l 372 294 q 451 313 429 294 q 474 381 474 332 l 474 624 l 301 624 q 222 605 244 624 q 200 538 200 586 l 200 294 m 619 -54 q 593 -157 619 -118 q 506 -212 567 -196 q 343 -229 446 -229 q 197 -218 268 -229 q 74 -187 125 -207 l 92 -82 q 214 -108 163 -100 q 318 -115 265 -115 q 416 -112 375 -115 q 496 -100 457 -108 l 496 3 q 294 25 354 11 q 235 63 235 39 l 276 222 l 365 222 l 357 103 q 492 83 440 93 q 572 56 544 72 q 609 13 599 39 q 619 -54 619 -14 m 563 576 l 481 676 l 599 767 l 668 699 l 563 576 m 344 1135 l 404 1117 l 375 981 q 428 957 411 976 q 446 889 446 938 q 424 814 446 835 q 351 793 401 793 q 279 814 301 793 q 257 889 257 835 q 269 971 257 939 q 301 1046 281 1003 l 344 1135 z "},"ġ":{"ha":703,"x_min":63,"x_max":668,"o":"m 336 203 q 173 226 233 203 q 88 306 113 250 q 63 458 63 361 q 88 611 63 556 q 173 691 113 667 q 336 715 233 715 q 500 691 440 715 q 585 611 560 667 q 611 458 611 556 q 586 306 611 363 q 501 226 561 250 q 336 203 440 203 m 200 294 l 372 294 q 451 313 429 294 q 474 381 474 332 l 474 624 l 301 624 q 222 605 244 624 q 200 538 200 586 l 200 294 m 619 -54 q 593 -157 619 -118 q 506 -212 567 -196 q 343 -229 446 -229 q 197 -218 268 -229 q 74 -187 125 -207 l 92 -82 q 214 -108 163 -100 q 318 -115 265 -115 q 416 -112 375 -115 q 496 -100 457 -108 l 496 3 q 294 25 354 11 q 235 63 235 39 l 276 222 l 365 222 l 357 103 q 492 83 440 93 q 572 56 544 72 q 609 13 599 39 q 619 -54 619 -14 m 563 576 l 481 676 l 599 767 l 668 699 l 563 576 m 353 815 q 284 833 301 815 q 267 899 267 850 q 285 967 267 949 q 353 985 303 985 q 419 967 401 985 q 436 899 436 949 q 419 833 436 850 q 353 815 403 815 z "},"h":{"ha":800,"x_min":125,"x_max":682,"o":"m 125 0 l 125 913 l 261 924 l 261 649 q 359 694 306 681 q 485 708 413 708 q 632 678 582 708 q 682 590 682 649 l 682 0 l 543 0 l 543 594 l 382 594 q 289 578 314 594 q 264 514 264 561 l 264 0 l 125 0 z "},"ħ":{"ha":800,"x_min":29,"x_max":682,"o":"m 29 796 q 40 822 29 815 q 81 828 50 828 l 360 828 l 360 806 q 350 781 360 786 q 308 775 340 775 l 29 775 l 29 796 m 125 0 l 125 913 l 261 924 l 261 649 q 359 694 306 681 q 485 708 413 708 q 632 678 582 708 q 682 590 682 649 l 682 0 l 543 0 l 543 594 l 382 594 q 289 578 314 594 q 264 514 264 561 l 264 0 l 125 0 z "},"ĥ":{"ha":800,"x_min":31,"x_max":682,"o":"m 125 0 l 125 913 l 261 924 l 261 649 q 359 694 306 681 q 485 708 413 708 q 632 678 582 708 q 682 590 682 649 l 682 0 l 543 0 l 543 594 l 382 594 q 289 578 314 594 q 264 514 264 561 l 264 0 l 125 0 m 79 946 l 31 993 l 168 1154 q 182 1163 175 1163 l 207 1163 q 221 1154 215 1163 l 358 993 l 310 946 l 194 1035 l 79 946 z "},"i":{"ha":389,"x_min":110,"x_max":279,"o":"m 125 685 l 264 706 l 264 0 l 125 0 l 125 685 m 196 815 q 127 833 144 815 q 110 899 110 850 q 128 967 110 949 q 196 985 146 985 q 262 967 244 985 q 279 899 279 949 q 263 833 279 850 q 196 815 246 815 z "},"ı":{"ha":389,"x_min":125,"x_max":264,"o":"m 125 685 l 264 706 l 264 0 l 125 0 l 125 685 z "},"í":{"ha":389,"x_min":76,"x_max":379,"o":"m 125 685 l 264 706 l 264 0 l 125 0 l 125 685 m 107 783 l 76 831 l 288 983 q 299 989 294 989 q 310 982 304 989 l 369 908 q 379 892 379 897 q 369 876 379 885 l 332 846 q 320 838 326 840 q 301 832 314 835 l 107 783 z "},"ĭ":{"ha":389,"x_min":31,"x_max":358,"o":"m 125 685 l 264 706 l 264 0 l 125 0 l 125 685 m 194 788 q 92 822 136 788 q 31 938 49 856 l 121 953 q 151 906 129 922 q 194 889 172 889 q 239 906 218 889 q 268 953 260 922 l 358 938 q 296 824 340 861 q 194 788 251 788 z "},"î":{"ha":389,"x_min":31,"x_max":358,"o":"m 125 685 l 264 706 l 264 0 l 125 0 l 125 685 m 79 772 l 31 819 l 168 981 q 182 989 175 989 l 207 989 q 221 981 215 989 l 358 819 l 310 772 l 194 861 l 79 772 z "},"ï":{"ha":389,"x_min":-4,"x_max":393,"o":"m 125 685 l 264 706 l 264 0 l 125 0 l 125 685 m 322 799 q 263 817 276 799 q 250 878 250 835 q 263 940 250 922 q 322 958 276 958 q 380 940 367 958 q 393 878 393 922 q 380 817 393 835 q 322 799 367 799 m 68 799 q 9 817 22 799 q -4 878 -4 835 q 9 940 -4 922 q 68 958 22 958 q 126 940 113 958 q 139 878 139 922 q 126 817 139 835 q 68 799 113 799 z "},"ì":{"ha":389,"x_min":43,"x_max":346,"o":"m 125 685 l 264 706 l 264 0 l 125 0 l 125 685 m 315 769 l 121 818 q 90 832 101 824 l 53 863 q 43 878 43 871 q 53 894 43 883 l 113 968 q 124 975 118 975 q 135 969 128 975 l 346 817 l 315 769 z "},"ĳ":{"ha":778,"x_min":110,"x_max":668,"o":"m 125 685 l 264 706 l 264 0 l 125 0 l 125 685 m 196 815 q 127 833 144 815 q 110 899 110 850 q 128 967 110 949 q 196 985 146 985 q 262 967 244 985 q 279 899 279 949 q 263 833 279 850 q 196 815 246 815 m 481 -243 q 425 -239 454 -243 q 374 -228 396 -235 l 382 -147 q 466 -141 438 -147 q 504 -117 494 -135 q 514 -62 514 -99 l 514 685 l 653 706 l 653 -83 q 611 -203 653 -164 q 481 -243 569 -243 m 585 815 q 516 833 533 815 q 499 899 499 850 q 517 967 499 949 q 585 985 535 985 q 651 967 633 985 q 668 899 668 949 q 651 833 668 850 q 585 815 635 815 z "},"ī":{"ha":389,"x_min":25,"x_max":363,"o":"m 125 685 l 264 706 l 264 0 l 125 0 l 125 685 m 88 814 q 35 828 44 814 q 25 878 25 843 l 25 926 l 301 926 q 353 913 344 926 q 363 864 363 900 l 363 814 l 88 814 z "},"į":{"ha":389,"x_min":65,"x_max":297,"o":"m 125 685 l 264 706 l 264 0 l 125 0 l 125 685 m 196 815 q 127 833 144 815 q 110 899 110 850 q 128 967 110 949 q 196 985 146 985 q 262 967 244 985 q 279 899 279 949 q 263 833 279 850 q 196 815 246 815 m 192 -239 q 99 -206 133 -239 q 65 -115 65 -172 q 117 -17 65 -58 q 250 33 169 24 l 264 0 l 236 -6 q 186 -28 197 -15 q 175 -72 175 -40 l 175 -101 q 185 -136 175 -124 q 215 -149 196 -149 l 286 -149 l 297 -215 q 245 -233 271 -226 q 192 -239 219 -239 z "},"ĩ":{"ha":389,"x_min":-4,"x_max":393,"o":"m 125 685 l 264 706 l 264 0 l 125 0 l 125 685 m 224 783 q 199 788 211 783 q 172 805 188 792 q 126 843 156 818 l 35 797 l -4 861 q 81 922 50 901 q 132 951 113 943 q 165 958 151 958 q 188 954 178 958 q 215 938 199 950 q 263 899 232 925 l 354 944 l 393 881 q 314 823 346 844 q 261 792 282 801 q 224 783 240 783 z "},"j":{"ha":389,"x_min":-15,"x_max":279,"o":"m 92 -243 q 36 -239 65 -243 q -15 -228 7 -235 l -7 -147 q 77 -141 49 -147 q 115 -117 106 -135 q 125 -62 125 -99 l 125 685 l 264 706 l 264 -83 q 222 -203 264 -164 q 92 -243 181 -243 m 196 815 q 127 833 144 815 q 110 899 110 850 q 128 967 110 949 q 196 985 146 985 q 262 967 244 985 q 279 899 279 949 q 263 833 279 850 q 196 815 246 815 z "},"ȷ":{"ha":389,"x_min":-15,"x_max":264,"o":"m 92 -243 q 36 -239 65 -243 q -15 -228 7 -235 l -7 -147 q 77 -141 49 -147 q 115 -117 106 -135 q 125 -62 125 -99 l 125 685 l 264 706 l 264 -83 q 222 -203 264 -164 q 92 -243 181 -243 z "},"ĵ":{"ha":389,"x_min":-15,"x_max":358,"o":"m 92 -243 q 36 -239 65 -243 q -15 -228 7 -235 l -7 -147 q 77 -141 49 -147 q 115 -117 106 -135 q 125 -62 125 -99 l 125 685 l 264 706 l 264 -83 q 222 -203 264 -164 q 92 -243 181 -243 m 79 772 l 31 819 l 168 981 q 182 989 175 989 l 207 989 q 221 981 215 989 l 358 819 l 310 772 l 194 861 l 79 772 z "},"k":{"ha":688,"x_min":125,"x_max":674,"o":"m 374 322 l 264 322 l 264 0 l 125 0 l 125 903 l 264 924 l 264 419 l 374 419 l 521 694 l 667 694 l 489 371 l 674 0 l 531 0 l 374 322 z "},"ķ":{"ha":688,"x_min":125,"x_max":674,"o":"m 374 322 l 264 322 l 264 0 l 125 0 l 125 903 l 264 924 l 264 419 l 374 419 l 521 694 l 667 694 l 489 371 l 674 0 l 531 0 l 374 322 m 379 -397 l 319 -379 l 349 -243 q 295 -219 313 -239 q 278 -151 278 -200 q 300 -76 278 -97 q 372 -56 322 -56 q 444 -76 422 -56 q 467 -151 467 -97 q 455 -233 467 -201 q 422 -308 443 -265 l 379 -397 z "},"ĸ":{"ha":708,"x_min":125,"x_max":694,"o":"m 394 299 l 264 299 l 264 0 l 125 0 l 125 694 l 264 694 l 264 396 l 394 396 l 542 694 l 688 694 l 510 347 l 694 0 l 551 0 l 394 299 z "},"l":{"ha":376,"x_min":118,"x_max":321,"o":"m 257 103 q 287 99 269 101 q 321 96 304 97 l 313 1 q 263 -10 285 -7 q 221 -14 242 -14 q 144 12 169 -14 q 118 90 118 38 l 118 903 l 257 924 l 257 103 z "},"ĺ":{"ha":376,"x_min":69,"x_max":372,"o":"m 257 103 q 287 99 269 101 q 321 96 304 97 l 313 1 q 263 -10 285 -7 q 221 -14 242 -14 q 144 12 169 -14 q 118 90 118 38 l 118 903 l 257 924 l 257 103 m 100 957 l 69 1004 l 281 1157 q 292 1163 288 1163 q 303 1156 297 1163 l 363 1082 q 372 1065 372 1071 q 363 1050 372 1058 l 325 1019 q 313 1011 319 1014 q 294 1006 307 1008 l 100 957 z "},"ľ":{"ha":467,"x_min":118,"x_max":494,"o":"m 257 103 q 287 99 269 101 q 321 96 304 97 l 313 1 q 263 -10 285 -7 q 221 -14 242 -14 q 144 12 169 -14 q 118 90 118 38 l 118 903 l 257 924 l 257 103 m 407 631 l 347 649 l 376 785 q 323 808 340 789 q 306 876 306 828 q 328 951 306 931 q 400 972 350 972 q 472 951 450 972 q 494 876 494 931 q 483 794 494 826 q 450 719 471 763 l 407 631 z "},"ļ":{"ha":376,"x_min":93,"x_max":321,"o":"m 257 103 q 287 99 269 101 q 321 96 304 97 l 313 1 q 263 -10 285 -7 q 221 -14 242 -14 q 144 12 169 -14 q 118 90 118 38 l 118 903 l 257 924 l 257 103 m 194 -397 l 135 -379 l 164 -243 q 110 -219 128 -239 q 93 -151 93 -200 q 115 -76 93 -97 q 188 -56 138 -56 q 260 -76 238 -56 q 282 -151 282 -97 q 270 -233 282 -201 q 238 -308 258 -265 l 194 -397 z "},"ŀ":{"ha":478,"x_min":118,"x_max":506,"o":"m 257 103 q 287 99 269 101 q 321 96 304 97 l 313 1 q 263 -10 285 -7 q 221 -14 242 -14 q 144 12 169 -14 q 118 90 118 38 l 118 903 l 257 924 l 257 103 m 325 465 q 342 538 325 515 q 415 561 360 561 q 488 538 471 561 q 506 465 506 515 q 488 392 506 414 q 415 371 471 371 q 342 392 360 371 q 325 465 325 414 z "},"ł":{"ha":376,"x_min":13,"x_max":363,"o":"m 257 103 q 287 99 269 101 q 321 96 304 97 l 313 1 q 263 -10 285 -7 q 221 -14 242 -14 q 144 12 169 -14 q 118 90 118 38 l 118 903 l 257 924 l 257 103 m 33 354 l 21 392 q 13 432 13 417 q 36 461 13 453 l 342 563 l 354 525 q 363 485 363 500 q 339 456 363 464 l 33 354 z "},"m":{"ha":1189,"x_min":125,"x_max":1071,"o":"m 125 0 l 125 694 l 189 694 l 226 625 q 335 688 276 668 q 471 708 394 708 q 618 678 568 708 q 668 590 668 649 l 668 0 l 529 0 l 529 594 l 382 594 q 289 578 314 594 q 264 514 264 561 l 264 0 l 125 0 m 529 0 l 529 694 l 629 625 q 738 688 679 668 q 874 708 797 708 q 1021 678 971 708 q 1071 590 1071 649 l 1071 0 l 932 0 l 932 594 l 785 594 q 692 578 717 594 q 667 514 667 561 l 667 0 l 529 0 z "},"n":{"ha":800,"x_min":125,"x_max":682,"o":"m 125 0 l 125 694 l 189 694 l 226 625 q 342 688 279 668 q 485 708 404 708 q 632 678 582 708 q 682 590 682 649 l 682 0 l 543 0 l 543 594 l 382 594 q 289 578 314 594 q 264 514 264 561 l 264 0 l 125 0 z "},"ń":{"ha":800,"x_min":125,"x_max":682,"o":"m 125 0 l 125 694 l 189 694 l 226 625 q 342 688 279 668 q 485 708 404 708 q 632 678 582 708 q 682 590 682 649 l 682 0 l 543 0 l 543 594 l 382 594 q 289 578 314 594 q 264 514 264 561 l 264 0 l 125 0 m 326 783 l 296 831 l 507 983 q 518 989 514 989 q 529 982 524 989 l 589 908 q 599 892 599 897 q 589 876 599 885 l 551 846 q 540 838 546 840 q 521 832 533 835 l 326 783 z "},"ň":{"ha":800,"x_min":125,"x_max":682,"o":"m 125 0 l 125 694 l 189 694 l 226 625 q 342 688 279 668 q 485 708 404 708 q 632 678 582 708 q 682 590 682 649 l 682 0 l 543 0 l 543 594 l 382 594 q 289 578 314 594 q 264 514 264 561 l 264 0 l 125 0 m 299 989 l 414 900 l 529 989 l 578 942 l 440 781 q 426 772 435 772 l 401 772 q 388 781 394 772 l 250 942 l 299 989 z "},"ņ":{"ha":800,"x_min":125,"x_max":682,"o":"m 125 0 l 125 694 l 189 694 l 226 625 q 342 688 279 668 q 485 708 404 708 q 632 678 582 708 q 682 590 682 649 l 682 0 l 543 0 l 543 594 l 382 594 q 289 578 314 594 q 264 514 264 561 l 264 0 l 125 0 m 407 -397 l 347 -379 l 376 -243 q 323 -219 340 -239 q 306 -151 306 -200 q 328 -76 306 -97 q 400 -56 350 -56 q 472 -76 450 -56 q 494 -151 494 -97 q 483 -233 494 -201 q 450 -308 471 -265 l 407 -397 z "},"ŋ":{"ha":800,"x_min":125,"x_max":682,"o":"m 510 -243 q 456 -239 485 -243 q 403 -228 426 -235 l 411 -161 q 496 -153 468 -160 q 533 -129 524 -147 q 543 -76 543 -111 l 543 42 l 682 42 l 682 -83 q 640 -203 682 -164 q 510 -243 599 -243 m 125 0 l 125 694 l 189 694 l 226 625 q 342 688 279 668 q 485 708 404 708 q 632 678 582 708 q 682 590 682 649 l 682 0 l 543 0 l 543 594 l 382 594 q 289 578 314 594 q 264 514 264 561 l 264 0 l 125 0 z "},"ñ":{"ha":800,"x_min":125,"x_max":682,"o":"m 125 0 l 125 694 l 189 694 l 226 625 q 342 688 279 668 q 485 708 404 708 q 632 678 582 708 q 682 590 682 649 l 682 0 l 543 0 l 543 594 l 382 594 q 289 578 314 594 q 264 514 264 561 l 264 0 l 125 0 m 443 783 q 419 788 431 783 q 391 805 407 792 q 346 843 375 818 l 254 797 l 215 861 q 301 922 269 901 q 351 951 332 943 q 385 958 371 958 q 408 954 397 958 q 435 938 418 950 q 482 899 451 925 l 574 944 l 613 881 q 533 823 565 844 q 481 792 501 801 q 443 783 460 783 z "},"o":{"ha":769,"x_min":83,"x_max":686,"o":"m 385 -14 q 235 2 294 -14 q 143 58 176 18 q 97 168 110 97 q 83 347 83 239 q 97 526 83 456 q 143 637 110 597 q 235 692 176 676 q 385 708 294 708 q 535 692 476 708 q 627 637 594 676 q 673 527 660 597 q 686 347 686 457 q 673 168 686 239 q 626 58 660 97 q 534 2 593 18 q 385 -14 475 -14 m 228 100 l 475 100 q 528 107 515 100 q 542 135 542 114 l 542 594 l 294 594 q 242 588 256 594 q 228 560 228 581 l 228 100 z "},"ó":{"ha":769,"x_min":83,"x_max":686,"o":"m 385 -14 q 235 2 294 -14 q 143 58 176 18 q 97 168 110 97 q 83 347 83 239 q 97 526 83 456 q 143 637 110 597 q 235 692 176 676 q 385 708 294 708 q 535 692 476 708 q 627 637 594 676 q 673 527 660 597 q 686 347 686 457 q 673 168 686 239 q 626 58 660 97 q 534 2 593 18 q 385 -14 475 -14 m 228 100 l 475 100 q 528 107 515 100 q 542 135 542 114 l 542 594 l 294 594 q 242 588 256 594 q 228 560 228 581 l 228 100 m 297 783 l 267 831 l 478 983 q 489 989 485 989 q 500 982 494 989 l 560 908 q 569 892 569 897 q 560 876 569 885 l 522 846 q 510 838 517 840 q 492 832 504 835 l 297 783 z "},"ŏ":{"ha":769,"x_min":83,"x_max":686,"o":"m 385 -14 q 235 2 294 -14 q 143 58 176 18 q 97 168 110 97 q 83 347 83 239 q 97 526 83 456 q 143 637 110 597 q 235 692 176 676 q 385 708 294 708 q 535 692 476 708 q 627 637 594 676 q 673 527 660 597 q 686 347 686 457 q 673 168 686 239 q 626 58 660 97 q 534 2 593 18 q 385 -14 475 -14 m 228 100 l 475 100 q 528 107 515 100 q 542 135 542 114 l 542 594 l 294 594 q 242 588 256 594 q 228 560 228 581 l 228 100 m 385 788 q 283 822 326 788 q 221 938 239 856 l 311 953 q 341 906 319 922 q 385 889 363 889 q 429 906 408 889 q 458 953 450 922 l 549 938 q 486 824 531 861 q 385 788 442 788 z "},"ô":{"ha":769,"x_min":83,"x_max":686,"o":"m 385 -14 q 235 2 294 -14 q 143 58 176 18 q 97 168 110 97 q 83 347 83 239 q 97 526 83 456 q 143 637 110 597 q 235 692 176 676 q 385 708 294 708 q 535 692 476 708 q 627 637 594 676 q 673 527 660 597 q 686 347 686 457 q 673 168 686 239 q 626 58 660 97 q 534 2 593 18 q 385 -14 475 -14 m 228 100 l 475 100 q 528 107 515 100 q 542 135 542 114 l 542 594 l 294 594 q 242 588 256 594 q 228 560 228 581 l 228 100 m 269 772 l 221 819 l 358 981 q 372 989 365 989 l 397 989 q 411 981 406 989 l 549 819 l 500 772 l 385 861 l 269 772 z "},"ö":{"ha":769,"x_min":83,"x_max":686,"o":"m 385 -14 q 235 2 294 -14 q 143 58 176 18 q 97 168 110 97 q 83 347 83 239 q 97 526 83 456 q 143 637 110 597 q 235 692 176 676 q 385 708 294 708 q 535 692 476 708 q 627 637 594 676 q 673 527 660 597 q 686 347 686 457 q 673 168 686 239 q 626 58 660 97 q 534 2 593 18 q 385 -14 475 -14 m 228 100 l 475 100 q 528 107 515 100 q 542 135 542 114 l 542 594 l 294 594 q 242 588 256 594 q 228 560 228 581 l 228 100 m 513 799 q 453 817 467 799 q 440 878 440 835 q 453 940 440 922 q 513 958 467 958 q 570 940 557 958 q 583 878 583 922 q 570 817 583 835 q 513 799 557 799 m 258 799 q 199 817 213 799 q 186 878 186 835 q 199 940 186 922 q 258 958 213 958 q 316 940 303 958 q 329 878 329 922 q 316 817 329 835 q 258 799 303 799 z "},"ò":{"ha":769,"x_min":83,"x_max":686,"o":"m 385 -14 q 235 2 294 -14 q 143 58 176 18 q 97 168 110 97 q 83 347 83 239 q 97 526 83 456 q 143 637 110 597 q 235 692 176 676 q 385 708 294 708 q 535 692 476 708 q 627 637 594 676 q 673 527 660 597 q 686 347 686 457 q 673 168 686 239 q 626 58 660 97 q 534 2 593 18 q 385 -14 475 -14 m 228 100 l 475 100 q 528 107 515 100 q 542 135 542 114 l 542 594 l 294 594 q 242 588 256 594 q 228 560 228 581 l 228 100 m 506 769 l 311 818 q 281 832 292 824 l 243 863 q 233 878 233 871 q 243 894 233 883 l 303 968 q 314 975 308 975 q 325 969 318 975 l 536 817 l 506 769 z "},"ő":{"ha":769,"x_min":83,"x_max":704,"o":"m 385 -14 q 235 2 294 -14 q 143 58 176 18 q 97 168 110 97 q 83 347 83 239 q 97 526 83 456 q 143 637 110 597 q 235 692 176 676 q 385 708 294 708 q 535 692 476 708 q 627 637 594 676 q 673 527 660 597 q 686 347 686 457 q 673 168 686 239 q 626 58 660 97 q 534 2 593 18 q 385 -14 475 -14 m 228 100 l 475 100 q 528 107 515 100 q 542 135 542 114 l 542 594 l 294 594 q 242 588 256 594 q 228 560 228 581 l 228 100 m 458 790 l 428 838 l 613 983 q 624 989 619 989 q 628 988 626 989 q 635 982 631 988 l 696 907 q 701 899 699 903 q 704 892 704 896 q 703 888 704 890 q 699 881 703 885 l 657 846 q 646 838 651 842 q 626 832 640 835 l 458 790 m 151 790 l 121 838 l 306 983 q 317 989 313 989 q 322 988 319 989 q 328 982 324 988 l 389 907 q 394 899 392 903 q 397 892 397 896 q 397 888 397 890 q 392 881 396 885 l 350 846 q 339 838 344 842 q 319 832 333 835 l 151 790 z "},"ō":{"ha":769,"x_min":83,"x_max":686,"o":"m 385 -14 q 235 2 294 -14 q 143 58 176 18 q 97 168 110 97 q 83 347 83 239 q 97 526 83 456 q 143 637 110 597 q 235 692 176 676 q 385 708 294 708 q 535 692 476 708 q 627 637 594 676 q 673 527 660 597 q 686 347 686 457 q 673 168 686 239 q 626 58 660 97 q 534 2 593 18 q 385 -14 475 -14 m 228 100 l 475 100 q 528 107 515 100 q 542 135 542 114 l 542 594 l 294 594 q 242 588 256 594 q 228 560 228 581 l 228 100 m 278 814 q 225 828 235 814 q 215 878 215 843 l 215 926 l 492 926 q 544 913 535 926 q 553 864 553 900 l 553 814 l 278 814 z "},"ø":{"ha":769,"x_min":83,"x_max":686,"o":"m 385 -14 q 235 2 294 -14 q 143 58 176 18 q 97 168 110 97 q 83 347 83 239 q 97 526 83 456 q 143 637 110 597 q 235 692 176 676 q 385 708 294 708 q 535 692 476 708 q 627 637 594 676 q 673 527 660 597 q 686 347 686 457 q 673 168 686 239 q 626 58 660 97 q 534 2 593 18 q 385 -14 475 -14 m 228 100 l 475 100 q 528 107 515 100 q 542 135 542 114 l 542 594 l 294 594 q 242 588 256 594 q 228 560 228 581 l 228 100 m 207 -108 q 184 -136 197 -129 q 147 -143 171 -143 l 104 -143 l 563 801 q 586 829 574 822 q 622 836 599 836 l 665 836 l 207 -108 z "},"ǿ":{"ha":769,"x_min":83,"x_max":686,"o":"m 385 -14 q 235 2 294 -14 q 143 58 176 18 q 97 168 110 97 q 83 347 83 239 q 97 526 83 456 q 143 637 110 597 q 235 692 176 676 q 385 708 294 708 q 535 692 476 708 q 627 637 594 676 q 673 527 660 597 q 686 347 686 457 q 673 168 686 239 q 626 58 660 97 q 534 2 593 18 q 385 -14 475 -14 m 228 100 l 475 100 q 528 107 515 100 q 542 135 542 114 l 542 594 l 294 594 q 242 588 256 594 q 228 560 228 581 l 228 100 m 207 -108 q 184 -136 197 -129 q 147 -143 171 -143 l 104 -143 l 563 801 q 586 829 574 822 q 622 836 599 836 l 665 836 l 207 -108 m 297 783 l 267 831 l 478 983 q 489 989 485 989 q 500 982 494 989 l 560 908 q 569 892 569 897 q 560 876 569 885 l 522 846 q 510 838 517 840 q 492 832 504 835 l 297 783 z "},"õ":{"ha":769,"x_min":83,"x_max":686,"o":"m 385 -14 q 235 2 294 -14 q 143 58 176 18 q 97 168 110 97 q 83 347 83 239 q 97 526 83 456 q 143 637 110 597 q 235 692 176 676 q 385 708 294 708 q 535 692 476 708 q 627 637 594 676 q 673 527 660 597 q 686 347 686 457 q 673 168 686 239 q 626 58 660 97 q 534 2 593 18 q 385 -14 475 -14 m 228 100 l 475 100 q 528 107 515 100 q 542 135 542 114 l 542 594 l 294 594 q 242 588 256 594 q 228 560 228 581 l 228 100 m 414 783 q 390 788 401 783 q 362 805 378 792 q 317 843 346 818 l 225 797 l 186 861 q 272 922 240 901 q 322 951 303 943 q 356 958 342 958 q 378 954 368 958 q 406 938 389 950 q 453 899 422 925 l 544 944 l 583 881 q 504 823 536 844 q 451 792 472 801 q 414 783 431 783 z "},"œ":{"ha":1207,"x_min":83,"x_max":1110,"o":"m 385 -14 q 235 2 294 -14 q 143 58 176 18 q 97 168 110 97 q 83 347 83 239 q 97 526 83 456 q 143 637 110 597 q 235 692 176 676 q 385 708 294 708 q 528 693 472 708 q 616 638 585 678 q 660 528 647 599 q 672 347 672 457 q 660 168 672 239 q 615 58 647 97 q 527 2 583 18 q 385 -14 471 -14 m 228 100 l 475 100 q 528 107 515 100 q 542 135 542 114 l 542 594 l 294 594 q 242 588 256 594 q 228 560 228 581 l 228 100 m 808 -14 q 683 3 733 -14 q 605 60 633 19 q 565 172 576 101 q 553 347 553 242 q 578 565 553 486 q 664 676 603 643 q 832 708 725 708 q 1002 690 942 708 q 1086 627 1063 672 q 1110 500 1110 582 q 1095 384 1110 428 q 1037 317 1081 340 q 909 287 993 294 q 685 279 825 279 l 643 279 l 643 369 l 868 369 q 960 386 936 369 q 985 450 985 403 l 985 594 l 800 594 q 709 578 733 594 q 685 514 685 561 l 685 111 q 751 99 717 103 q 833 96 786 96 q 943 103 889 96 q 1074 129 997 111 l 1092 28 q 962 -3 1038 8 q 808 -14 886 -14 z "},"p":{"ha":790,"x_min":125,"x_max":707,"o":"m 457 -21 q 312 -6 368 -21 q 226 47 256 8 q 185 158 196 86 q 174 347 174 231 q 185 533 174 463 q 226 642 196 604 q 312 694 256 681 q 457 708 368 708 q 582 692 533 708 q 658 637 631 676 q 696 527 685 597 q 707 347 707 457 q 696 165 707 238 q 657 53 685 93 q 581 -4 629 13 q 457 -21 532 -21 m 264 93 l 497 93 q 548 100 535 93 q 561 128 561 107 l 561 594 l 328 594 q 278 588 292 594 q 264 567 264 582 l 264 93 m 125 -246 l 125 694 l 189 694 l 264 556 l 264 -229 l 125 -246 z "},"þ":{"ha":790,"x_min":125,"x_max":707,"o":"m 457 -21 q 312 -6 368 -21 q 226 47 256 8 q 185 158 196 86 q 174 347 174 231 q 185 533 174 463 q 226 642 196 604 q 312 694 256 681 q 457 708 368 708 q 582 692 533 708 q 658 637 631 676 q 696 527 685 597 q 707 347 707 457 q 696 165 707 238 q 657 53 685 93 q 581 -4 629 13 q 457 -21 532 -21 m 264 93 l 497 93 q 548 100 535 93 q 561 128 561 107 l 561 594 l 328 594 q 278 588 292 594 q 264 567 264 582 l 264 93 m 125 -246 l 125 903 l 264 924 l 264 -229 l 125 -246 z "},"q":{"ha":790,"x_min":83,"x_max":665,"o":"m 333 -21 q 210 -4 258 -21 q 133 53 161 13 q 94 165 106 93 q 83 347 83 238 q 94 527 83 457 q 133 637 106 597 q 208 692 160 676 q 333 708 257 708 q 479 694 424 708 q 565 642 535 681 q 606 533 594 604 q 617 347 617 463 q 606 158 617 231 q 565 47 594 86 q 479 -6 535 8 q 333 -21 424 -21 m 229 93 l 463 93 q 513 100 500 93 q 526 128 526 107 l 526 594 l 293 594 q 243 588 257 594 q 229 567 229 582 l 229 93 m 665 -229 l 526 -246 l 526 556 l 601 694 l 665 694 l 665 -229 z "},"r":{"ha":464,"x_min":125,"x_max":443,"o":"m 190 694 l 239 585 q 346 672 301 642 q 429 715 390 701 l 443 579 q 381 556 414 571 q 317 525 347 542 q 264 490 288 508 l 264 0 l 125 0 l 125 694 l 190 694 z "},"ŕ":{"ha":464,"x_min":125,"x_max":458,"o":"m 190 694 l 239 585 q 346 672 301 642 q 429 715 390 701 l 443 579 q 381 556 414 571 q 317 525 347 542 q 264 490 288 508 l 264 0 l 125 0 l 125 694 l 190 694 m 186 783 l 156 831 l 367 983 q 378 989 374 989 q 389 982 383 989 l 449 908 q 458 892 458 897 q 449 876 458 885 l 411 846 q 399 838 406 840 q 381 832 393 835 l 186 783 z "},"ř":{"ha":464,"x_min":110,"x_max":443,"o":"m 190 694 l 239 585 q 346 672 301 642 q 429 715 390 701 l 443 579 q 381 556 414 571 q 317 525 347 542 q 264 490 288 508 l 264 0 l 125 0 l 125 694 l 190 694 m 158 989 l 274 900 l 389 989 l 438 942 l 300 781 q 286 772 294 772 l 261 772 q 247 781 254 772 l 110 942 l 158 989 z "},"ŗ":{"ha":464,"x_min":100,"x_max":443,"o":"m 190 694 l 239 585 q 346 672 301 642 q 429 715 390 701 l 443 579 q 381 556 414 571 q 317 525 347 542 q 264 490 288 508 l 264 0 l 125 0 l 125 694 l 190 694 m 201 -397 l 142 -379 l 171 -243 q 117 -219 135 -239 q 100 -151 100 -200 q 122 -76 100 -97 q 194 -56 144 -56 q 267 -76 244 -56 q 289 -151 289 -97 q 277 -233 289 -201 q 244 -308 265 -265 l 201 -397 z "},"s":{"ha":668,"x_min":63,"x_max":606,"o":"m 78 508 q 142 665 78 615 q 340 715 206 715 q 459 708 403 715 q 571 685 515 700 l 551 583 q 470 599 517 593 q 382 606 424 606 q 297 602 338 606 q 224 593 256 599 l 224 429 q 419 395 344 413 q 535 353 494 378 q 590 290 575 328 q 606 196 606 253 q 577 70 606 118 q 485 1 549 22 q 314 -21 421 -21 q 190 -10 253 -21 q 63 19 128 0 l 85 131 q 313 89 192 89 q 385 93 354 89 q 460 108 417 97 l 460 272 q 256 307 332 290 q 141 348 179 324 q 90 410 103 372 q 78 508 78 449 z "},"ś":{"ha":668,"x_min":63,"x_max":606,"o":"m 78 508 q 142 665 78 615 q 340 715 206 715 q 459 708 403 715 q 571 685 515 700 l 551 583 q 470 599 517 593 q 382 606 424 606 q 297 602 338 606 q 224 593 256 599 l 224 429 q 419 395 344 413 q 535 353 494 378 q 590 290 575 328 q 606 196 606 253 q 577 70 606 118 q 485 1 549 22 q 314 -21 421 -21 q 190 -10 253 -21 q 63 19 128 0 l 85 131 q 313 89 192 89 q 385 93 354 89 q 460 108 417 97 l 460 272 q 256 307 332 290 q 141 348 179 324 q 90 410 103 372 q 78 508 78 449 m 254 783 l 224 831 l 435 983 q 446 989 442 989 q 457 982 451 989 l 517 908 q 526 892 526 897 q 517 876 526 885 l 479 846 q 467 838 474 840 q 449 832 461 835 l 254 783 z "},"š":{"ha":668,"x_min":63,"x_max":606,"o":"m 78 508 q 142 665 78 615 q 340 715 206 715 q 459 708 403 715 q 571 685 515 700 l 551 583 q 470 599 517 593 q 382 606 424 606 q 297 602 338 606 q 224 593 256 599 l 224 429 q 419 395 344 413 q 535 353 494 378 q 590 290 575 328 q 606 196 606 253 q 577 70 606 118 q 485 1 549 22 q 314 -21 421 -21 q 190 -10 253 -21 q 63 19 128 0 l 85 131 q 313 89 192 89 q 385 93 354 89 q 460 108 417 97 l 460 272 q 256 307 332 290 q 141 348 179 324 q 90 410 103 372 q 78 508 78 449 m 226 989 l 342 900 l 457 989 l 506 942 l 368 781 q 354 772 363 772 l 329 772 q 315 781 322 772 l 178 942 l 226 989 z "},"ş":{"ha":668,"x_min":63,"x_max":606,"o":"m 78 508 q 142 665 78 615 q 340 715 206 715 q 459 708 403 715 q 571 685 515 700 l 551 583 q 470 599 517 593 q 382 606 424 606 q 297 602 338 606 q 224 593 256 599 l 224 429 q 419 395 344 413 q 535 353 494 378 q 590 290 575 328 q 606 196 606 253 q 577 70 606 118 q 485 1 549 22 q 314 -21 421 -21 q 190 -10 253 -21 q 63 19 128 0 l 85 131 q 313 89 192 89 q 385 93 354 89 q 460 108 417 97 l 460 272 q 256 307 332 290 q 141 348 179 324 q 90 410 103 372 q 78 508 78 449 m 283 -239 q 189 -217 238 -239 l 199 -149 l 247 -149 q 294 -139 281 -149 q 307 -104 307 -129 l 307 29 l 335 29 q 394 -33 371 10 q 417 -126 417 -76 q 381 -208 417 -178 q 283 -239 344 -239 z "},"ŝ":{"ha":668,"x_min":63,"x_max":606,"o":"m 78 508 q 142 665 78 615 q 340 715 206 715 q 459 708 403 715 q 571 685 515 700 l 551 583 q 470 599 517 593 q 382 606 424 606 q 297 602 338 606 q 224 593 256 599 l 224 429 q 419 395 344 413 q 535 353 494 378 q 590 290 575 328 q 606 196 606 253 q 577 70 606 118 q 485 1 549 22 q 314 -21 421 -21 q 190 -10 253 -21 q 63 19 128 0 l 85 131 q 313 89 192 89 q 385 93 354 89 q 460 108 417 97 l 460 272 q 256 307 332 290 q 141 348 179 324 q 90 410 103 372 q 78 508 78 449 m 226 772 l 178 819 l 315 981 q 329 989 322 989 l 354 989 q 368 981 363 989 l 506 819 l 457 772 l 342 861 l 226 772 z "},"ș":{"ha":668,"x_min":63,"x_max":606,"o":"m 78 508 q 142 665 78 615 q 340 715 206 715 q 459 708 403 715 q 571 685 515 700 l 551 583 q 470 599 517 593 q 382 606 424 606 q 297 602 338 606 q 224 593 256 599 l 224 429 q 419 395 344 413 q 535 353 494 378 q 590 290 575 328 q 606 196 606 253 q 577 70 606 118 q 485 1 549 22 q 314 -21 421 -21 q 190 -10 253 -21 q 63 19 128 0 l 85 131 q 313 89 192 89 q 385 93 354 89 q 460 108 417 97 l 460 272 q 256 307 332 290 q 141 348 179 324 q 90 410 103 372 q 78 508 78 449 m 342 -397 l 282 -379 l 311 -243 q 258 -219 275 -239 q 240 -151 240 -200 q 263 -76 240 -97 q 335 -56 285 -56 q 407 -76 385 -56 q 429 -151 429 -97 q 417 -233 429 -201 q 385 -308 406 -265 l 342 -397 z "},"ß":{"ha":875,"x_min":69,"x_max":813,"o":"m 556 -21 q 460 -12 511 -21 q 358 11 410 -4 l 381 122 q 475 98 425 107 q 569 89 525 89 q 631 91 606 89 q 674 99 656 93 l 674 272 q 553 330 599 307 q 485 369 508 353 q 455 401 463 386 q 447 438 447 417 q 468 503 447 474 q 515 561 489 532 q 563 626 542 590 q 583 710 583 663 q 543 799 583 771 q 417 828 503 828 q 367 826 394 828 q 306 817 340 824 l 306 0 l 167 0 l 167 599 l 69 599 l 69 694 l 167 694 q 202 838 174 785 q 286 914 231 890 q 433 938 342 938 q 651 886 581 938 q 722 729 722 835 q 708 647 722 688 q 660 560 693 607 q 569 450 626 513 q 718 372 665 408 q 792 292 771 335 q 813 189 813 250 q 751 29 813 79 q 556 -21 689 -21 z "},"t":{"ha":492,"x_min":69,"x_max":429,"o":"m 269 -14 q 192 12 218 -14 q 167 90 167 38 l 167 843 l 306 878 l 306 103 q 347 99 325 101 q 404 96 369 97 l 396 1 q 322 -10 353 -7 q 269 -14 292 -14 m 69 599 l 69 694 l 429 694 l 429 599 l 69 599 z "},"ŧ":{"ha":492,"x_min":53,"x_max":429,"o":"m 269 -14 q 192 12 218 -14 q 167 90 167 38 l 167 843 l 306 878 l 306 103 q 347 99 325 101 q 404 96 369 97 l 396 1 q 322 -10 353 -7 q 269 -14 292 -14 m 69 599 l 69 694 l 429 694 l 429 599 l 69 599 m 53 351 q 64 399 53 388 q 110 410 75 410 l 419 410 l 419 369 q 409 324 419 335 q 363 313 399 313 l 53 313 l 53 351 z "},"ť":{"ha":583,"x_min":69,"x_max":611,"o":"m 269 -14 q 192 12 218 -14 q 167 90 167 38 l 167 843 l 306 878 l 306 103 q 347 99 325 101 q 404 96 369 97 l 396 1 q 322 -10 353 -7 q 269 -14 292 -14 m 69 599 l 69 694 l 429 694 l 429 599 l 69 599 m 524 631 l 464 649 l 493 785 q 440 808 457 789 q 422 876 422 828 q 444 951 422 931 q 517 972 467 972 q 589 951 567 972 q 611 876 611 931 q 599 794 611 826 q 567 719 588 763 l 524 631 z "},"ţ":{"ha":492,"x_min":69,"x_max":429,"o":"m 269 -14 q 192 12 218 -14 q 167 90 167 38 l 167 843 l 306 878 l 306 103 q 347 99 325 101 q 404 96 369 97 l 396 1 q 322 -10 353 -7 q 269 -14 292 -14 m 69 599 l 69 694 l 429 694 l 429 599 l 69 599 m 194 -239 q 100 -217 149 -239 l 110 -149 l 158 -149 q 205 -139 192 -149 q 218 -104 218 -129 l 218 29 l 246 29 q 305 -33 282 10 q 328 -126 328 -76 q 292 -208 328 -178 q 194 -239 256 -239 z "},"ț":{"ha":492,"x_min":69,"x_max":429,"o":"m 269 -14 q 192 12 218 -14 q 167 90 167 38 l 167 843 l 306 878 l 306 103 q 347 99 325 101 q 404 96 369 97 l 396 1 q 322 -10 353 -7 q 269 -14 292 -14 m 69 599 l 69 694 l 429 694 l 429 599 l 69 599 m 253 -397 l 193 -379 l 222 -243 q 169 -219 186 -239 q 151 -151 151 -200 q 174 -76 151 -97 q 246 -56 196 -56 q 318 -76 296 -56 q 340 -151 340 -97 q 328 -233 340 -201 q 296 -308 317 -265 l 253 -397 z "},"u":{"ha":800,"x_min":118,"x_max":675,"o":"m 675 694 l 675 0 l 611 0 l 574 69 q 452 6 518 26 q 301 -14 386 -14 q 163 22 207 -14 q 118 132 118 57 l 118 694 l 257 694 l 257 93 l 418 93 q 512 110 488 93 q 536 174 536 126 l 536 694 l 675 694 z "},"ú":{"ha":800,"x_min":118,"x_max":675,"o":"m 675 694 l 675 0 l 611 0 l 574 69 q 452 6 518 26 q 301 -14 386 -14 q 163 22 207 -14 q 118 132 118 57 l 118 694 l 257 694 l 257 93 l 418 93 q 512 110 488 93 q 536 174 536 126 l 536 694 l 675 694 m 313 783 l 282 831 l 493 983 q 504 989 500 989 q 515 982 510 989 l 575 908 q 585 892 585 897 q 575 876 585 885 l 538 846 q 526 838 532 840 q 507 832 519 835 l 313 783 z "},"ŭ":{"ha":800,"x_min":118,"x_max":675,"o":"m 675 694 l 675 0 l 611 0 l 574 69 q 452 6 518 26 q 301 -14 386 -14 q 163 22 207 -14 q 118 132 118 57 l 118 694 l 257 694 l 257 93 l 418 93 q 512 110 488 93 q 536 174 536 126 l 536 694 l 675 694 m 400 788 q 298 822 342 788 q 236 938 254 856 l 326 953 q 356 906 335 922 q 400 889 378 889 q 444 906 424 889 q 474 953 465 922 l 564 938 q 501 824 546 861 q 400 788 457 788 z "},"û":{"ha":800,"x_min":118,"x_max":675,"o":"m 675 694 l 675 0 l 611 0 l 574 69 q 452 6 518 26 q 301 -14 386 -14 q 163 22 207 -14 q 118 132 118 57 l 118 694 l 257 694 l 257 93 l 418 93 q 512 110 488 93 q 536 174 536 126 l 536 694 l 675 694 m 285 772 l 236 819 l 374 981 q 388 989 381 989 l 413 989 q 426 981 421 989 l 564 819 l 515 772 l 400 861 l 285 772 z "},"ü":{"ha":800,"x_min":118,"x_max":675,"o":"m 675 694 l 675 0 l 611 0 l 574 69 q 452 6 518 26 q 301 -14 386 -14 q 163 22 207 -14 q 118 132 118 57 l 118 694 l 257 694 l 257 93 l 418 93 q 512 110 488 93 q 536 174 536 126 l 536 694 l 675 694 m 528 799 q 469 817 482 799 q 456 878 456 835 q 469 940 456 922 q 528 958 482 958 q 585 940 572 958 q 599 878 599 922 q 585 817 599 835 q 528 799 572 799 m 274 799 q 215 817 228 799 q 201 878 201 835 q 215 940 201 922 q 274 958 228 958 q 331 940 318 958 q 344 878 344 922 q 331 817 344 835 q 274 799 318 799 z "},"ù":{"ha":800,"x_min":118,"x_max":675,"o":"m 675 694 l 675 0 l 611 0 l 574 69 q 452 6 518 26 q 301 -14 386 -14 q 163 22 207 -14 q 118 132 118 57 l 118 694 l 257 694 l 257 93 l 418 93 q 512 110 488 93 q 536 174 536 126 l 536 694 l 675 694 m 521 769 l 326 818 q 296 832 307 824 l 258 863 q 249 878 249 871 q 258 894 249 883 l 318 968 q 329 975 324 975 q 340 969 333 975 l 551 817 l 521 769 z "},"ű":{"ha":800,"x_min":118,"x_max":719,"o":"m 675 694 l 675 0 l 611 0 l 574 69 q 452 6 518 26 q 301 -14 386 -14 q 163 22 207 -14 q 118 132 118 57 l 118 694 l 257 694 l 257 93 l 418 93 q 512 110 488 93 q 536 174 536 126 l 536 694 l 675 694 m 474 790 l 443 838 l 628 983 q 639 989 635 989 q 644 988 642 989 q 650 982 646 988 l 711 907 q 717 899 714 903 q 719 892 719 896 q 719 888 719 890 q 714 881 718 885 l 672 846 q 661 838 667 842 q 642 832 656 835 l 474 790 m 167 790 l 136 838 l 321 983 q 332 989 328 989 q 337 988 335 989 q 343 982 339 988 l 404 907 q 410 899 407 903 q 413 892 413 896 q 412 888 413 890 q 407 881 411 885 l 365 846 q 354 838 360 842 q 335 832 349 835 l 167 790 z "},"ū":{"ha":800,"x_min":118,"x_max":675,"o":"m 675 694 l 675 0 l 611 0 l 574 69 q 452 6 518 26 q 301 -14 386 -14 q 163 22 207 -14 q 118 132 118 57 l 118 694 l 257 694 l 257 93 l 418 93 q 512 110 488 93 q 536 174 536 126 l 536 694 l 675 694 m 293 814 q 240 828 250 814 q 231 878 231 843 l 231 926 l 507 926 q 559 913 550 926 q 568 864 568 900 l 568 814 l 293 814 z "},"ų":{"ha":800,"x_min":118,"x_max":707,"o":"m 675 694 l 675 0 l 611 0 l 574 69 q 452 6 518 26 q 301 -14 386 -14 q 163 22 207 -14 q 118 132 118 57 l 118 694 l 257 694 l 257 93 l 418 93 q 512 110 488 93 q 536 174 536 126 l 536 694 l 675 694 m 601 -239 q 509 -206 543 -239 q 475 -115 475 -172 q 527 -17 475 -58 q 660 33 579 24 l 674 0 l 646 -6 q 596 -28 607 -15 q 585 -72 585 -40 l 585 -101 q 595 -136 585 -124 q 625 -149 606 -149 l 696 -149 l 707 -215 q 655 -233 681 -226 q 601 -239 629 -239 z "},"ů":{"ha":800,"x_min":118,"x_max":675,"o":"m 675 694 l 675 0 l 611 0 l 574 69 q 452 6 518 26 q 301 -14 386 -14 q 163 22 207 -14 q 118 132 118 57 l 118 694 l 257 694 l 257 93 l 418 93 q 512 110 488 93 q 536 174 536 126 l 536 694 l 675 694 m 400 749 q 294 783 326 749 q 263 886 263 818 q 294 988 263 954 q 400 1022 326 1022 q 505 988 474 1022 q 536 886 536 954 q 505 783 536 818 q 400 749 474 749 m 340 821 l 399 821 q 441 826 425 821 q 457 857 457 831 l 457 950 l 403 950 q 358 945 375 950 q 340 915 340 940 l 340 821 z "},"ũ":{"ha":800,"x_min":118,"x_max":675,"o":"m 675 694 l 675 0 l 611 0 l 574 69 q 452 6 518 26 q 301 -14 386 -14 q 163 22 207 -14 q 118 132 118 57 l 118 694 l 257 694 l 257 93 l 418 93 q 512 110 488 93 q 536 174 536 126 l 536 694 l 675 694 m 429 783 q 405 788 417 783 q 377 805 393 792 q 332 843 361 818 l 240 797 l 201 861 q 287 922 256 901 q 338 951 318 943 q 371 958 357 958 q 394 954 383 958 q 421 938 404 950 q 468 899 438 925 l 560 944 l 599 881 q 519 823 551 844 q 467 792 488 801 q 429 783 446 783 z "},"v":{"ha":639,"x_min":8,"x_max":631,"o":"m 8 694 l 146 694 l 313 118 l 326 118 l 493 694 l 631 694 l 425 0 l 214 0 l 8 694 z "},"w":{"ha":975,"x_min":8,"x_max":967,"o":"m 604 0 l 440 694 l 551 694 l 683 118 l 697 118 l 829 694 l 967 694 l 796 0 l 604 0 m 179 0 l 8 694 l 146 694 l 278 118 l 292 118 l 424 694 l 535 694 l 371 0 l 179 0 z "},"ẃ":{"ha":975,"x_min":8,"x_max":967,"o":"m 604 0 l 440 694 l 551 694 l 683 118 l 697 118 l 829 694 l 967 694 l 796 0 l 604 0 m 179 0 l 8 694 l 146 694 l 278 118 l 292 118 l 424 694 l 535 694 l 371 0 l 179 0 m 400 783 l 369 831 l 581 983 q 592 989 588 989 q 603 982 597 989 l 663 908 q 672 892 672 897 q 663 876 672 885 l 625 846 q 613 838 619 840 q 594 832 607 835 l 400 783 z "},"ŵ":{"ha":975,"x_min":8,"x_max":967,"o":"m 604 0 l 440 694 l 551 694 l 683 118 l 697 118 l 829 694 l 967 694 l 796 0 l 604 0 m 179 0 l 8 694 l 146 694 l 278 118 l 292 118 l 424 694 l 535 694 l 371 0 l 179 0 m 372 772 l 324 819 l 461 981 q 475 989 468 989 l 500 989 q 514 981 508 989 l 651 819 l 603 772 l 488 861 l 372 772 z "},"ẅ":{"ha":975,"x_min":8,"x_max":967,"o":"m 604 0 l 440 694 l 551 694 l 683 118 l 697 118 l 829 694 l 967 694 l 796 0 l 604 0 m 179 0 l 8 694 l 146 694 l 278 118 l 292 118 l 424 694 l 535 694 l 371 0 l 179 0 m 615 799 q 556 817 569 799 q 543 878 543 835 q 556 940 543 922 q 615 958 569 958 q 673 940 660 958 q 686 878 686 922 q 673 817 686 835 q 615 799 660 799 m 361 799 q 302 817 315 799 q 289 878 289 835 q 302 940 289 922 q 361 958 315 958 q 419 940 406 958 q 432 878 432 922 q 419 817 432 835 q 361 799 406 799 z "},"ẁ":{"ha":975,"x_min":8,"x_max":967,"o":"m 604 0 l 440 694 l 551 694 l 683 118 l 697 118 l 829 694 l 967 694 l 796 0 l 604 0 m 179 0 l 8 694 l 146 694 l 278 118 l 292 118 l 424 694 l 535 694 l 371 0 l 179 0 m 608 769 l 414 818 q 383 832 394 824 l 346 863 q 336 878 336 871 q 346 894 336 883 l 406 968 q 417 975 411 975 q 428 969 421 975 l 639 817 l 608 769 z "},"x":{"ha":703,"x_min":36,"x_max":667,"o":"m 518 0 l 43 694 l 192 694 l 667 0 l 518 0 m 36 0 l 283 379 l 365 289 l 183 0 l 36 0 m 411 315 l 331 406 l 513 694 l 660 694 l 411 315 z "},"y":{"ha":625,"x_min":8,"x_max":617,"o":"m 207 42 l 8 694 l 146 694 l 306 160 l 319 160 l 479 694 l 617 694 l 418 42 l 207 42 m 129 -243 q 66 -239 99 -243 q 8 -228 33 -235 l 14 -154 l 110 -142 q 192 -122 163 -135 q 240 -80 222 -108 q 272 0 257 -51 l 285 42 l 418 42 q 348 -128 386 -65 q 258 -217 310 -190 q 129 -243 206 -243 z "},"ý":{"ha":625,"x_min":8,"x_max":617,"o":"m 207 42 l 8 694 l 146 694 l 306 160 l 319 160 l 479 694 l 617 694 l 418 42 l 207 42 m 129 -243 q 66 -239 99 -243 q 8 -228 33 -235 l 14 -154 l 110 -142 q 192 -122 163 -135 q 240 -80 222 -108 q 272 0 257 -51 l 285 42 l 418 42 q 348 -128 386 -65 q 258 -217 310 -190 q 129 -243 206 -243 m 225 783 l 194 831 l 406 983 q 417 989 413 989 q 428 982 422 989 l 488 908 q 497 892 497 897 q 488 876 497 885 l 450 846 q 438 838 444 840 q 419 832 432 835 l 225 783 z "},"ŷ":{"ha":625,"x_min":8,"x_max":617,"o":"m 207 42 l 8 694 l 146 694 l 306 160 l 319 160 l 479 694 l 617 694 l 418 42 l 207 42 m 129 -243 q 66 -239 99 -243 q 8 -228 33 -235 l 14 -154 l 110 -142 q 192 -122 163 -135 q 240 -80 222 -108 q 272 0 257 -51 l 285 42 l 418 42 q 348 -128 386 -65 q 258 -217 310 -190 q 129 -243 206 -243 m 197 772 l 149 819 l 286 981 q 300 989 293 989 l 325 989 q 339 981 333 989 l 476 819 l 428 772 l 313 861 l 197 772 z "},"ÿ":{"ha":625,"x_min":8,"x_max":617,"o":"m 207 42 l 8 694 l 146 694 l 306 160 l 319 160 l 479 694 l 617 694 l 418 42 l 207 42 m 129 -243 q 66 -239 99 -243 q 8 -228 33 -235 l 14 -154 l 110 -142 q 192 -122 163 -135 q 240 -80 222 -108 q 272 0 257 -51 l 285 42 l 418 42 q 348 -128 386 -65 q 258 -217 310 -190 q 129 -243 206 -243 m 440 799 q 381 817 394 799 q 368 878 368 835 q 381 940 368 922 q 440 958 394 958 q 498 940 485 958 q 511 878 511 922 q 498 817 511 835 q 440 799 485 799 m 186 799 q 127 817 140 799 q 114 878 114 835 q 127 940 114 922 q 186 958 140 958 q 244 940 231 958 q 257 878 257 922 q 244 817 257 835 q 186 799 231 799 z "},"ỳ":{"ha":625,"x_min":8,"x_max":617,"o":"m 207 42 l 8 694 l 146 694 l 306 160 l 319 160 l 479 694 l 617 694 l 418 42 l 207 42 m 129 -243 q 66 -239 99 -243 q 8 -228 33 -235 l 14 -154 l 110 -142 q 192 -122 163 -135 q 240 -80 222 -108 q 272 0 257 -51 l 285 42 l 418 42 q 348 -128 386 -65 q 258 -217 310 -190 q 129 -243 206 -243 m 433 769 l 239 818 q 208 832 219 824 l 171 863 q 161 878 161 871 q 171 894 161 883 l 231 968 q 242 975 236 975 q 253 969 246 975 l 464 817 l 433 769 z "},"z":{"ha":657,"x_min":56,"x_max":601,"o":"m 429 586 l 424 594 l 94 594 l 83 694 l 601 694 l 601 618 l 228 108 l 232 100 l 594 100 l 594 0 l 56 0 l 56 76 l 429 586 z "},"ź":{"ha":657,"x_min":56,"x_max":601,"o":"m 429 586 l 424 594 l 94 594 l 83 694 l 601 694 l 601 618 l 228 108 l 232 100 l 594 100 l 594 0 l 56 0 l 56 76 l 429 586 m 269 783 l 239 831 l 450 983 q 461 989 457 989 q 472 982 467 989 l 532 908 q 542 892 542 897 q 532 876 542 885 l 494 846 q 483 838 489 840 q 464 832 476 835 l 269 783 z "},"ž":{"ha":657,"x_min":56,"x_max":601,"o":"m 429 586 l 424 594 l 94 594 l 83 694 l 601 694 l 601 618 l 228 108 l 232 100 l 594 100 l 594 0 l 56 0 l 56 76 l 429 586 m 242 989 l 357 900 l 472 989 l 521 942 l 383 781 q 369 772 378 772 l 344 772 q 331 781 338 772 l 193 942 l 242 989 z "},"ż":{"ha":657,"x_min":56,"x_max":601,"o":"m 429 586 l 424 594 l 94 594 l 83 694 l 601 694 l 601 618 l 228 108 l 232 100 l 594 100 l 594 0 l 56 0 l 56 76 l 429 586 m 358 815 q 290 833 307 815 q 272 899 272 850 q 290 967 272 949 q 358 985 308 985 q 424 967 407 985 q 442 899 442 949 q 425 833 442 850 q 358 815 408 815 z "},"ﬀ":{"ha":925,"x_min":69,"x_max":925,"o":"m 306 0 l 167 0 l 167 686 q 188 838 172 783 q 240 915 204 893 q 335 938 275 938 q 399 934 367 938 q 463 924 431 931 l 454 824 l 306 836 l 306 0 m 417 694 l 417 599 l 69 599 l 69 694 l 417 694 m 768 0 l 629 0 l 629 686 q 651 838 635 783 q 702 915 667 893 q 797 938 738 938 q 861 934 829 938 q 925 924 893 931 l 917 824 l 768 836 l 768 0 m 879 694 l 879 599 l 532 599 l 532 694 l 879 694 z "},"ﬃ":{"ha":1314,"x_min":69,"x_max":1204,"o":"m 306 0 l 167 0 l 167 686 q 188 838 172 783 q 240 915 204 893 q 335 938 275 938 q 399 934 367 938 q 463 924 431 931 l 454 824 l 306 836 l 306 0 m 417 694 l 417 599 l 69 599 l 69 694 l 417 694 m 768 0 l 629 0 l 629 686 q 651 838 635 783 q 702 915 667 893 q 797 938 738 938 q 861 934 829 938 q 925 924 893 931 l 917 824 l 768 836 l 768 0 m 879 694 l 879 599 l 532 599 l 532 694 l 879 694 m 1050 685 l 1189 706 l 1189 0 l 1050 0 l 1050 685 m 1121 815 q 1052 833 1069 815 q 1035 899 1035 850 q 1053 967 1035 949 q 1121 985 1071 985 q 1187 967 1169 985 q 1204 899 1204 949 q 1188 833 1204 850 q 1121 815 1171 815 z "},"ﬄ":{"ha":1301,"x_min":69,"x_max":1246,"o":"m 306 0 l 167 0 l 167 686 q 188 838 172 783 q 240 915 204 893 q 335 938 275 938 q 399 934 367 938 q 463 924 431 931 l 454 824 l 306 836 l 306 0 m 417 694 l 417 599 l 69 599 l 69 694 l 417 694 m 768 0 l 629 0 l 629 686 q 651 838 635 783 q 702 915 667 893 q 797 938 738 938 q 861 934 829 938 q 925 924 893 931 l 917 824 l 768 836 l 768 0 m 879 694 l 879 599 l 532 599 l 532 694 l 879 694 m 1182 103 q 1212 99 1194 101 q 1246 96 1229 97 l 1238 1 q 1188 -10 1210 -7 q 1146 -14 1167 -14 q 1069 12 1094 -14 q 1043 90 1043 38 l 1043 903 l 1182 924 l 1182 103 z "},"ﬁ":{"ha":851,"x_min":69,"x_max":742,"o":"m 306 0 l 167 0 l 167 686 q 188 838 172 783 q 240 915 204 893 q 335 938 275 938 q 399 934 367 938 q 463 924 431 931 l 454 824 l 306 836 l 306 0 m 417 694 l 417 599 l 69 599 l 69 694 l 417 694 m 588 685 l 726 706 l 726 0 l 588 0 l 588 685 m 658 815 q 590 833 607 815 q 572 899 572 850 q 590 967 572 949 q 658 985 608 985 q 724 967 707 985 q 742 899 742 949 q 725 833 742 850 q 658 815 708 815 z "},"ﬂ":{"ha":839,"x_min":69,"x_max":783,"o":"m 306 0 l 167 0 l 167 686 q 188 838 172 783 q 240 915 204 893 q 335 938 275 938 q 399 934 367 938 q 463 924 431 931 l 454 824 l 306 836 l 306 0 m 417 694 l 417 599 l 69 599 l 69 694 l 417 694 m 719 103 q 749 99 732 101 q 783 96 767 97 l 775 1 q 726 -10 747 -7 q 683 -14 704 -14 q 606 12 632 -14 q 581 90 581 38 l 581 903 l 719 924 l 719 103 z "},"ª":{"ha":550,"x_min":39,"x_max":490,"o":"m 208 475 q 78 513 118 475 q 39 639 39 551 q 50 726 39 693 q 94 776 61 758 q 189 799 126 793 q 353 806 251 806 l 403 806 l 403 738 l 235 738 q 166 725 185 738 q 147 676 147 713 l 147 565 l 283 565 q 351 578 333 565 q 369 625 369 590 l 369 935 q 322 942 347 940 q 265 944 297 944 q 176 938 224 944 q 79 919 129 931 l 64 1006 q 168 1029 107 1021 q 285 1038 229 1038 q 444 1003 397 1038 q 490 882 490 968 l 489 486 l 433 486 l 401 540 q 208 475 324 475 m 63 343 q 75 390 63 379 q 125 401 88 401 l 465 401 l 465 361 q 453 315 465 326 q 403 304 442 304 l 63 304 l 63 343 z "},"º":{"ha":694,"x_min":97,"x_max":597,"o":"m 347 489 q 224 502 272 489 q 147 547 175 515 q 108 635 119 579 q 97 778 97 692 q 108 920 97 864 q 147 1008 119 976 q 224 1053 175 1040 q 347 1067 272 1067 q 472 1053 424 1067 q 548 1008 521 1040 q 586 920 575 976 q 597 778 597 864 q 586 635 597 692 q 548 547 575 579 q 472 502 521 515 q 347 489 422 489 m 221 586 l 419 586 q 463 592 451 586 q 474 614 474 597 l 474 969 l 275 969 q 233 964 244 969 q 221 942 221 958 l 221 586 m 128 344 q 142 392 128 381 q 196 403 156 403 l 568 403 l 568 363 q 555 317 568 328 q 500 306 542 306 l 128 306 l 128 344 z "},"Δ":{"ha":921,"x_min":69,"x_max":851,"o":"m 546 868 l 851 72 l 825 0 l 96 0 l 69 72 l 376 868 l 546 868 m 629 111 q 669 143 669 111 q 669 152 669 147 q 667 163 669 157 l 456 714 l 435 714 l 203 111 l 629 111 z "},"Ω":{"ha":925,"x_min":63,"x_max":863,"o":"m 231 782 l 231 379 q 246 299 231 325 q 288 267 261 274 q 351 260 315 260 l 331 0 l 63 0 l 63 88 l 243 99 l 251 193 q 167 224 200 204 q 116 281 135 244 q 90 375 97 317 q 82 521 82 433 q 99 707 82 635 q 159 819 117 779 q 275 874 201 858 q 463 889 349 889 q 650 874 576 889 q 766 819 724 858 q 826 707 808 779 q 843 521 843 635 q 835 375 843 433 q 809 281 828 317 q 758 224 790 244 q 674 193 725 204 l 682 99 l 863 88 l 863 0 l 594 0 l 574 260 l 694 260 l 694 694 q 681 753 694 735 q 645 777 668 772 q 592 782 622 782 l 231 782 z "},"π":{"ha":857,"x_min":111,"x_max":771,"o":"m 136 0 l 178 585 l 111 601 l 111 694 l 656 694 q 664 744 663 714 l 771 735 q 763 634 771 668 q 732 588 756 600 q 663 576 708 576 l 389 576 q 340 563 358 576 q 318 524 321 550 l 236 0 l 136 0 m 654 -10 q 577 16 603 -10 q 551 94 551 42 l 551 611 l 690 611 l 690 107 q 722 103 707 106 q 754 100 738 101 l 746 6 q 692 -6 714 -3 q 654 -10 671 -10 z "},"ء":{"ha":588,"x_min":28,"x_max":560,"o":"m 351 231 l 560 286 l 560 168 l 28 25 l 28 143 l 167 181 q 126 365 126 242 q 216 611 126 535 q 503 688 306 688 l 503 563 q 363 548 432 563 q 244 506 293 533 l 244 294 q 267 227 244 240 q 351 231 289 214 z "},"ا":{"ha":389,"x_min":139,"x_max":250,"o":"m 139 0 l 139 875 l 250 875 l 250 0 l 139 0 z "},"ﺎ":{"ha":389,"x_min":139,"x_max":417,"o":"m 139 0 l 139 875 l 250 875 l 250 125 l 417 125 l 417 0 l 139 0 z "},"أ":{"ha":389,"x_min":36,"x_max":353,"o":"m 139 0 l 139 653 l 250 653 l 250 0 l 139 0 m 233 919 l 353 951 l 353 888 l 36 803 l 36 867 l 97 883 q 85 926 89 901 q 81 986 81 950 q 110 1106 81 1064 q 194 1164 140 1147 q 319 1181 249 1181 l 319 1103 q 240 1094 281 1103 q 171 1069 200 1086 l 169 947 q 184 916 169 922 q 233 919 199 910 z "},"ﺄ":{"ha":389,"x_min":36,"x_max":417,"o":"m 139 0 l 139 653 l 250 653 l 250 125 l 417 125 l 417 0 l 139 0 m 233 919 l 353 951 l 353 888 l 36 803 l 36 867 l 97 883 q 85 926 89 901 q 81 986 81 950 q 110 1106 81 1064 q 194 1164 140 1147 q 319 1181 249 1181 l 319 1103 q 240 1094 281 1103 q 171 1069 200 1086 l 169 947 q 184 916 169 922 q 233 919 199 910 z "},"إ":{"ha":389,"x_min":36,"x_max":353,"o":"m 139 0 l 139 875 l 250 875 l 250 0 l 139 0 m 233 -371 l 353 -339 l 353 -403 l 36 -487 l 36 -424 l 97 -407 q 85 -365 89 -389 q 81 -304 81 -340 q 110 -185 81 -226 q 194 -126 140 -143 q 319 -110 249 -110 l 319 -187 q 240 -196 281 -187 q 171 -221 200 -204 l 169 -343 q 184 -374 169 -368 q 233 -371 199 -381 z "},"ﺈ":{"ha":389,"x_min":36,"x_max":417,"o":"m 139 0 l 139 875 l 250 875 l 250 125 l 417 125 l 417 0 l 139 0 m 233 -371 l 353 -339 l 353 -403 l 36 -487 l 36 -424 l 97 -407 q 85 -365 89 -389 q 81 -304 81 -340 q 110 -185 81 -226 q 194 -126 140 -143 q 319 -110 249 -110 l 319 -187 q 240 -196 281 -187 q 171 -221 200 -204 l 169 -343 q 184 -374 169 -368 q 233 -371 199 -381 z "},"آ":{"ha":389,"x_min":33,"x_max":350,"o":"m 139 0 l 139 653 l 250 653 l 250 0 l 139 0 m 217 849 q 185 859 199 849 q 135 904 171 869 l 53 867 l 33 906 q 101 952 76 936 q 142 974 126 968 q 168 981 157 981 q 197 970 183 981 q 249 924 210 960 l 331 961 l 350 922 q 288 878 313 894 q 246 856 263 863 q 217 849 229 849 z "},"ﺂ":{"ha":389,"x_min":33,"x_max":417,"o":"m 139 0 l 139 653 l 250 653 l 250 125 l 417 125 l 417 0 l 139 0 m 217 849 q 185 859 199 849 q 135 904 171 869 l 53 867 l 33 906 q 101 952 76 936 q 142 974 126 968 q 168 981 157 981 q 197 970 183 981 q 249 924 210 960 l 331 961 l 350 922 q 288 878 313 894 q 246 856 263 863 q 217 849 229 849 z "},"ٱ":{"ha":389,"x_min":-24,"x_max":375,"o":"m 139 0 l 139 653 l 250 653 l 250 0 l 139 0 m 18 860 q 70 1063 18 988 q 232 1139 122 1139 q 343 1115 311 1139 q 375 1035 375 1092 l 375 860 l 292 860 l 292 1068 q 232 1075 272 1075 q 133 1023 164 1075 q 101 860 101 971 l 18 860 m -24 819 l -24 882 l 375 882 l 375 819 l -24 819 z "},"ﭑ":{"ha":389,"x_min":-24,"x_max":417,"o":"m 139 0 l 139 653 l 250 653 l 250 125 l 417 125 l 417 0 l 139 0 m 18 860 q 70 1063 18 988 q 232 1139 122 1139 q 343 1115 311 1139 q 375 1035 375 1092 l 375 860 l 292 860 l 292 1068 q 232 1075 272 1075 q 133 1023 164 1075 q 101 860 101 971 l 18 860 m -24 819 l -24 882 l 375 882 l 375 819 l -24 819 z "},"ٮ":{"ha":1228,"x_min":97,"x_max":1089,"o":"m 292 0 q 178 28 221 0 q 116 119 135 56 q 97 286 97 182 q 108 417 97 349 q 136 533 118 486 l 242 515 q 217 407 225 460 q 208 308 208 354 q 213 208 208 251 q 231 125 218 164 l 978 125 l 978 653 l 1089 653 l 1089 0 l 292 0 z "},"ب":{"ha":1228,"x_min":97,"x_max":1089,"o":"m 292 0 q 178 28 221 0 q 116 119 135 56 q 97 286 97 182 q 108 417 97 349 q 136 533 118 486 l 242 515 q 217 407 225 460 q 208 308 208 354 q 213 208 208 251 q 231 125 218 164 l 978 125 l 978 653 l 1089 653 l 1089 0 l 292 0 m 610 -278 q 578 -265 596 -278 q 547 -234 560 -253 q 533 -201 533 -215 q 547 -169 533 -186 q 578 -138 560 -151 q 610 -125 596 -125 q 642 -138 625 -125 q 673 -169 660 -151 q 686 -201 686 -186 q 673 -233 686 -215 q 642 -265 660 -251 q 610 -278 624 -278 z "},"ﺐ":{"ha":1228,"x_min":97,"x_max":1256,"o":"m 1075 125 l 1256 125 l 1256 0 l 1075 0 l 1075 125 m 292 0 q 178 28 221 0 q 116 119 135 56 q 97 286 97 182 q 108 417 97 349 q 136 533 118 486 l 242 515 q 217 407 225 460 q 208 308 208 354 q 213 208 208 251 q 231 125 218 164 l 978 125 l 978 653 l 1089 653 l 1089 0 l 292 0 m 610 -278 q 578 -265 596 -278 q 547 -234 560 -253 q 533 -201 533 -215 q 547 -169 533 -186 q 578 -138 560 -151 q 610 -125 596 -125 q 642 -138 625 -125 q 673 -169 660 -151 q 686 -201 686 -186 q 673 -233 686 -215 q 642 -265 660 -251 q 610 -278 624 -278 z "},"ﺒ":{"ha":444,"x_min":-28,"x_max":472,"o":"m 306 125 l 472 125 l 472 0 l -28 0 l -28 125 l 194 125 l 194 653 l 306 653 l 306 125 m 250 -264 q 218 -251 236 -264 q 187 -220 200 -239 q 174 -187 174 -201 q 187 -155 174 -172 q 218 -124 200 -137 q 250 -111 236 -111 q 283 -124 265 -111 q 313 -155 300 -137 q 326 -187 326 -172 q 313 -219 326 -201 q 282 -251 300 -237 q 250 -264 264 -264 z "},"ﺑ":{"ha":444,"x_min":-28,"x_max":326,"o":"m -28 0 l -28 125 l 194 125 l 194 653 l 306 653 l 306 0 l -28 0 m 250 -264 q 218 -251 236 -264 q 187 -220 200 -239 q 174 -187 174 -201 q 187 -155 174 -172 q 218 -124 200 -137 q 250 -111 236 -111 q 283 -124 265 -111 q 313 -155 300 -137 q 326 -187 326 -172 q 313 -219 326 -201 q 282 -251 300 -237 q 250 -264 264 -264 z "},"پ":{"ha":1228,"x_min":97,"x_max":1089,"o":"m 292 0 q 178 28 221 0 q 116 119 135 56 q 97 286 97 182 q 108 417 97 349 q 136 533 118 486 l 242 515 q 217 407 225 460 q 208 308 208 354 q 213 208 208 251 q 231 125 218 164 l 978 125 l 978 653 l 1089 653 l 1089 0 l 292 0 m 608 -486 q 576 -474 594 -486 q 545 -442 558 -461 q 532 -410 532 -424 q 545 -377 532 -394 q 576 -347 558 -360 q 608 -333 594 -333 q 641 -347 624 -333 q 672 -377 658 -360 q 685 -410 685 -394 q 672 -442 685 -424 q 640 -473 658 -460 q 608 -486 622 -486 m 508 -278 q 476 -265 494 -278 q 445 -234 458 -253 q 432 -201 432 -215 q 445 -169 432 -186 q 476 -138 458 -151 q 508 -125 494 -125 q 541 -138 524 -125 q 572 -169 558 -151 q 585 -201 585 -186 q 572 -233 585 -215 q 540 -265 558 -251 q 508 -278 522 -278 m 708 -278 q 676 -265 694 -278 q 645 -234 658 -253 q 632 -201 632 -215 q 645 -169 632 -186 q 676 -138 658 -151 q 708 -125 694 -125 q 741 -138 724 -125 q 772 -169 758 -151 q 785 -201 785 -186 q 772 -233 785 -215 q 740 -265 758 -251 q 708 -278 722 -278 z "},"ﭗ":{"ha":1228,"x_min":97,"x_max":1256,"o":"m 1075 125 l 1256 125 l 1256 0 l 1075 0 l 1075 125 m 292 0 q 178 28 221 0 q 116 119 135 56 q 97 286 97 182 q 108 417 97 349 q 136 533 118 486 l 242 515 q 217 407 225 460 q 208 308 208 354 q 213 208 208 251 q 231 125 218 164 l 978 125 l 978 653 l 1089 653 l 1089 0 l 292 0 m 608 -486 q 576 -474 594 -486 q 545 -442 558 -461 q 532 -410 532 -424 q 545 -377 532 -394 q 576 -347 558 -360 q 608 -333 594 -333 q 641 -347 624 -333 q 672 -377 658 -360 q 685 -410 685 -394 q 672 -442 685 -424 q 640 -473 658 -460 q 608 -486 622 -486 m 508 -278 q 476 -265 494 -278 q 445 -234 458 -253 q 432 -201 432 -215 q 445 -169 432 -186 q 476 -138 458 -151 q 508 -125 494 -125 q 541 -138 524 -125 q 572 -169 558 -151 q 585 -201 585 -186 q 572 -233 585 -215 q 540 -265 558 -251 q 508 -278 522 -278 m 708 -278 q 676 -265 694 -278 q 645 -234 658 -253 q 632 -201 632 -215 q 645 -169 632 -186 q 676 -138 658 -151 q 708 -125 694 -125 q 741 -138 724 -125 q 772 -169 758 -151 q 785 -201 785 -186 q 772 -233 785 -215 q 740 -265 758 -251 q 708 -278 722 -278 z "},"ﭙ":{"ha":444,"x_min":-28,"x_max":472,"o":"m 306 125 l 472 125 l 472 0 l -28 0 l -28 125 l 194 125 l 194 653 l 306 653 l 306 125 m 249 -472 q 217 -460 235 -472 q 185 -428 199 -447 q 172 -396 172 -410 q 185 -363 172 -381 q 217 -333 199 -346 q 249 -319 235 -319 q 281 -333 264 -319 q 312 -363 299 -346 q 325 -396 325 -381 q 312 -428 325 -410 q 281 -459 299 -446 q 249 -472 263 -472 m 149 -264 q 117 -251 135 -264 q 85 -220 99 -239 q 72 -187 72 -201 q 85 -155 72 -172 q 117 -124 99 -137 q 149 -111 135 -111 q 181 -124 164 -111 q 212 -155 199 -137 q 225 -187 225 -172 q 212 -219 225 -201 q 181 -251 199 -237 q 149 -264 163 -264 m 349 -264 q 317 -251 335 -264 q 285 -220 299 -239 q 272 -187 272 -201 q 285 -155 272 -172 q 317 -124 299 -137 q 349 -111 335 -111 q 381 -124 364 -111 q 412 -155 399 -137 q 425 -187 425 -172 q 412 -219 425 -201 q 381 -251 399 -237 q 349 -264 363 -264 z "},"ﭘ":{"ha":444,"x_min":-28,"x_max":338,"o":"m -28 0 l -28 125 l 194 125 l 194 653 l 306 653 l 306 0 l -28 0 m 161 -453 q 129 -440 147 -453 q 98 -409 111 -428 q 85 -376 85 -390 q 98 -344 85 -361 q 129 -313 111 -326 q 161 -300 147 -300 q 194 -313 176 -300 q 224 -344 211 -326 q 238 -376 238 -361 q 224 -408 238 -390 q 193 -440 211 -426 q 161 -453 175 -453 m 61 -244 q 29 -232 47 -244 q -2 -201 11 -219 q -15 -168 -15 -182 q -2 -135 -15 -153 q 29 -105 11 -118 q 61 -92 47 -92 q 94 -105 76 -92 q 124 -135 111 -118 q 138 -168 138 -153 q 124 -200 138 -182 q 93 -231 111 -218 q 61 -244 75 -244 m 261 -244 q 229 -232 247 -244 q 198 -201 211 -219 q 185 -168 185 -182 q 198 -135 185 -153 q 229 -105 211 -118 q 261 -92 247 -92 q 294 -105 276 -92 q 324 -135 311 -118 q 338 -168 338 -153 q 324 -200 338 -182 q 293 -231 311 -218 q 261 -244 275 -244 z "},"ت":{"ha":1228,"x_min":97,"x_max":1089,"o":"m 292 0 q 178 28 221 0 q 116 119 135 56 q 97 286 97 182 q 108 417 97 349 q 136 533 118 486 l 242 515 q 217 407 225 460 q 208 308 208 354 q 213 208 208 251 q 231 125 218 164 l 978 125 l 978 653 l 1089 653 l 1089 0 l 292 0 m 510 681 q 478 693 496 681 q 447 724 460 706 q 433 757 433 743 q 447 790 433 772 q 478 820 460 807 q 510 833 496 833 q 542 820 525 833 q 573 790 560 807 q 586 757 586 772 q 573 725 586 743 q 542 694 560 707 q 510 681 524 681 m 710 681 q 678 693 696 681 q 647 724 660 706 q 633 757 633 743 q 647 790 633 772 q 678 820 660 807 q 710 833 696 833 q 742 820 725 833 q 773 790 760 807 q 786 757 786 772 q 773 725 786 743 q 742 694 760 707 q 710 681 724 681 z "},"ﺖ":{"ha":1228,"x_min":97,"x_max":1256,"o":"m 1075 125 l 1256 125 l 1256 0 l 1075 0 l 1075 125 m 292 0 q 178 28 221 0 q 116 119 135 56 q 97 286 97 182 q 108 417 97 349 q 136 533 118 486 l 242 515 q 217 407 225 460 q 208 308 208 354 q 213 208 208 251 q 231 125 218 164 l 978 125 l 978 653 l 1089 653 l 1089 0 l 292 0 m 510 681 q 478 693 496 681 q 447 724 460 706 q 433 757 433 743 q 447 790 433 772 q 478 820 460 807 q 510 833 496 833 q 542 820 525 833 q 573 790 560 807 q 586 757 586 772 q 573 725 586 743 q 542 694 560 707 q 510 681 524 681 m 710 681 q 678 693 696 681 q 647 724 660 706 q 633 757 633 743 q 647 790 633 772 q 678 820 660 807 q 710 833 696 833 q 742 820 725 833 q 773 790 760 807 q 786 757 786 772 q 773 725 786 743 q 742 694 760 707 q 710 681 724 681 z "},"ﺘ":{"ha":444,"x_min":-28,"x_max":472,"o":"m 306 125 l 472 125 l 472 0 l -28 0 l -28 125 l 194 125 l 194 653 l 306 653 l 306 125 m 150 819 q 118 832 136 819 q 87 863 100 844 q 74 896 74 882 q 87 928 74 911 q 118 959 100 946 q 150 972 136 972 q 183 959 165 972 q 213 928 200 946 q 226 896 226 911 q 213 864 226 882 q 182 833 200 846 q 150 819 164 819 m 350 819 q 318 832 336 819 q 287 863 300 844 q 274 896 274 882 q 287 928 274 911 q 318 959 300 946 q 350 972 336 972 q 383 959 365 972 q 413 928 400 946 q 426 896 426 911 q 413 864 426 882 q 382 833 400 846 q 350 819 364 819 z "},"ﺗ":{"ha":444,"x_min":-28,"x_max":426,"o":"m -28 0 l -28 125 l 194 125 l 194 653 l 306 653 l 306 0 l -28 0 m 150 819 q 118 832 136 819 q 87 863 100 844 q 74 896 74 882 q 87 928 74 911 q 118 959 100 946 q 150 972 136 972 q 183 959 165 972 q 213 928 200 946 q 226 896 226 911 q 213 864 226 882 q 182 833 200 846 q 150 819 164 819 m 350 819 q 318 832 336 819 q 287 863 300 844 q 274 896 274 882 q 287 928 274 911 q 318 959 300 946 q 350 972 336 972 q 383 959 365 972 q 413 928 400 946 q 426 896 426 911 q 413 864 426 882 q 382 833 400 846 q 350 819 364 819 z "},"ث":{"ha":1228,"x_min":97,"x_max":1089,"o":"m 292 0 q 178 28 221 0 q 116 119 135 56 q 97 286 97 182 q 108 417 97 349 q 136 533 118 486 l 242 515 q 217 407 225 460 q 208 308 208 354 q 213 208 208 251 q 231 125 218 164 l 978 125 l 978 653 l 1089 653 l 1089 0 l 292 0 m 510 681 q 478 693 496 681 q 447 724 460 706 q 433 757 433 743 q 447 790 433 772 q 478 820 460 807 q 510 833 496 833 q 542 820 525 833 q 573 790 560 807 q 586 757 586 772 q 573 725 586 743 q 542 694 560 707 q 510 681 524 681 m 710 681 q 678 693 696 681 q 647 724 660 706 q 633 757 633 743 q 647 790 633 772 q 678 820 660 807 q 710 833 696 833 q 742 820 725 833 q 773 790 760 807 q 786 757 786 772 q 773 725 786 743 q 742 694 760 707 q 710 681 724 681 m 610 889 q 578 901 596 889 q 547 933 560 914 q 533 965 533 951 q 547 998 533 981 q 578 1028 560 1015 q 610 1042 596 1042 q 642 1028 625 1042 q 673 998 660 1015 q 686 965 686 981 q 673 933 686 951 q 642 902 660 915 q 610 889 624 889 z "},"ﺚ":{"ha":1228,"x_min":97,"x_max":1256,"o":"m 1075 125 l 1256 125 l 1256 0 l 1075 0 l 1075 125 m 292 0 q 178 28 221 0 q 116 119 135 56 q 97 286 97 182 q 108 417 97 349 q 136 533 118 486 l 242 515 q 217 407 225 460 q 208 308 208 354 q 213 208 208 251 q 231 125 218 164 l 978 125 l 978 653 l 1089 653 l 1089 0 l 292 0 m 510 681 q 478 693 496 681 q 447 724 460 706 q 433 757 433 743 q 447 790 433 772 q 478 820 460 807 q 510 833 496 833 q 542 820 525 833 q 573 790 560 807 q 586 757 586 772 q 573 725 586 743 q 542 694 560 707 q 510 681 524 681 m 710 681 q 678 693 696 681 q 647 724 660 706 q 633 757 633 743 q 647 790 633 772 q 678 820 660 807 q 710 833 696 833 q 742 820 725 833 q 773 790 760 807 q 786 757 786 772 q 773 725 786 743 q 742 694 760 707 q 710 681 724 681 m 610 889 q 578 901 596 889 q 547 933 560 914 q 533 965 533 951 q 547 998 533 981 q 578 1028 560 1015 q 610 1042 596 1042 q 642 1028 625 1042 q 673 998 660 1015 q 686 965 686 981 q 673 933 686 951 q 642 902 660 915 q 610 889 624 889 z "},"ﺜ":{"ha":444,"x_min":-28,"x_max":472,"o":"m 306 125 l 472 125 l 472 0 l -28 0 l -28 125 l 194 125 l 194 653 l 306 653 l 306 125 m 150 819 q 118 832 136 819 q 87 863 100 844 q 74 896 74 882 q 87 928 74 911 q 118 959 100 946 q 150 972 136 972 q 183 959 165 972 q 213 928 200 946 q 226 896 226 911 q 213 864 226 882 q 182 833 200 846 q 150 819 164 819 m 350 819 q 318 832 336 819 q 287 863 300 844 q 274 896 274 882 q 287 928 274 911 q 318 959 300 946 q 350 972 336 972 q 383 959 365 972 q 413 928 400 946 q 426 896 426 911 q 413 864 426 882 q 382 833 400 846 q 350 819 364 819 m 250 1028 q 218 1040 236 1028 q 187 1072 200 1053 q 174 1104 174 1090 q 187 1137 174 1119 q 218 1167 200 1154 q 250 1181 236 1181 q 283 1167 265 1181 q 313 1137 300 1154 q 326 1104 326 1119 q 313 1072 326 1090 q 282 1041 300 1054 q 250 1028 264 1028 z "},"ﺛ":{"ha":444,"x_min":-28,"x_max":426,"o":"m -28 0 l -28 125 l 194 125 l 194 653 l 306 653 l 306 0 l -28 0 m 150 819 q 118 832 136 819 q 87 863 100 844 q 74 896 74 882 q 87 928 74 911 q 118 959 100 946 q 150 972 136 972 q 183 959 165 972 q 213 928 200 946 q 226 896 226 911 q 213 864 226 882 q 182 833 200 846 q 150 819 164 819 m 350 819 q 318 832 336 819 q 287 863 300 844 q 274 896 274 882 q 287 928 274 911 q 318 959 300 946 q 350 972 336 972 q 383 959 365 972 q 413 928 400 946 q 426 896 426 911 q 413 864 426 882 q 382 833 400 846 q 350 819 364 819 m 250 1028 q 218 1040 236 1028 q 187 1072 200 1053 q 174 1104 174 1090 q 187 1137 174 1119 q 218 1167 200 1154 q 250 1181 236 1181 q 283 1167 265 1181 q 313 1137 300 1154 q 326 1104 326 1119 q 313 1072 326 1090 q 282 1041 300 1054 q 250 1028 264 1028 z "},"ٹ":{"ha":1228,"x_min":97,"x_max":1089,"o":"m 292 0 q 178 28 221 0 q 116 119 135 56 q 97 286 97 182 q 108 417 97 349 q 136 533 118 486 l 242 515 q 217 407 225 460 q 208 308 208 354 q 213 208 208 251 q 231 125 218 164 l 978 125 l 978 653 l 1089 653 l 1089 0 l 292 0 m 433 735 l 433 1060 l 517 1060 l 517 893 q 578 951 540 931 q 679 972 617 972 q 766 949 742 972 q 790 868 790 926 l 790 735 l 707 735 l 707 897 q 680 906 696 903 q 647 908 664 908 q 548 867 579 908 q 517 735 517 825 l 433 735 m 392 681 l 392 743 l 790 743 l 790 681 l 392 681 z "},"ﭧ":{"ha":1228,"x_min":97,"x_max":1256,"o":"m 1075 125 l 1256 125 l 1256 0 l 1075 0 l 1075 125 m 292 0 q 178 28 221 0 q 116 119 135 56 q 97 286 97 182 q 108 417 97 349 q 136 533 118 486 l 242 515 q 217 407 225 460 q 208 308 208 354 q 213 208 208 251 q 231 125 218 164 l 978 125 l 978 653 l 1089 653 l 1089 0 l 292 0 m 433 735 l 433 1060 l 517 1060 l 517 893 q 578 951 540 931 q 679 972 617 972 q 766 949 742 972 q 790 868 790 926 l 790 735 l 707 735 l 707 897 q 680 906 696 903 q 647 908 664 908 q 548 867 579 908 q 517 735 517 825 l 433 735 m 392 681 l 392 743 l 790 743 l 790 681 l 392 681 z "},"ﭩ":{"ha":444,"x_min":-28,"x_max":472,"o":"m 306 125 l 472 125 l 472 0 l -28 0 l -28 125 l 194 125 l 194 653 l 306 653 l 306 125 m 74 874 l 74 1199 l 157 1199 l 157 1032 q 219 1090 181 1069 q 319 1111 257 1111 q 406 1088 382 1111 q 431 1007 431 1065 l 431 874 l 347 874 l 347 1036 q 320 1044 336 1042 q 288 1047 304 1047 q 188 1006 219 1047 q 157 874 157 964 l 74 874 m 32 819 l 32 882 l 431 882 l 431 819 l 32 819 z "},"ﭨ":{"ha":444,"x_min":-28,"x_max":431,"o":"m -28 0 l -28 125 l 194 125 l 194 653 l 306 653 l 306 0 l -28 0 m 74 874 l 74 1199 l 157 1199 l 157 1032 q 219 1090 181 1069 q 319 1111 257 1111 q 406 1088 382 1111 q 431 1007 431 1065 l 431 874 l 347 874 l 347 1036 q 320 1044 336 1042 q 288 1047 304 1047 q 188 1006 219 1047 q 157 874 157 964 l 74 874 m 32 819 l 32 882 l 431 882 l 431 819 l 32 819 z "},"ج":{"ha":771,"x_min":71,"x_max":771,"o":"m 346 -385 q 207 -372 261 -385 q 124 -325 153 -358 q 83 -230 94 -292 q 71 -72 71 -168 q 132 171 71 79 q 330 303 193 263 q 693 344 467 344 l 771 233 q 431 210 558 233 q 246 136 303 188 q 189 -1 189 85 l 189 -247 q 272 -256 225 -253 q 385 -260 319 -260 q 489 -253 436 -260 q 619 -229 542 -246 l 636 -346 q 508 -374 585 -364 q 346 -385 432 -385 m 556 357 q 426 497 511 451 q 208 542 342 542 q 148 540 176 542 q 93 536 119 539 l 75 658 q 152 665 115 663 q 222 667 189 667 q 438 634 349 667 q 590 531 528 601 q 693 344 651 460 l 771 344 l 771 233 q 631 260 678 233 q 556 357 583 288 m 428 -94 q 396 -82 414 -94 q 365 -51 378 -69 q 351 -18 351 -32 q 365 15 351 -3 q 396 45 378 32 q 428 58 414 58 q 460 45 443 58 q 491 15 478 32 q 504 -18 504 -3 q 491 -50 504 -32 q 460 -81 478 -68 q 428 -94 442 -94 z "},"ﺞ":{"ha":794,"x_min":71,"x_max":822,"o":"m 346 -385 q 202 -370 257 -385 q 119 -320 147 -356 q 81 -224 90 -285 q 71 -72 71 -164 q 131 169 71 81 q 312 298 190 258 q 617 343 433 338 l 646 246 q 394 215 496 240 q 240 138 292 190 q 189 -1 189 86 l 189 -247 q 276 -257 228 -254 q 385 -260 325 -260 q 490 -253 438 -260 q 619 -229 543 -246 l 636 -346 q 505 -374 582 -364 q 346 -385 428 -385 m 739 125 l 822 125 l 822 0 l 744 0 q 679 19 703 0 q 640 78 656 38 l 544 328 q 469 455 511 408 q 366 522 428 501 q 208 542 304 542 q 153 540 182 542 q 93 536 125 539 l 75 658 q 152 665 115 663 q 222 667 189 667 q 419 637 339 667 q 553 543 499 607 q 644 375 607 479 l 739 125 m 421 -115 q 389 -103 407 -115 q 358 -72 371 -90 q 344 -39 344 -53 q 358 -6 344 -24 q 389 24 371 11 q 421 38 407 38 q 453 24 436 38 q 484 -6 471 11 q 497 -39 497 -24 q 484 -71 497 -53 q 453 -102 471 -89 q 421 -115 435 -115 z "},"ﺠ":{"ha":794,"x_min":-28,"x_max":822,"o":"m 739 125 l 822 125 l 822 0 l 744 0 q 679 19 703 0 q 640 78 656 38 l 544 328 q 469 455 511 408 q 366 522 428 501 q 208 542 304 542 q 153 540 182 542 q 93 536 125 539 l 75 658 q 152 665 115 663 q 222 667 189 667 q 419 637 339 667 q 553 543 499 607 q 644 375 607 479 l 739 125 m 550 368 l 653 324 q 590 195 628 254 q 499 92 551 136 q 380 24 447 49 q 226 0 313 0 l -28 0 l -28 125 l 272 125 q 373 147 328 125 q 452 206 418 169 q 510 284 486 242 q 550 368 535 326 m 368 -264 q 336 -251 354 -264 q 305 -220 318 -239 q 292 -187 292 -201 q 305 -155 292 -172 q 336 -124 318 -137 q 368 -111 354 -111 q 401 -124 383 -111 q 431 -155 418 -137 q 444 -187 444 -172 q 431 -219 444 -201 q 400 -251 418 -237 q 368 -264 382 -264 z "},"ﺟ":{"ha":771,"x_min":-28,"x_max":771,"o":"m 643 375 l 771 375 l 771 250 l 649 250 q 583 269 607 250 q 544 328 560 288 q 474 456 515 410 q 368 522 432 503 q 208 542 304 542 q 153 540 182 542 q 93 536 125 539 l 75 658 q 152 665 115 663 q 222 667 189 667 q 418 637 339 667 q 551 543 497 607 q 643 375 606 479 m 550 368 l 653 324 q 586 195 626 254 q 490 92 546 136 q 363 24 435 49 q 199 0 290 0 l -28 0 l -28 125 l 231 125 q 346 147 294 125 q 437 206 397 169 q 505 284 476 242 q 550 368 533 326 m 368 -264 q 336 -251 354 -264 q 305 -220 318 -239 q 292 -187 292 -201 q 305 -155 292 -172 q 336 -124 318 -137 q 368 -111 354 -111 q 401 -124 383 -111 q 431 -155 418 -137 q 444 -187 444 -172 q 431 -219 444 -201 q 400 -251 418 -237 q 368 -264 382 -264 z "},"چ":{"ha":763,"x_min":71,"x_max":771,"o":"m 426 -246 l 443 -362 q 368 -377 404 -372 q 300 -382 332 -382 q 158 -352 207 -382 q 90 -254 108 -322 q 71 -72 71 -186 q 132 171 71 79 q 330 303 193 263 q 693 344 467 344 l 771 233 q 431 210 558 233 q 246 136 303 188 q 189 -1 189 85 l 189 -247 q 234 -254 210 -251 q 286 -257 258 -257 q 351 -254 317 -257 q 426 -246 386 -251 m 556 357 q 426 497 511 451 q 208 542 342 542 q 148 540 176 542 q 93 536 119 539 l 75 658 q 152 665 115 663 q 222 667 189 667 q 438 634 349 667 q 590 531 528 601 q 693 344 651 460 l 771 344 l 771 233 q 631 260 678 233 q 556 357 583 288 m 524 -275 q 492 -262 510 -275 q 460 -231 474 -250 q 447 -199 447 -212 q 460 -166 447 -183 q 492 -135 474 -149 q 524 -122 510 -122 q 556 -135 539 -122 q 587 -166 574 -149 q 600 -199 600 -183 q 587 -231 600 -212 q 556 -262 574 -249 q 524 -275 538 -275 m 424 -67 q 392 -54 410 -67 q 360 -23 374 -42 q 347 10 347 -4 q 360 42 347 25 q 392 73 374 60 q 424 86 410 86 q 456 73 439 86 q 487 42 474 60 q 500 10 500 25 q 487 -22 500 -4 q 456 -53 474 -40 q 424 -67 438 -67 m 624 -67 q 592 -54 610 -67 q 560 -23 574 -42 q 547 10 547 -4 q 560 42 547 25 q 592 73 574 60 q 624 86 610 86 q 656 73 639 86 q 687 42 674 60 q 700 10 700 25 q 687 -22 700 -4 q 656 -53 674 -40 q 624 -67 638 -67 z "},"ﭻ":{"ha":933,"x_min":71,"x_max":961,"o":"m 878 125 l 961 125 l 961 0 l 883 0 q 818 19 842 0 q 779 78 794 38 l 683 328 q 608 455 650 408 q 505 522 567 501 q 347 542 443 542 q 292 540 321 542 q 232 536 264 539 l 214 658 q 291 665 254 663 q 361 667 328 667 q 558 637 478 667 q 692 543 638 607 q 783 375 746 479 l 878 125 m 426 -246 l 443 -362 q 368 -377 404 -372 q 300 -382 332 -382 q 158 -352 207 -382 q 90 -254 108 -322 q 71 -72 71 -186 q 132 163 71 75 q 330 291 193 251 q 693 331 467 331 l 771 233 q 431 210 558 233 q 246 136 303 188 q 189 -1 189 85 l 189 -247 q 234 -254 210 -251 q 286 -257 258 -257 q 351 -254 317 -257 q 426 -246 386 -251 m 524 -275 q 492 -262 510 -275 q 460 -231 474 -250 q 447 -199 447 -212 q 460 -166 447 -183 q 492 -135 474 -149 q 524 -122 510 -122 q 556 -135 539 -122 q 587 -166 574 -149 q 600 -199 600 -183 q 587 -231 600 -212 q 556 -262 574 -249 q 524 -275 538 -275 m 424 -67 q 392 -54 410 -67 q 360 -23 374 -42 q 347 10 347 -4 q 360 42 347 25 q 392 73 374 60 q 424 86 410 86 q 456 73 439 86 q 487 42 474 60 q 500 10 500 25 q 487 -22 500 -4 q 456 -53 474 -40 q 424 -67 438 -67 m 624 -67 q 592 -54 610 -67 q 560 -23 574 -42 q 547 10 547 -4 q 560 42 547 25 q 592 73 574 60 q 624 86 610 86 q 656 73 639 86 q 687 42 674 60 q 700 10 700 25 q 687 -22 700 -4 q 656 -53 674 -40 q 624 -67 638 -67 z "},"ﭽ":{"ha":794,"x_min":-28,"x_max":822,"o":"m 739 125 l 822 125 l 822 0 l 744 0 q 679 19 703 0 q 640 78 656 38 l 544 328 q 469 455 511 408 q 366 522 428 501 q 208 542 304 542 q 153 540 182 542 q 93 536 125 539 l 75 658 q 152 665 115 663 q 222 667 189 667 q 419 637 339 667 q 553 543 499 607 q 644 375 607 479 l 739 125 m 550 368 l 653 324 q 590 195 628 254 q 499 92 551 136 q 380 24 447 49 q 226 0 313 0 l -28 0 l -28 125 l 272 125 q 373 147 328 125 q 452 206 418 169 q 510 284 486 242 q 550 368 535 326 m 367 -472 q 335 -460 353 -472 q 303 -428 317 -447 q 290 -396 290 -410 q 303 -363 290 -381 q 335 -333 317 -346 q 367 -319 353 -319 q 399 -333 382 -319 q 430 -363 417 -346 q 443 -396 443 -381 q 430 -428 443 -410 q 399 -459 417 -446 q 367 -472 381 -472 m 267 -264 q 235 -251 253 -264 q 203 -220 217 -239 q 190 -187 190 -201 q 203 -155 190 -172 q 235 -124 217 -137 q 267 -111 253 -111 q 299 -124 282 -111 q 330 -155 317 -137 q 343 -187 343 -172 q 330 -219 343 -201 q 299 -251 317 -237 q 267 -264 281 -264 m 467 -264 q 435 -251 453 -264 q 403 -220 417 -239 q 390 -187 390 -201 q 403 -155 390 -172 q 435 -124 417 -137 q 467 -111 453 -111 q 499 -124 482 -111 q 530 -155 517 -137 q 543 -187 543 -172 q 530 -219 543 -201 q 499 -251 517 -237 q 467 -264 481 -264 z "},"ﭼ":{"ha":771,"x_min":-28,"x_max":771,"o":"m 643 375 l 771 375 l 771 250 l 649 250 q 583 269 607 250 q 544 328 560 288 q 474 456 515 410 q 368 522 432 503 q 208 542 304 542 q 153 540 182 542 q 93 536 125 539 l 75 658 q 152 665 115 663 q 222 667 189 667 q 418 637 339 667 q 551 543 497 607 q 643 375 606 479 m 550 368 l 653 324 q 586 195 626 254 q 490 92 546 136 q 363 24 435 49 q 199 0 290 0 l -28 0 l -28 125 l 231 125 q 346 147 294 125 q 437 206 397 169 q 505 284 476 242 q 550 368 533 326 m 367 -472 q 335 -460 353 -472 q 303 -428 317 -447 q 290 -396 290 -410 q 303 -363 290 -381 q 335 -333 317 -346 q 367 -319 353 -319 q 399 -333 382 -319 q 430 -363 417 -346 q 443 -396 443 -381 q 430 -428 443 -410 q 399 -459 417 -446 q 367 -472 381 -472 m 267 -264 q 235 -251 253 -264 q 203 -220 217 -239 q 190 -187 190 -201 q 203 -155 190 -172 q 235 -124 217 -137 q 267 -111 253 -111 q 299 -124 282 -111 q 330 -155 317 -137 q 343 -187 343 -172 q 330 -219 343 -201 q 299 -251 317 -237 q 267 -264 281 -264 m 467 -264 q 435 -251 453 -264 q 403 -220 417 -239 q 390 -187 390 -201 q 403 -155 390 -172 q 435 -124 417 -137 q 467 -111 453 -111 q 499 -124 482 -111 q 530 -155 517 -137 q 543 -187 543 -172 q 530 -219 543 -201 q 499 -251 517 -237 q 467 -264 481 -264 z "},"ح":{"ha":771,"x_min":71,"x_max":771,"o":"m 346 -385 q 207 -372 261 -385 q 124 -325 153 -358 q 83 -230 94 -292 q 71 -72 71 -168 q 132 171 71 79 q 330 303 193 263 q 693 344 467 344 l 771 233 q 431 210 558 233 q 246 136 303 188 q 189 -1 189 85 l 189 -247 q 272 -256 225 -253 q 385 -260 319 -260 q 489 -253 436 -260 q 619 -229 542 -246 l 636 -346 q 508 -374 585 -364 q 346 -385 432 -385 m 556 357 q 426 497 511 451 q 208 542 342 542 q 148 540 176 542 q 93 536 119 539 l 75 658 q 152 665 115 663 q 222 667 189 667 q 438 634 349 667 q 590 531 528 601 q 693 344 651 460 l 771 344 l 771 233 q 631 260 678 233 q 556 357 583 288 z "},"ﺢ":{"ha":794,"x_min":71,"x_max":822,"o":"m 346 -385 q 202 -370 257 -385 q 119 -320 147 -356 q 81 -224 90 -285 q 71 -72 71 -164 q 131 169 71 81 q 312 298 190 258 q 617 343 433 338 l 646 246 q 394 215 496 240 q 240 138 292 190 q 189 -1 189 86 l 189 -247 q 276 -257 228 -254 q 385 -260 325 -260 q 490 -253 438 -260 q 619 -229 543 -246 l 636 -346 q 505 -374 582 -364 q 346 -385 428 -385 m 739 125 l 822 125 l 822 0 l 744 0 q 679 19 703 0 q 640 78 656 38 l 544 328 q 469 455 511 408 q 366 522 428 501 q 208 542 304 542 q 153 540 182 542 q 93 536 125 539 l 75 658 q 152 665 115 663 q 222 667 189 667 q 419 637 339 667 q 553 543 499 607 q 644 375 607 479 l 739 125 z "},"ﺤ":{"ha":794,"x_min":-28,"x_max":822,"o":"m 739 125 l 822 125 l 822 0 l 744 0 q 679 19 703 0 q 640 78 656 38 l 544 328 q 469 455 511 408 q 366 522 428 501 q 208 542 304 542 q 153 540 182 542 q 93 536 125 539 l 75 658 q 152 665 115 663 q 222 667 189 667 q 419 637 339 667 q 553 543 499 607 q 644 375 607 479 l 739 125 m 550 368 l 653 324 q 590 195 628 254 q 499 92 551 136 q 380 24 447 49 q 226 0 313 0 l -28 0 l -28 125 l 272 125 q 373 147 328 125 q 452 206 418 169 q 510 284 486 242 q 550 368 535 326 z "},"ﺣ":{"ha":771,"x_min":-28,"x_max":771,"o":"m 643 375 l 771 375 l 771 250 l 649 250 q 583 269 607 250 q 544 328 560 288 q 474 456 515 410 q 368 522 432 503 q 208 542 304 542 q 153 540 182 542 q 93 536 125 539 l 75 658 q 152 665 115 663 q 222 667 189 667 q 418 637 339 667 q 551 543 497 607 q 643 375 606 479 m 550 368 l 653 324 q 586 195 626 254 q 490 92 546 136 q 363 24 435 49 q 199 0 290 0 l -28 0 l -28 125 l 231 125 q 346 147 294 125 q 437 206 397 169 q 505 284 476 242 q 550 368 533 326 z "},"خ":{"ha":771,"x_min":71,"x_max":771,"o":"m 346 -385 q 207 -372 261 -385 q 124 -325 153 -358 q 83 -230 94 -292 q 71 -72 71 -168 q 132 171 71 79 q 330 303 193 263 q 693 344 467 344 l 771 233 q 431 210 558 233 q 246 136 303 188 q 189 -1 189 85 l 189 -247 q 272 -256 225 -253 q 385 -260 319 -260 q 489 -253 436 -260 q 619 -229 542 -246 l 636 -346 q 508 -374 585 -364 q 346 -385 432 -385 m 556 357 q 426 497 511 451 q 208 542 342 542 q 148 540 176 542 q 93 536 119 539 l 75 658 q 152 665 115 663 q 222 667 189 667 q 438 634 349 667 q 590 531 528 601 q 693 344 651 460 l 771 344 l 771 233 q 631 260 678 233 q 556 357 583 288 m 388 851 q 356 864 374 851 q 324 895 338 876 q 311 928 311 914 q 324 960 311 943 q 356 991 338 978 q 388 1004 374 1004 q 420 991 403 1004 q 451 960 438 978 q 464 928 464 943 q 451 896 464 914 q 419 865 438 878 q 388 851 401 851 z "},"ﺦ":{"ha":794,"x_min":71,"x_max":822,"o":"m 346 -385 q 202 -370 257 -385 q 119 -320 147 -356 q 81 -224 90 -285 q 71 -72 71 -164 q 131 169 71 81 q 312 298 190 258 q 617 343 433 338 l 646 246 q 394 215 496 240 q 240 138 292 190 q 189 -1 189 86 l 189 -247 q 276 -257 228 -254 q 385 -260 325 -260 q 490 -253 438 -260 q 619 -229 543 -246 l 636 -346 q 505 -374 582 -364 q 346 -385 428 -385 m 739 125 l 822 125 l 822 0 l 744 0 q 679 19 703 0 q 640 78 656 38 l 544 328 q 469 455 511 408 q 366 522 428 501 q 208 542 304 542 q 153 540 182 542 q 93 536 125 539 l 75 658 q 152 665 115 663 q 222 667 189 667 q 419 637 339 667 q 553 543 499 607 q 644 375 607 479 l 739 125 m 388 851 q 356 864 374 851 q 324 895 338 876 q 311 928 311 914 q 324 960 311 943 q 356 991 338 978 q 388 1004 374 1004 q 420 991 403 1004 q 451 960 438 978 q 464 928 464 943 q 451 896 464 914 q 419 865 438 878 q 388 851 401 851 z "},"ﺨ":{"ha":794,"x_min":-28,"x_max":822,"o":"m 739 125 l 822 125 l 822 0 l 744 0 q 679 19 703 0 q 640 78 656 38 l 544 328 q 469 455 511 408 q 366 522 428 501 q 208 542 304 542 q 153 540 182 542 q 93 536 125 539 l 75 658 q 152 665 115 663 q 222 667 189 667 q 419 637 339 667 q 553 543 499 607 q 644 375 607 479 l 739 125 m 550 368 l 653 324 q 590 195 628 254 q 499 92 551 136 q 380 24 447 49 q 226 0 313 0 l -28 0 l -28 125 l 272 125 q 373 147 328 125 q 452 206 418 169 q 510 284 486 242 q 550 368 535 326 m 332 819 q 300 832 318 819 q 269 863 282 844 q 256 896 256 882 q 269 928 256 911 q 300 959 282 946 q 332 972 318 972 q 365 959 347 972 q 395 928 382 946 q 408 896 408 911 q 395 864 408 882 q 364 833 382 846 q 332 819 346 819 z "},"ﺧ":{"ha":771,"x_min":-28,"x_max":771,"o":"m 643 375 l 771 375 l 771 250 l 649 250 q 583 269 607 250 q 544 328 560 288 q 474 456 515 410 q 368 522 432 503 q 208 542 304 542 q 153 540 182 542 q 93 536 125 539 l 75 658 q 152 665 115 663 q 222 667 189 667 q 418 637 339 667 q 551 543 497 607 q 643 375 606 479 m 550 368 l 653 324 q 586 195 626 254 q 490 92 546 136 q 363 24 435 49 q 199 0 290 0 l -28 0 l -28 125 l 231 125 q 346 147 294 125 q 437 206 397 169 q 505 284 476 242 q 550 368 533 326 m 332 819 q 300 832 318 819 q 269 863 282 844 q 256 896 256 882 q 269 928 256 911 q 300 959 282 946 q 332 972 318 972 q 365 959 347 972 q 395 928 382 946 q 408 896 408 911 q 395 864 408 882 q 364 833 382 846 q 332 819 346 819 z "},"د":{"ha":713,"x_min":28,"x_max":643,"o":"m 28 0 l 28 125 l 510 125 q 441 347 472 263 q 378 478 410 432 q 304 540 346 524 q 203 557 263 557 q 150 553 179 557 q 97 543 121 550 l 67 665 q 139 678 103 674 q 203 682 175 682 q 328 672 276 682 q 420 628 381 661 q 493 532 460 596 q 562 362 526 468 q 643 97 597 256 l 643 0 l 28 0 z "},"ﺪ":{"ha":685,"x_min":28,"x_max":713,"o":"m 615 125 l 713 125 l 713 0 l 615 0 l 615 125 m 28 0 l 28 125 l 510 125 q 441 347 472 263 q 378 478 410 432 q 304 540 346 524 q 203 557 263 557 q 150 553 179 557 q 97 543 121 550 l 67 665 q 139 678 103 674 q 203 682 175 682 q 328 672 276 682 q 420 628 381 661 q 493 532 460 596 q 562 362 526 468 q 643 97 597 256 l 643 0 l 28 0 z "},"ذ":{"ha":713,"x_min":28,"x_max":643,"o":"m 28 0 l 28 125 l 510 125 q 441 347 472 263 q 378 478 410 432 q 304 540 346 524 q 203 557 263 557 q 150 553 179 557 q 97 543 121 550 l 67 665 q 139 678 103 674 q 203 682 175 682 q 328 672 276 682 q 420 628 381 661 q 493 532 460 596 q 562 362 526 468 q 643 97 597 256 l 643 0 l 28 0 m 243 819 q 211 832 229 819 q 180 863 193 844 q 167 896 167 882 q 180 928 167 911 q 211 959 193 946 q 243 972 229 972 q 276 959 258 972 q 306 928 293 946 q 319 896 319 911 q 306 864 319 882 q 275 833 293 846 q 243 819 257 819 z "},"ﺬ":{"ha":685,"x_min":28,"x_max":713,"o":"m 615 125 l 713 125 l 713 0 l 615 0 l 615 125 m 28 0 l 28 125 l 510 125 q 441 347 472 263 q 378 478 410 432 q 304 540 346 524 q 203 557 263 557 q 150 553 179 557 q 97 543 121 550 l 67 665 q 139 678 103 674 q 203 682 175 682 q 328 672 276 682 q 420 628 381 661 q 493 532 460 596 q 562 362 526 468 q 643 97 597 256 l 643 0 l 28 0 m 243 819 q 211 832 229 819 q 180 863 193 844 q 167 896 167 882 q 180 928 167 911 q 211 959 193 946 q 243 972 229 972 q 276 959 258 972 q 306 928 293 946 q 319 896 319 911 q 306 864 319 882 q 275 833 293 846 q 243 819 257 819 z "},"ڈ":{"ha":713,"x_min":25,"x_max":643,"o":"m 28 0 l 28 125 l 510 125 q 441 347 472 263 q 378 478 410 432 q 304 540 346 524 q 203 557 263 557 q 150 553 179 557 q 97 543 121 550 l 67 665 q 139 678 103 674 q 203 682 175 682 q 328 672 276 682 q 420 628 381 661 q 493 532 460 596 q 562 362 526 468 q 643 97 597 256 l 643 0 l 28 0 m 67 874 l 67 1199 l 150 1199 l 150 1032 q 212 1090 174 1069 q 313 1111 250 1111 q 399 1088 375 1111 q 424 1007 424 1065 l 424 874 l 340 874 l 340 1036 q 313 1044 329 1042 q 281 1047 297 1047 q 181 1006 213 1047 q 150 874 150 964 l 67 874 m 25 819 l 25 882 l 424 882 l 424 819 l 25 819 z "},"ﮉ":{"ha":685,"x_min":25,"x_max":713,"o":"m 615 125 l 713 125 l 713 0 l 615 0 l 615 125 m 28 0 l 28 125 l 510 125 q 441 347 472 263 q 378 478 410 432 q 304 540 346 524 q 203 557 263 557 q 150 553 179 557 q 97 543 121 550 l 67 665 q 139 678 103 674 q 203 682 175 682 q 328 672 276 682 q 420 628 381 661 q 493 532 460 596 q 562 362 526 468 q 643 97 597 256 l 643 0 l 28 0 m 67 874 l 67 1199 l 150 1199 l 150 1032 q 212 1090 174 1069 q 313 1111 250 1111 q 399 1088 375 1111 q 424 1007 424 1065 l 424 874 l 340 874 l 340 1036 q 313 1044 329 1042 q 281 1047 297 1047 q 181 1006 213 1047 q 150 874 150 964 l 67 874 m 25 819 l 25 882 l 424 882 l 424 819 l 25 819 z "},"ر":{"ha":432,"x_min":39,"x_max":293,"o":"m 86 -360 l 39 -262 q 124 -203 93 -236 q 169 -121 156 -169 q 182 0 182 -72 l 182 653 l 293 653 l 293 0 q 272 -159 293 -92 q 206 -275 251 -226 q 86 -360 160 -324 z "},"ﺮ":{"ha":431,"x_min":39,"x_max":458,"o":"m 292 125 l 458 125 l 458 0 l 292 0 l 292 125 m 86 -360 l 39 -262 q 124 -203 93 -236 q 169 -121 156 -169 q 182 0 182 -72 l 182 653 l 293 653 l 293 0 q 272 -159 293 -92 q 206 -275 251 -226 q 86 -360 160 -324 z "},"ز":{"ha":432,"x_min":39,"x_max":314,"o":"m 86 -360 l 39 -262 q 124 -203 93 -236 q 169 -121 156 -169 q 182 0 182 -72 l 182 653 l 293 653 l 293 0 q 272 -159 293 -92 q 206 -275 251 -226 q 86 -360 160 -324 m 238 819 q 206 832 224 819 q 174 863 188 844 q 161 896 161 882 q 174 928 161 911 q 206 959 188 946 q 238 972 224 972 q 270 959 253 972 q 301 928 288 946 q 314 896 314 911 q 301 864 314 882 q 269 833 288 846 q 238 819 251 819 z "},"ﺰ":{"ha":431,"x_min":39,"x_max":458,"o":"m 292 125 l 458 125 l 458 0 l 292 0 l 292 125 m 86 -360 l 39 -262 q 124 -203 93 -236 q 169 -121 156 -169 q 182 0 182 -72 l 182 653 l 293 653 l 293 0 q 272 -159 293 -92 q 206 -275 251 -226 q 86 -360 160 -324 m 236 819 q 204 832 222 819 q 173 863 186 844 q 160 896 160 882 q 173 928 160 911 q 204 959 186 946 q 236 972 222 972 q 269 959 251 972 q 299 928 286 946 q 313 896 313 911 q 299 864 313 882 q 268 833 286 846 q 236 819 250 819 z "},"ڑ":{"ha":432,"x_min":19,"x_max":418,"o":"m 86 -360 l 39 -262 q 124 -203 93 -236 q 169 -121 156 -169 q 182 0 182 -72 l 182 653 l 293 653 l 293 0 q 272 -159 293 -92 q 206 -275 251 -226 q 86 -360 160 -324 m 61 874 l 61 1199 l 144 1199 l 144 1032 q 206 1090 168 1069 q 307 1111 244 1111 q 394 1088 369 1111 q 418 1007 418 1065 l 418 874 l 335 874 l 335 1036 q 308 1044 324 1042 q 275 1047 292 1047 q 176 1006 207 1047 q 144 874 144 964 l 61 874 m 19 819 l 19 882 l 418 882 l 418 819 l 19 819 z "},"ﮍ":{"ha":431,"x_min":18,"x_max":458,"o":"m 292 125 l 458 125 l 458 0 l 292 0 l 292 125 m 86 -360 l 39 -262 q 124 -203 93 -236 q 169 -121 156 -169 q 182 0 182 -72 l 182 653 l 293 653 l 293 0 q 272 -159 293 -92 q 206 -275 251 -226 q 86 -360 160 -324 m 60 874 l 60 1199 l 143 1199 l 143 1032 q 205 1090 167 1069 q 306 1111 243 1111 q 392 1088 368 1111 q 417 1007 417 1065 l 417 874 l 333 874 l 333 1036 q 306 1044 322 1042 q 274 1047 290 1047 q 174 1006 206 1047 q 143 874 143 964 l 60 874 m 18 819 l 18 882 l 417 882 l 417 819 l 18 819 z "},"ژ":{"ha":432,"x_min":39,"x_max":414,"o":"m 86 -360 l 39 -262 q 124 -203 93 -236 q 169 -121 156 -169 q 182 0 182 -72 l 182 653 l 293 653 l 293 0 q 272 -159 293 -92 q 206 -275 251 -226 q 86 -360 160 -324 m 138 819 q 106 832 124 819 q 74 863 88 844 q 61 896 61 882 q 74 928 61 911 q 106 959 88 946 q 138 972 124 972 q 170 959 153 972 q 201 928 188 946 q 214 896 214 911 q 201 864 214 882 q 169 833 188 846 q 138 819 151 819 m 338 819 q 306 832 324 819 q 274 863 288 844 q 261 896 261 882 q 274 928 261 911 q 306 959 288 946 q 338 972 324 972 q 370 959 353 972 q 401 928 388 946 q 414 896 414 911 q 401 864 414 882 q 369 833 388 846 q 338 819 351 819 m 238 1028 q 206 1040 224 1028 q 174 1072 188 1053 q 161 1104 161 1090 q 174 1137 161 1119 q 206 1167 188 1154 q 238 1181 224 1181 q 270 1167 253 1181 q 301 1137 288 1154 q 314 1104 314 1119 q 301 1072 314 1090 q 269 1041 288 1054 q 238 1028 251 1028 z "},"ﮋ":{"ha":431,"x_min":39,"x_max":458,"o":"m 292 125 l 458 125 l 458 0 l 292 0 l 292 125 m 86 -360 l 39 -262 q 124 -203 93 -236 q 169 -121 156 -169 q 182 0 182 -72 l 182 653 l 293 653 l 293 0 q 272 -159 293 -92 q 206 -275 251 -226 q 86 -360 160 -324 m 136 819 q 104 832 122 819 q 73 863 86 844 q 60 896 60 882 q 73 928 60 911 q 104 959 86 946 q 136 972 122 972 q 169 959 151 972 q 199 928 186 946 q 213 896 213 911 q 199 864 213 882 q 168 833 186 846 q 136 819 150 819 m 336 819 q 304 832 322 819 q 273 863 286 844 q 260 896 260 882 q 273 928 260 911 q 304 959 286 946 q 336 972 322 972 q 369 959 351 972 q 399 928 386 946 q 413 896 413 911 q 399 864 413 882 q 368 833 386 846 q 336 819 350 819 m 236 1028 q 204 1040 222 1028 q 173 1072 186 1053 q 160 1104 160 1090 q 173 1137 160 1119 q 204 1167 186 1154 q 236 1181 222 1181 q 269 1167 251 1181 q 299 1137 286 1154 q 313 1104 313 1119 q 299 1072 313 1090 q 268 1041 286 1054 q 236 1028 250 1028 z "},"س":{"ha":1746,"x_min":97,"x_max":1621,"o":"m 417 -333 q 246 -319 310 -333 q 150 -272 182 -306 q 108 -177 118 -237 q 97 -22 97 -117 q 102 85 97 29 q 115 192 107 140 q 136 282 124 243 l 246 264 q 219 126 229 193 q 208 1 208 60 q 212 -113 208 -64 q 225 -208 215 -162 l 479 -208 q 627 -194 586 -208 q 668 -135 668 -179 l 668 528 l 779 528 l 779 -50 q 765 -192 779 -136 q 713 -278 751 -247 q 603 -321 674 -308 q 417 -333 532 -333 m 1371 0 q 1226 11 1282 0 q 1141 51 1171 22 q 1100 132 1111 81 q 1089 263 1089 183 l 1089 528 l 1200 528 l 1200 199 q 1225 140 1200 154 q 1308 125 1250 125 l 1493 125 q 1506 228 1503 174 q 1510 356 1510 283 q 1500 488 1510 417 q 1474 632 1490 558 l 1583 650 q 1601 562 1593 614 q 1615 456 1610 510 q 1621 360 1621 403 q 1600 144 1621 222 q 1526 33 1579 65 q 1371 0 1472 0 m 918 0 l 779 0 l 779 125 l 981 125 q 1064 140 1039 125 q 1089 199 1089 154 l 1089 528 l 1200 528 l 1200 263 q 1190 132 1200 183 q 1149 51 1179 81 q 1064 11 1119 22 q 918 0 1008 0 z "},"ﺲ":{"ha":1760,"x_min":97,"x_max":1788,"o":"m 1531 125 l 1788 125 l 1788 0 l 1371 0 l 1531 125 m 417 -333 q 246 -319 310 -333 q 150 -272 182 -306 q 108 -177 118 -237 q 97 -22 97 -117 q 102 85 97 29 q 115 192 107 140 q 136 282 124 243 l 246 264 q 219 126 229 193 q 208 1 208 60 q 212 -113 208 -64 q 225 -208 215 -162 l 479 -208 q 627 -194 586 -208 q 668 -135 668 -179 l 668 528 l 779 528 l 779 -50 q 765 -192 779 -136 q 713 -278 751 -247 q 603 -321 674 -308 q 417 -333 532 -333 m 1371 0 q 1226 11 1282 0 q 1141 51 1171 22 q 1100 132 1111 81 q 1089 263 1089 183 l 1089 528 l 1200 528 l 1200 199 q 1225 140 1200 154 q 1308 125 1250 125 l 1493 125 q 1506 228 1503 174 q 1510 356 1510 283 q 1500 488 1510 417 q 1474 632 1490 558 l 1583 650 q 1601 562 1593 614 q 1615 456 1610 510 q 1621 360 1621 403 q 1600 144 1621 222 q 1526 33 1579 65 q 1371 0 1472 0 m 918 0 l 779 0 l 779 125 l 981 125 q 1064 140 1039 125 q 1089 199 1089 154 l 1089 528 l 1200 528 l 1200 263 q 1190 132 1200 183 q 1149 51 1179 81 q 1064 11 1119 22 q 918 0 1008 0 z "},"ﺴ":{"ha":1286,"x_min":-28,"x_max":1314,"o":"m 897 0 q 753 11 808 0 q 667 51 697 22 q 626 132 638 81 q 615 263 615 183 l 615 528 l 726 528 l 726 199 q 751 140 726 154 q 835 125 776 125 l 1019 125 q 1033 228 1029 174 q 1036 356 1036 283 q 1026 488 1036 417 q 1000 632 1017 558 l 1110 650 q 1128 562 1119 614 q 1142 456 1136 510 q 1147 360 1147 403 q 1126 144 1147 222 q 1052 33 1106 65 q 897 0 999 0 m 444 0 l 306 0 l 306 125 l 507 125 q 590 140 565 125 q 615 199 615 154 l 615 528 l 726 528 l 726 263 q 716 132 726 183 q 676 51 706 81 q 590 11 646 22 q 444 0 535 0 m 306 0 l -28 0 l -28 125 l 194 125 l 194 528 l 306 528 l 306 0 m 1057 125 l 1314 125 l 1314 0 l 897 0 l 1057 125 z "},"ﺳ":{"ha":1272,"x_min":-28,"x_max":1147,"o":"m 897 0 q 753 11 808 0 q 667 51 697 22 q 626 132 638 81 q 615 263 615 183 l 615 528 l 726 528 l 726 199 q 751 140 726 154 q 835 125 776 125 l 1019 125 q 1033 228 1029 174 q 1036 356 1036 283 q 1026 488 1036 417 q 1000 632 1017 558 l 1110 650 q 1128 562 1119 614 q 1142 456 1136 510 q 1147 360 1147 403 q 1126 144 1147 222 q 1052 33 1106 65 q 897 0 999 0 m 444 0 l 306 0 l 306 125 l 507 125 q 590 140 565 125 q 615 199 615 154 l 615 528 l 726 528 l 726 263 q 716 132 726 183 q 676 51 706 81 q 590 11 646 22 q 444 0 535 0 m 306 0 l -28 0 l -28 125 l 194 125 l 194 528 l 306 528 l 306 0 z "},"ش":{"ha":1746,"x_min":97,"x_max":1621,"o":"m 417 -333 q 246 -319 310 -333 q 150 -272 182 -306 q 108 -177 118 -237 q 97 -22 97 -117 q 102 85 97 29 q 115 192 107 140 q 136 282 124 243 l 246 264 q 219 126 229 193 q 208 1 208 60 q 212 -113 208 -64 q 225 -208 215 -162 l 479 -208 q 627 -194 586 -208 q 668 -135 668 -179 l 668 528 l 779 528 l 779 -50 q 765 -192 779 -136 q 713 -278 751 -247 q 603 -321 674 -308 q 417 -333 532 -333 m 1371 0 q 1226 11 1282 0 q 1141 51 1171 22 q 1100 132 1111 81 q 1089 263 1089 183 l 1089 528 l 1200 528 l 1200 199 q 1225 140 1200 154 q 1308 125 1250 125 l 1493 125 q 1506 228 1503 174 q 1510 356 1510 283 q 1500 488 1510 417 q 1474 632 1490 558 l 1583 650 q 1601 562 1593 614 q 1615 456 1610 510 q 1621 360 1621 403 q 1600 144 1621 222 q 1526 33 1579 65 q 1371 0 1472 0 m 918 0 l 779 0 l 779 125 l 981 125 q 1064 140 1039 125 q 1089 199 1089 154 l 1089 528 l 1200 528 l 1200 263 q 1190 132 1200 183 q 1149 51 1179 81 q 1064 11 1119 22 q 918 0 1008 0 m 1058 819 q 1026 832 1044 819 q 995 863 1008 844 q 982 896 982 882 q 995 928 982 911 q 1026 959 1008 946 q 1058 972 1044 972 q 1091 959 1074 972 q 1122 928 1108 946 q 1135 896 1135 911 q 1122 864 1135 882 q 1090 833 1108 846 q 1058 819 1072 819 m 1258 819 q 1226 832 1244 819 q 1195 863 1208 844 q 1182 896 1182 882 q 1195 928 1182 911 q 1226 959 1208 946 q 1258 972 1244 972 q 1291 959 1274 972 q 1322 928 1308 946 q 1335 896 1335 911 q 1322 864 1335 882 q 1290 833 1308 846 q 1258 819 1272 819 m 1158 1028 q 1126 1040 1144 1028 q 1095 1072 1108 1053 q 1082 1104 1082 1090 q 1095 1137 1082 1119 q 1126 1167 1108 1154 q 1158 1181 1144 1181 q 1191 1167 1174 1181 q 1222 1137 1208 1154 q 1235 1104 1235 1119 q 1222 1072 1235 1090 q 1190 1041 1208 1054 q 1158 1028 1172 1028 z "},"ﺶ":{"ha":1760,"x_min":97,"x_max":1788,"o":"m 1531 125 l 1788 125 l 1788 0 l 1371 0 l 1531 125 m 417 -333 q 246 -319 310 -333 q 150 -272 182 -306 q 108 -177 118 -237 q 97 -22 97 -117 q 102 85 97 29 q 115 192 107 140 q 136 282 124 243 l 246 264 q 219 126 229 193 q 208 1 208 60 q 212 -113 208 -64 q 225 -208 215 -162 l 479 -208 q 627 -194 586 -208 q 668 -135 668 -179 l 668 528 l 779 528 l 779 -50 q 765 -192 779 -136 q 713 -278 751 -247 q 603 -321 674 -308 q 417 -333 532 -333 m 1371 0 q 1226 11 1282 0 q 1141 51 1171 22 q 1100 132 1111 81 q 1089 263 1089 183 l 1089 528 l 1200 528 l 1200 199 q 1225 140 1200 154 q 1308 125 1250 125 l 1493 125 q 1506 228 1503 174 q 1510 356 1510 283 q 1500 488 1510 417 q 1474 632 1490 558 l 1583 650 q 1601 562 1593 614 q 1615 456 1610 510 q 1621 360 1621 403 q 1600 144 1621 222 q 1526 33 1579 65 q 1371 0 1472 0 m 918 0 l 779 0 l 779 125 l 981 125 q 1064 140 1039 125 q 1089 199 1089 154 l 1089 528 l 1200 528 l 1200 263 q 1190 132 1200 183 q 1149 51 1179 81 q 1064 11 1119 22 q 918 0 1008 0 m 1058 819 q 1026 832 1044 819 q 995 863 1008 844 q 982 896 982 882 q 995 928 982 911 q 1026 959 1008 946 q 1058 972 1044 972 q 1091 959 1074 972 q 1122 928 1108 946 q 1135 896 1135 911 q 1122 864 1135 882 q 1090 833 1108 846 q 1058 819 1072 819 m 1258 819 q 1226 832 1244 819 q 1195 863 1208 844 q 1182 896 1182 882 q 1195 928 1182 911 q 1226 959 1208 946 q 1258 972 1244 972 q 1291 959 1274 972 q 1322 928 1308 946 q 1335 896 1335 911 q 1322 864 1335 882 q 1290 833 1308 846 q 1258 819 1272 819 m 1158 1028 q 1126 1040 1144 1028 q 1095 1072 1108 1053 q 1082 1104 1082 1090 q 1095 1137 1082 1119 q 1126 1167 1108 1154 q 1158 1181 1144 1181 q 1191 1167 1174 1181 q 1222 1137 1208 1154 q 1235 1104 1235 1119 q 1222 1072 1235 1090 q 1190 1041 1208 1054 q 1158 1028 1172 1028 z "},"ﺸ":{"ha":1286,"x_min":-28,"x_max":1314,"o":"m 897 0 q 753 11 808 0 q 667 51 697 22 q 626 132 638 81 q 615 263 615 183 l 615 528 l 726 528 l 726 199 q 751 140 726 154 q 835 125 776 125 l 1019 125 q 1033 228 1029 174 q 1036 356 1036 283 q 1026 488 1036 417 q 1000 632 1017 558 l 1110 650 q 1128 562 1119 614 q 1142 456 1136 510 q 1147 360 1147 403 q 1126 144 1147 222 q 1052 33 1106 65 q 897 0 999 0 m 444 0 l 306 0 l 306 125 l 507 125 q 590 140 565 125 q 615 199 615 154 l 615 528 l 726 528 l 726 263 q 716 132 726 183 q 676 51 706 81 q 590 11 646 22 q 444 0 535 0 m 306 0 l -28 0 l -28 125 l 194 125 l 194 528 l 306 528 l 306 0 m 1057 125 l 1314 125 l 1314 0 l 897 0 l 1057 125 m 585 819 q 553 832 571 819 q 522 863 535 844 q 508 896 508 882 q 522 928 508 911 q 553 959 535 946 q 585 972 571 972 q 617 959 600 972 q 648 928 635 946 q 661 896 661 911 q 648 864 661 882 q 617 833 635 846 q 585 819 599 819 m 785 819 q 753 832 771 819 q 722 863 735 844 q 708 896 708 882 q 722 928 708 911 q 753 959 735 946 q 785 972 771 972 q 817 959 800 972 q 848 928 835 946 q 861 896 861 911 q 848 864 861 882 q 817 833 835 846 q 785 819 799 819 m 685 1028 q 653 1040 671 1028 q 622 1072 635 1053 q 608 1104 608 1090 q 622 1137 608 1119 q 653 1167 635 1154 q 685 1181 671 1181 q 717 1167 700 1181 q 748 1137 735 1154 q 761 1104 761 1119 q 748 1072 761 1090 q 717 1041 735 1054 q 685 1028 699 1028 z "},"ﺷ":{"ha":1272,"x_min":-28,"x_max":1147,"o":"m 897 0 q 753 11 808 0 q 667 51 697 22 q 626 132 638 81 q 615 263 615 183 l 615 528 l 726 528 l 726 199 q 751 140 726 154 q 835 125 776 125 l 1019 125 q 1033 228 1029 174 q 1036 356 1036 283 q 1026 488 1036 417 q 1000 632 1017 558 l 1110 650 q 1128 562 1119 614 q 1142 456 1136 510 q 1147 360 1147 403 q 1126 144 1147 222 q 1052 33 1106 65 q 897 0 999 0 m 444 0 l 306 0 l 306 125 l 507 125 q 590 140 565 125 q 615 199 615 154 l 615 528 l 726 528 l 726 263 q 716 132 726 183 q 676 51 706 81 q 590 11 646 22 q 444 0 535 0 m 306 0 l -28 0 l -28 125 l 194 125 l 194 528 l 306 528 l 306 0 m 585 819 q 553 832 571 819 q 522 863 535 844 q 508 896 508 882 q 522 928 508 911 q 553 959 535 946 q 585 972 571 972 q 617 959 600 972 q 648 928 635 946 q 661 896 661 911 q 648 864 661 882 q 617 833 635 846 q 585 819 599 819 m 785 819 q 753 832 771 819 q 722 863 735 844 q 708 896 708 882 q 722 928 708 911 q 753 959 735 946 q 785 972 771 972 q 817 959 800 972 q 848 928 835 946 q 861 896 861 911 q 848 864 861 882 q 817 833 835 846 q 785 819 799 819 m 685 1028 q 653 1040 671 1028 q 622 1072 635 1053 q 608 1104 608 1090 q 622 1137 608 1119 q 653 1167 635 1154 q 685 1181 671 1181 q 717 1167 700 1181 q 748 1137 735 1154 q 761 1104 761 1119 q 748 1072 761 1090 q 717 1041 735 1054 q 685 1028 699 1028 z "},"ص":{"ha":1597,"x_min":97,"x_max":1463,"o":"m 417 -333 q 246 -319 310 -333 q 150 -272 182 -306 q 108 -177 118 -237 q 97 -22 97 -117 q 102 85 97 29 q 115 192 107 140 q 136 282 124 243 l 246 264 q 219 126 229 193 q 208 1 208 60 q 212 -113 208 -64 q 225 -208 215 -162 l 479 -208 q 627 -194 586 -208 q 668 -135 668 -179 l 668 75 l 779 75 l 779 -50 q 765 -192 779 -136 q 713 -278 751 -247 q 603 -321 674 -308 q 417 -333 532 -333 m 1410 125 l 1463 0 l 735 0 l 735 125 l 1410 125 m 1351 0 l 1351 526 q 1290 538 1329 533 q 1197 542 1250 542 q 882 427 985 542 q 779 75 779 313 l 668 75 l 668 653 l 779 653 l 779 397 q 876 544 811 483 q 1036 635 942 604 q 1249 667 1131 667 q 1376 651 1329 667 q 1442 600 1422 636 q 1463 500 1463 564 l 1463 0 l 1351 0 z "},"ﺺ":{"ha":1604,"x_min":97,"x_max":1632,"o":"m 1463 125 l 1632 125 l 1632 0 l 1463 0 l 1463 125 m 417 -333 q 246 -319 310 -333 q 150 -272 182 -306 q 108 -177 118 -237 q 97 -22 97 -117 q 102 85 97 29 q 115 192 107 140 q 136 282 124 243 l 246 264 q 219 126 229 193 q 208 1 208 60 q 212 -113 208 -64 q 225 -208 215 -162 l 479 -208 q 627 -194 586 -208 q 668 -135 668 -179 l 668 75 l 779 75 l 779 -50 q 765 -192 779 -136 q 713 -278 751 -247 q 603 -321 674 -308 q 417 -333 532 -333 m 1410 125 l 1463 0 l 735 0 l 735 125 l 1410 125 m 1351 0 l 1351 526 q 1290 538 1329 533 q 1197 542 1250 542 q 882 427 985 542 q 779 75 779 313 l 668 75 l 668 653 l 779 653 l 779 397 q 876 544 811 483 q 1036 635 942 604 q 1249 667 1131 667 q 1376 651 1329 667 q 1442 600 1422 636 q 1463 500 1463 564 l 1463 0 l 1351 0 z "},"ﺼ":{"ha":1128,"x_min":-28,"x_max":1156,"o":"m 1156 125 l 1156 0 l -28 0 l -28 125 l 1156 125 m 878 75 l 878 526 q 724 542 829 542 q 408 427 511 542 q 306 75 306 313 l 194 75 l 194 653 l 306 653 l 306 397 q 403 544 338 483 q 563 635 468 604 q 775 667 657 667 q 902 651 856 667 q 969 600 949 636 q 989 500 989 564 l 989 75 l 878 75 z "},"ﺻ":{"ha":1121,"x_min":-28,"x_max":989,"o":"m 989 125 l 989 0 l -28 0 l -28 125 l 989 125 m 878 0 l 878 526 q 724 542 829 542 q 408 427 511 542 q 306 75 306 313 l 194 75 l 194 653 l 306 653 l 306 397 q 403 544 338 483 q 563 635 468 604 q 775 667 657 667 q 902 651 856 667 q 969 600 949 636 q 989 500 989 564 l 989 0 l 878 0 z "},"ض":{"ha":1597,"x_min":97,"x_max":1463,"o":"m 417 -333 q 246 -319 310 -333 q 150 -272 182 -306 q 108 -177 118 -237 q 97 -22 97 -117 q 102 85 97 29 q 115 192 107 140 q 136 282 124 243 l 246 264 q 219 126 229 193 q 208 1 208 60 q 212 -113 208 -64 q 225 -208 215 -162 l 479 -208 q 627 -194 586 -208 q 668 -135 668 -179 l 668 75 l 779 75 l 779 -50 q 765 -192 779 -136 q 713 -278 751 -247 q 603 -321 674 -308 q 417 -333 532 -333 m 1410 125 l 1463 0 l 735 0 l 735 125 l 1410 125 m 1351 0 l 1351 526 q 1290 538 1329 533 q 1197 542 1250 542 q 882 427 985 542 q 779 75 779 313 l 668 75 l 668 653 l 779 653 l 779 397 q 876 544 811 483 q 1036 635 942 604 q 1249 667 1131 667 q 1376 651 1329 667 q 1442 600 1422 636 q 1463 500 1463 564 l 1463 0 l 1351 0 m 1143 819 q 1111 832 1129 819 q 1080 863 1093 844 q 1067 896 1067 882 q 1080 928 1067 911 q 1111 959 1093 946 q 1143 972 1129 972 q 1176 959 1158 972 q 1206 928 1193 946 q 1219 896 1219 911 q 1206 864 1219 882 q 1175 833 1193 846 q 1143 819 1157 819 z "},"ﺾ":{"ha":1604,"x_min":97,"x_max":1632,"o":"m 1463 125 l 1632 125 l 1632 0 l 1463 0 l 1463 125 m 417 -333 q 246 -319 310 -333 q 150 -272 182 -306 q 108 -177 118 -237 q 97 -22 97 -117 q 102 85 97 29 q 115 192 107 140 q 136 282 124 243 l 246 264 q 219 126 229 193 q 208 1 208 60 q 212 -113 208 -64 q 225 -208 215 -162 l 479 -208 q 627 -194 586 -208 q 668 -135 668 -179 l 668 75 l 779 75 l 779 -50 q 765 -192 779 -136 q 713 -278 751 -247 q 603 -321 674 -308 q 417 -333 532 -333 m 1410 125 l 1463 0 l 735 0 l 735 125 l 1410 125 m 1351 0 l 1351 526 q 1290 538 1329 533 q 1197 542 1250 542 q 882 427 985 542 q 779 75 779 313 l 668 75 l 668 653 l 779 653 l 779 397 q 876 544 811 483 q 1036 635 942 604 q 1249 667 1131 667 q 1376 651 1329 667 q 1442 600 1422 636 q 1463 500 1463 564 l 1463 0 l 1351 0 m 1143 819 q 1111 832 1129 819 q 1080 863 1093 844 q 1067 896 1067 882 q 1080 928 1067 911 q 1111 959 1093 946 q 1143 972 1129 972 q 1176 959 1158 972 q 1206 928 1193 946 q 1219 896 1219 911 q 1206 864 1219 882 q 1175 833 1193 846 q 1143 819 1157 819 z "},"ﻀ":{"ha":1128,"x_min":-28,"x_max":1156,"o":"m 1156 125 l 1156 0 l -28 0 l -28 125 l 1156 125 m 878 75 l 878 526 q 724 542 829 542 q 408 427 511 542 q 306 75 306 313 l 194 75 l 194 653 l 306 653 l 306 397 q 403 544 338 483 q 563 635 468 604 q 775 667 657 667 q 902 651 856 667 q 969 600 949 636 q 989 500 989 564 l 989 75 l 878 75 m 653 819 q 621 832 639 819 q 590 863 603 844 q 576 896 576 882 q 590 928 576 911 q 621 959 603 946 q 653 972 639 972 q 685 959 668 972 q 716 928 703 946 q 729 896 729 911 q 716 864 729 882 q 685 833 703 846 q 653 819 667 819 z "},"ﺿ":{"ha":1121,"x_min":-28,"x_max":989,"o":"m 989 125 l 989 0 l -28 0 l -28 125 l 989 125 m 878 0 l 878 526 q 724 542 829 542 q 408 427 511 542 q 306 75 306 313 l 194 75 l 194 653 l 306 653 l 306 397 q 403 544 338 483 q 563 635 468 604 q 775 667 657 667 q 902 651 856 667 q 969 600 949 636 q 989 500 989 564 l 989 0 l 878 0 m 653 819 q 621 832 639 819 q 590 863 603 844 q 576 896 576 882 q 590 928 576 911 q 621 959 603 946 q 653 972 639 972 q 685 959 668 972 q 716 928 703 946 q 729 896 729 911 q 716 864 729 882 q 685 833 703 846 q 653 819 667 819 z "},"ط":{"ha":1121,"x_min":28,"x_max":989,"o":"m 989 125 l 989 0 l 28 0 l 28 125 l 989 125 m 878 0 l 878 526 q 724 542 829 542 q 408 427 511 542 q 306 75 306 313 l 194 75 l 194 875 l 306 875 l 306 397 q 403 544 338 483 q 563 635 468 604 q 775 667 657 667 q 902 651 856 667 q 969 600 949 636 q 989 500 989 564 l 989 0 l 878 0 z "},"ﻂ":{"ha":1128,"x_min":28,"x_max":1156,"o":"m 989 125 l 1156 125 l 1156 0 l 989 0 l 989 125 m 989 125 l 989 0 l 28 0 l 28 125 l 989 125 m 878 0 l 878 526 q 724 542 829 542 q 408 427 511 542 q 306 75 306 313 l 194 75 l 194 875 l 306 875 l 306 397 q 403 544 338 483 q 563 635 468 604 q 775 667 657 667 q 902 651 856 667 q 969 600 949 636 q 989 500 989 564 l 989 0 l 878 0 z "},"ﻄ":{"ha":1128,"x_min":-28,"x_max":1156,"o":"m 1156 125 l 1156 0 l -28 0 l -28 125 l 1156 125 m 878 0 l 878 526 q 724 542 829 542 q 408 427 511 542 q 306 75 306 313 l 194 75 l 194 875 l 306 875 l 306 397 q 403 544 338 483 q 563 635 468 604 q 775 667 657 667 q 902 651 856 667 q 969 600 949 636 q 989 500 989 564 l 989 0 l 878 0 z "},"ﻃ":{"ha":1121,"x_min":-28,"x_max":989,"o":"m 878 125 l 878 0 l -28 0 l -28 125 l 878 125 m 878 0 l 878 526 q 724 542 829 542 q 408 427 511 542 q 306 75 306 313 l 194 75 l 194 875 l 306 875 l 306 397 q 403 544 338 483 q 563 635 468 604 q 775 667 657 667 q 902 651 856 667 q 969 600 949 636 q 989 500 989 564 l 989 0 l 878 0 z "},"ظ":{"ha":1121,"x_min":28,"x_max":989,"o":"m 989 125 l 989 0 l 28 0 l 28 125 l 989 125 m 878 0 l 878 526 q 724 542 829 542 q 408 427 511 542 q 306 75 306 313 l 194 75 l 194 875 l 306 875 l 306 397 q 403 544 338 483 q 563 635 468 604 q 775 667 657 667 q 902 651 856 667 q 969 600 949 636 q 989 500 989 564 l 989 0 l 878 0 m 694 819 q 663 832 681 819 q 631 863 644 844 q 618 896 618 882 q 631 928 618 911 q 663 959 644 946 q 694 972 681 972 q 727 959 710 972 q 758 928 744 946 q 771 896 771 911 q 758 864 771 882 q 726 833 744 846 q 694 819 708 819 z "},"ﻆ":{"ha":1128,"x_min":28,"x_max":1156,"o":"m 989 125 l 1156 125 l 1156 0 l 989 0 l 989 125 m 989 125 l 989 0 l 28 0 l 28 125 l 989 125 m 878 0 l 878 526 q 724 542 829 542 q 408 427 511 542 q 306 75 306 313 l 194 75 l 194 875 l 306 875 l 306 397 q 403 544 338 483 q 563 635 468 604 q 775 667 657 667 q 902 651 856 667 q 969 600 949 636 q 989 500 989 564 l 989 0 l 878 0 m 694 819 q 663 832 681 819 q 631 863 644 844 q 618 896 618 882 q 631 928 618 911 q 663 959 644 946 q 694 972 681 972 q 727 959 710 972 q 758 928 744 946 q 771 896 771 911 q 758 864 771 882 q 726 833 744 846 q 694 819 708 819 z "},"ﻈ":{"ha":1128,"x_min":-28,"x_max":1156,"o":"m 1156 125 l 1156 0 l -28 0 l -28 125 l 1156 125 m 878 0 l 878 526 q 724 542 829 542 q 408 427 511 542 q 306 75 306 313 l 194 75 l 194 875 l 306 875 l 306 397 q 403 544 338 483 q 563 635 468 604 q 775 667 657 667 q 902 651 856 667 q 969 600 949 636 q 989 500 989 564 l 989 0 l 878 0 m 694 819 q 663 832 681 819 q 631 863 644 844 q 618 896 618 882 q 631 928 618 911 q 663 959 644 946 q 694 972 681 972 q 727 959 710 972 q 758 928 744 946 q 771 896 771 911 q 758 864 771 882 q 726 833 744 846 q 694 819 708 819 z "},"ﻇ":{"ha":1121,"x_min":-28,"x_max":989,"o":"m 878 125 l 878 0 l -28 0 l -28 125 l 878 125 m 878 0 l 878 526 q 724 542 829 542 q 408 427 511 542 q 306 75 306 313 l 194 75 l 194 875 l 306 875 l 306 397 q 403 544 338 483 q 563 635 468 604 q 775 667 657 667 q 902 651 856 667 q 969 600 949 636 q 989 500 989 564 l 989 0 l 878 0 m 694 819 q 663 832 681 819 q 631 863 644 844 q 618 896 618 882 q 631 928 618 911 q 663 959 644 946 q 694 972 681 972 q 727 959 710 972 q 758 928 744 946 q 771 896 771 911 q 758 864 771 882 q 726 833 744 846 q 694 819 708 819 z "},"ع":{"ha":794,"x_min":71,"x_max":700,"o":"m 296 528 l 296 125 l 239 76 q 191 176 204 113 q 178 340 178 240 q 189 501 178 438 q 230 601 200 565 q 313 653 260 638 q 451 668 367 668 q 540 663 494 668 q 628 649 586 658 q 700 626 669 639 l 682 510 q 561 535 621 526 q 447 543 501 543 q 363 540 401 543 q 296 528 324 536 m 346 -454 q 207 -441 261 -454 q 124 -394 153 -428 q 83 -299 94 -361 q 71 -142 71 -237 q 127 63 71 -14 q 308 174 183 139 q 640 208 433 208 l 640 104 q 297 58 404 104 q 189 -99 189 13 l 189 -317 q 272 -326 225 -322 q 385 -329 319 -329 q 489 -322 436 -329 q 619 -299 542 -315 l 636 -415 q 508 -444 585 -433 q 346 -454 432 -454 z "},"ﻊ":{"ha":869,"x_min":71,"x_max":897,"o":"m 71 -183 q 83 -79 71 -122 q 122 -4 94 -36 q 198 56 150 28 q 319 115 246 83 q 155 294 215 186 q 94 528 94 401 q 124 613 94 582 q 228 655 154 643 q 435 667 303 667 q 642 655 568 667 q 745 613 715 643 q 775 528 775 582 q 747 360 775 433 q 673 231 719 286 q 569 135 626 176 q 634 128 601 131 q 703 125 667 125 l 897 125 l 897 0 l 703 0 q 562 13 631 0 q 432 50 493 26 q 313 -1 368 25 q 223 -51 257 -26 q 189 -99 189 -75 l 189 -303 q 275 -312 226 -308 q 385 -315 324 -315 q 486 -308 433 -315 q 619 -285 539 -301 l 638 -407 q 519 -432 592 -424 q 346 -440 446 -440 q 212 -428 265 -440 q 127 -387 158 -417 q 83 -308 96 -358 q 71 -183 71 -258 m 206 542 q 238 358 206 433 q 322 235 269 283 q 435 160 375 188 q 606 308 547 211 q 664 542 664 406 l 206 542 z "},"ﻌ":{"ha":869,"x_min":-28,"x_max":897,"o":"m 703 125 l 897 125 l 897 0 l 703 0 l 703 125 m 206 542 q 264 316 206 410 q 433 174 322 222 q 703 125 544 125 l 703 0 q 465 40 575 0 q 271 153 354 81 q 141 321 188 225 q 94 528 94 417 q 124 613 94 582 q 228 655 154 643 q 435 667 303 667 q 642 655 568 667 q 745 613 715 643 q 775 528 775 582 q 728 321 775 417 q 599 153 682 225 q 405 40 515 81 q 167 0 294 0 l 167 125 q 436 174 325 125 q 606 316 547 222 q 664 542 664 410 l 206 542 m -28 125 l 167 125 l 167 0 l -28 0 l -28 125 z "},"ﻋ":{"ha":808,"x_min":-28,"x_max":739,"o":"m -28 0 l -28 125 l 329 125 l 436 0 l -28 0 m 282 528 l 282 228 q 313 149 281 172 q 411 125 346 125 l 739 125 l 739 0 l 436 0 q 301 17 354 0 q 217 72 247 33 q 176 176 188 110 q 164 340 164 242 q 175 501 164 438 q 216 601 186 565 q 299 653 246 638 q 438 668 353 668 q 526 663 481 668 q 614 649 572 658 q 686 626 656 639 l 668 510 q 547 535 607 526 q 433 543 488 543 q 349 540 388 543 q 282 528 310 536 z "},"غ":{"ha":794,"x_min":71,"x_max":700,"o":"m 296 528 l 296 125 l 239 76 q 191 176 204 113 q 178 340 178 240 q 189 501 178 438 q 230 601 200 565 q 313 653 260 638 q 451 668 367 668 q 540 663 494 668 q 628 649 586 658 q 700 626 669 639 l 682 510 q 561 535 621 526 q 447 543 501 543 q 363 540 401 543 q 296 528 324 536 m 346 -454 q 207 -441 261 -454 q 124 -394 153 -428 q 83 -299 94 -361 q 71 -142 71 -237 q 127 63 71 -14 q 308 174 183 139 q 640 208 433 208 l 640 104 q 297 58 404 104 q 189 -99 189 13 l 189 -317 q 272 -326 225 -322 q 385 -329 319 -329 q 489 -322 436 -329 q 619 -299 542 -315 l 636 -415 q 508 -444 585 -433 q 346 -454 432 -454 m 451 819 q 419 832 438 819 q 388 863 401 844 q 375 896 375 882 q 388 928 375 911 q 419 959 401 946 q 451 972 438 972 q 484 959 467 972 q 515 928 501 946 q 528 896 528 911 q 515 864 528 882 q 483 833 501 846 q 451 819 465 819 z "},"ﻎ":{"ha":869,"x_min":71,"x_max":897,"o":"m 71 -183 q 83 -79 71 -122 q 122 -4 94 -36 q 198 56 150 28 q 319 115 246 83 q 155 294 215 186 q 94 528 94 401 q 124 613 94 582 q 228 655 154 643 q 435 667 303 667 q 642 655 568 667 q 745 613 715 643 q 775 528 775 582 q 747 360 775 433 q 673 231 719 286 q 569 135 626 176 q 634 128 601 131 q 703 125 667 125 l 897 125 l 897 0 l 703 0 q 562 13 631 0 q 432 50 493 26 q 313 -1 368 25 q 223 -51 257 -26 q 189 -99 189 -75 l 189 -303 q 275 -312 226 -308 q 385 -315 324 -315 q 486 -308 433 -315 q 619 -285 539 -301 l 638 -407 q 519 -432 592 -424 q 346 -440 446 -440 q 212 -428 265 -440 q 127 -387 158 -417 q 83 -308 96 -358 q 71 -183 71 -258 m 206 542 q 238 358 206 433 q 322 235 269 283 q 435 160 375 188 q 606 308 547 211 q 664 542 664 406 l 206 542 m 435 819 q 403 832 421 819 q 372 863 385 844 q 358 896 358 882 q 372 928 358 911 q 403 959 385 946 q 435 972 421 972 q 467 959 450 972 q 498 928 485 946 q 511 896 511 911 q 498 864 511 882 q 467 833 485 846 q 435 819 449 819 z "},"ﻐ":{"ha":869,"x_min":-28,"x_max":897,"o":"m 703 125 l 897 125 l 897 0 l 703 0 l 703 125 m 206 542 q 264 316 206 410 q 433 174 322 222 q 703 125 544 125 l 703 0 q 465 40 575 0 q 271 153 354 81 q 141 321 188 225 q 94 528 94 417 q 124 613 94 582 q 228 655 154 643 q 435 667 303 667 q 642 655 568 667 q 745 613 715 643 q 775 528 775 582 q 728 321 775 417 q 599 153 682 225 q 405 40 515 81 q 167 0 294 0 l 167 125 q 436 174 325 125 q 606 316 547 222 q 664 542 664 410 l 206 542 m -28 125 l 167 125 l 167 0 l -28 0 l -28 125 m 435 819 q 403 832 421 819 q 372 863 385 844 q 358 896 358 882 q 372 928 358 911 q 403 959 385 946 q 435 972 421 972 q 467 959 450 972 q 498 928 485 946 q 511 896 511 911 q 498 864 511 882 q 467 833 485 846 q 435 819 449 819 z "},"ﻏ":{"ha":808,"x_min":-28,"x_max":739,"o":"m -28 0 l -28 125 l 329 125 l 436 0 l -28 0 m 282 528 l 282 228 q 313 149 281 172 q 411 125 346 125 l 739 125 l 739 0 l 436 0 q 301 17 354 0 q 217 72 247 33 q 176 176 188 110 q 164 340 164 242 q 175 501 164 438 q 216 601 186 565 q 299 653 246 638 q 438 668 353 668 q 526 663 481 668 q 614 649 572 658 q 686 626 656 639 l 668 510 q 547 535 607 526 q 433 543 488 543 q 349 540 388 543 q 282 528 310 536 m 451 819 q 419 832 438 819 q 388 863 401 844 q 375 896 375 882 q 388 928 375 911 q 419 959 401 946 q 451 972 438 972 q 484 959 467 972 q 515 928 501 946 q 528 896 528 911 q 515 864 528 882 q 483 833 501 846 q 451 819 465 819 z "},"ف":{"ha":1367,"x_min":97,"x_max":1228,"o":"m 292 0 q 178 28 221 0 q 116 119 135 56 q 97 286 97 182 q 108 417 97 349 q 136 533 118 486 l 242 515 q 217 407 225 460 q 208 308 208 354 q 213 208 208 251 q 231 125 218 164 l 660 125 q 649 218 653 164 q 646 361 646 272 q 658 510 646 451 q 703 603 671 569 q 792 652 735 638 q 938 667 849 667 q 1079 657 1014 667 q 1228 624 1144 647 l 1228 0 l 292 0 m 1053 125 q 1103 140 1089 125 q 1117 194 1117 156 l 1117 539 l 828 539 q 777 524 790 539 q 764 463 764 508 l 764 125 l 1053 125 m 976 819 q 944 832 963 819 q 913 863 926 844 q 900 896 900 882 q 913 928 900 911 q 944 959 926 946 q 976 972 963 972 q 1009 959 992 972 q 1040 928 1026 946 q 1053 896 1053 911 q 1040 864 1053 882 q 1008 833 1026 846 q 976 819 990 819 z "},"ﻒ":{"ha":1367,"x_min":97,"x_max":1394,"o":"m 1228 125 l 1394 125 l 1394 0 l 1228 0 l 1228 125 m 292 0 q 178 28 221 0 q 116 119 135 56 q 97 286 97 182 q 108 417 97 349 q 136 533 118 486 l 242 515 q 217 407 225 460 q 208 308 208 354 q 213 208 208 251 q 231 125 218 164 l 660 125 q 649 218 653 164 q 646 361 646 272 q 658 510 646 451 q 703 603 671 569 q 792 652 735 638 q 938 667 849 667 q 1079 657 1014 667 q 1228 624 1144 647 l 1228 0 l 292 0 m 1053 125 q 1103 140 1089 125 q 1117 194 1117 156 l 1117 539 l 828 539 q 777 524 790 539 q 764 463 764 508 l 764 125 l 1053 125 m 976 819 q 944 832 963 819 q 913 863 926 844 q 900 896 900 882 q 913 928 900 911 q 944 959 926 946 q 976 972 963 972 q 1009 959 992 972 q 1040 928 1026 946 q 1053 896 1053 911 q 1040 864 1053 882 q 1008 833 1026 846 q 976 819 990 819 z "},"ﻔ":{"ha":901,"x_min":-28,"x_max":929,"o":"m 763 125 l 929 125 l 929 0 l 763 0 l 763 125 m -28 125 l 194 125 q 184 218 188 164 q 181 361 181 272 q 193 510 181 451 q 238 603 206 569 q 326 652 269 638 q 472 667 383 667 q 614 657 549 667 q 763 624 679 647 l 763 0 l -28 0 l -28 125 m 588 125 q 638 140 624 125 q 651 194 651 156 l 651 539 l 363 539 q 312 524 325 539 q 299 463 299 508 l 299 125 l 588 125 m 472 819 q 440 832 458 819 q 409 863 422 844 q 396 896 396 882 q 409 928 396 911 q 440 959 422 946 q 472 972 458 972 q 505 959 488 972 q 535 928 522 946 q 549 896 549 911 q 535 864 549 882 q 504 833 522 846 q 472 819 486 819 z "},"ﻓ":{"ha":901,"x_min":-28,"x_max":763,"o":"m -28 125 l 194 125 q 184 218 188 164 q 181 361 181 272 q 193 510 181 451 q 238 603 206 569 q 326 652 269 638 q 472 667 383 667 q 614 657 549 667 q 763 624 679 647 l 763 0 l -28 0 l -28 125 m 588 125 q 638 140 624 125 q 651 194 651 156 l 651 539 l 363 539 q 312 524 325 539 q 299 463 299 508 l 299 125 l 588 125 m 472 819 q 440 832 458 819 q 409 863 422 844 q 396 896 396 882 q 409 928 396 911 q 440 959 422 946 q 472 972 458 972 q 505 959 488 972 q 535 928 522 946 q 549 896 549 911 q 535 864 549 882 q 504 833 522 846 q 472 819 486 819 z "},"ڤ":{"ha":1367,"x_min":97,"x_max":1228,"o":"m 292 0 q 178 28 221 0 q 116 119 135 56 q 97 286 97 182 q 108 417 97 349 q 136 533 118 486 l 242 515 q 217 407 225 460 q 208 308 208 354 q 213 208 208 251 q 231 125 218 164 l 660 125 q 649 218 653 164 q 646 361 646 272 q 658 510 646 451 q 703 603 671 569 q 792 652 735 638 q 938 667 849 667 q 1079 657 1014 667 q 1228 624 1144 647 l 1228 0 l 292 0 m 1053 125 q 1103 140 1089 125 q 1117 194 1117 156 l 1117 539 l 828 539 q 777 524 790 539 q 764 463 764 508 l 764 125 l 1053 125 m 876 819 q 844 832 863 819 q 813 863 826 844 q 800 896 800 882 q 813 928 800 911 q 844 959 826 946 q 876 972 863 972 q 909 959 892 972 q 940 928 926 946 q 953 896 953 911 q 940 864 953 882 q 908 833 926 846 q 876 819 890 819 m 1076 819 q 1044 832 1063 819 q 1013 863 1026 844 q 1000 896 1000 882 q 1013 928 1000 911 q 1044 959 1026 946 q 1076 972 1063 972 q 1109 959 1092 972 q 1140 928 1126 946 q 1153 896 1153 911 q 1140 864 1153 882 q 1108 833 1126 846 q 1076 819 1090 819 m 976 1028 q 944 1040 963 1028 q 913 1072 926 1053 q 900 1104 900 1090 q 913 1137 900 1119 q 944 1167 926 1154 q 976 1181 963 1181 q 1009 1167 992 1181 q 1040 1137 1026 1154 q 1053 1104 1053 1119 q 1040 1072 1053 1090 q 1008 1041 1026 1054 q 976 1028 990 1028 z "},"ﭫ":{"ha":1367,"x_min":97,"x_max":1394,"o":"m 1228 125 l 1394 125 l 1394 0 l 1228 0 l 1228 125 m 292 0 q 178 28 221 0 q 116 119 135 56 q 97 286 97 182 q 108 417 97 349 q 136 533 118 486 l 242 515 q 217 407 225 460 q 208 308 208 354 q 213 208 208 251 q 231 125 218 164 l 660 125 q 649 218 653 164 q 646 361 646 272 q 658 510 646 451 q 703 603 671 569 q 792 652 735 638 q 938 667 849 667 q 1079 657 1014 667 q 1228 624 1144 647 l 1228 0 l 292 0 m 1053 125 q 1103 140 1089 125 q 1117 194 1117 156 l 1117 539 l 828 539 q 777 524 790 539 q 764 463 764 508 l 764 125 l 1053 125 m 876 819 q 844 832 863 819 q 813 863 826 844 q 800 896 800 882 q 813 928 800 911 q 844 959 826 946 q 876 972 863 972 q 909 959 892 972 q 940 928 926 946 q 953 896 953 911 q 940 864 953 882 q 908 833 926 846 q 876 819 890 819 m 1076 819 q 1044 832 1063 819 q 1013 863 1026 844 q 1000 896 1000 882 q 1013 928 1000 911 q 1044 959 1026 946 q 1076 972 1063 972 q 1109 959 1092 972 q 1140 928 1126 946 q 1153 896 1153 911 q 1140 864 1153 882 q 1108 833 1126 846 q 1076 819 1090 819 m 976 1028 q 944 1040 963 1028 q 913 1072 926 1053 q 900 1104 900 1090 q 913 1137 900 1119 q 944 1167 926 1154 q 976 1181 963 1181 q 1009 1167 992 1181 q 1040 1137 1026 1154 q 1053 1104 1053 1119 q 1040 1072 1053 1090 q 1008 1041 1026 1054 q 976 1028 990 1028 z "},"ﭭ":{"ha":901,"x_min":-28,"x_max":929,"o":"m 763 125 l 929 125 l 929 0 l 763 0 l 763 125 m -28 125 l 194 125 q 184 218 188 164 q 181 361 181 272 q 193 510 181 451 q 238 603 206 569 q 326 652 269 638 q 472 667 383 667 q 614 657 549 667 q 763 624 679 647 l 763 0 l -28 0 l -28 125 m 588 125 q 638 140 624 125 q 651 194 651 156 l 651 539 l 363 539 q 312 524 325 539 q 299 463 299 508 l 299 125 l 588 125 m 372 819 q 340 832 358 819 q 309 863 322 844 q 296 896 296 882 q 309 928 296 911 q 340 959 322 946 q 372 972 358 972 q 405 959 388 972 q 435 928 422 946 q 449 896 449 911 q 435 864 449 882 q 404 833 422 846 q 372 819 386 819 m 572 819 q 540 832 558 819 q 509 863 522 844 q 496 896 496 882 q 509 928 496 911 q 540 959 522 946 q 572 972 558 972 q 605 959 588 972 q 635 928 622 946 q 649 896 649 911 q 635 864 649 882 q 604 833 622 846 q 572 819 586 819 m 472 1028 q 440 1040 458 1028 q 409 1072 422 1053 q 396 1104 396 1090 q 409 1137 396 1119 q 440 1167 422 1154 q 472 1181 458 1181 q 505 1167 488 1181 q 535 1137 522 1154 q 549 1104 549 1119 q 535 1072 549 1090 q 504 1041 522 1054 q 472 1028 486 1028 z "}}}
